<?xml version="1.0" encoding="utf-8"?>
<!-- Generator: Adobe Illustrator 23.1.0, SVG Export Plug-In . SVG Version: 6.00 Build 0)  -->
<svg version="1.1" id="Layer_1" xmlns="http://www.w3.org/2000/svg" xmlns:xlink="http://www.w3.org/1999/xlink" x="0px" y="0px"
	 viewBox="0 0 200 200" style="enable-background:new 0 0 200 200;" xml:space="preserve">
<style type="text/css">
	.st0{fill:#00936C;}
</style>
<g>
	<path class="st0" d="M45.7,189.1c-2.8,1.5-5.1,3.3-7.7,4c-8.3,2.3-16.3-4.1-16.4-12.7c-0.1-10,0-20,0-30.1c0-13.3,0-26.7,0-40
		c0-0.7,0-1.3,0-2.3c-1,0-2,0-2.9,0c-8.3-0.1-14.7-6.5-14.7-14.8c0-5.5-0.5-11.1,0.9-16.5C7.8,64.4,16.6,56,30,52.5
		c-6.8-6.3-9.8-13.8-8-22.9c1.2-6.2,4.5-11.1,9.7-14.7c9.9-7.1,23.9-5.1,31.7,4.4c7.7,9.4,7.6,24.2-3.8,33.7
		c0.5,0.2,0.9,0.4,1.3,0.5c13.8,4.7,22.6,16.8,22.6,31.4c0,9-0.3,18,0.1,26.9c0.3,8.2-4.4,16-14.7,16.9c0,4.8,0,9.5,0,14.6
		c0.7,0,1.4,0,2.1,0c26.5,0,53,0,79.5,0c1.1,0,2.3,0.3,3.3,0.9c10.4,6.1,20.7,12.4,31,18.6c0.6,0.3,1.1,0.7,1.8,1.2
		c-0.7,0.5-1.2,0.8-1.8,1.2c-10.3,6.2-20.5,12.3-30.8,18.4c-1,0.6-2.4,1-3.6,1c-26.8,0.1-53.6,0.1-80.4,0c-1.3,0-2,0.3-2.7,1.6
		c-4.1,8.1-14.5,9.8-21,3.4C45.9,189.4,45.6,189.1,45.7,189.1z M48.1,122.7c0,0.9,0,1.6,0,2.3c0,13.7,0,27.4,0,41.1
		c0,4.8-0.1,9.6,0,14.4c0.1,3.8,3,6.8,6.6,7.2c3.6,0.3,6.9-2,7.8-5.6c0.2-1,0.3-2.1,0.3-3.1c0-33.7,0-67.4,0-101.1
		c0-0.7,0-1.4,0-2.2c2,0,3.9,0,6,0c0,15.8,0,31.4,0,47c5-0.1,8.8-3.9,8.8-8.8c0.1-10.1,0.1-20.3,0-30.4C77.4,70.9,67.5,59.6,55,58.3
		c-6.3-0.7-12.6-0.4-19-0.4c-12.3,0.1-23.2,8.6-25.5,20.7c-1,5.2-0.8,10.6-0.6,16c0.2,4.2,4,7.5,8.2,7.5c7.5,0.1,15,0,22.5,0
		c1.9,0,3.3-0.9,4.1-2.7c1.4-3-0.8-6.1-4.3-6.2c-7.5,0-15,0-22.5,0c-0.7,0-1.4,0-2.2,0c0-2.1,0-3.9,0-5.9c1.9,0,3.8,0,5.8,0
		c0-4,0-7.8,0-11.6c11.9,0,23.6,0,35.3,0c0,15.7,0,31.3,0,47C54,122.7,51.2,122.7,48.1,122.7z M45.1,16.5c-9.7,0-17.7,8-17.7,17.7
		c0,9.7,8,17.7,17.7,17.7c9.7,0,17.7-8,17.7-17.7C62.8,24.5,54.9,16.5,45.1,16.5z M148.3,149.5c-26.6,0-53.1,0-79.5,0
		c0,3.9,0,7.7,0,11.6c26.5,0,53,0,79.5,0C148.3,157.1,148.3,153.4,148.3,149.5z M148.3,167.2c-26.6,0-53.1,0-79.5,0
		c0,3.9,0,7.7,0,11.6c26.5,0,53,0,79.5,0C148.3,174.8,148.3,171.1,148.3,167.2z M27.4,122.8c0,0.7,0,1.4,0,2.1c0,6.9,0,13.9,0,20.8
		c0,11.4,0,22.7,0,34.1c0,3.6,1.9,6.4,5,7.4c4.9,1.7,9.7-1.9,9.8-7.3c0-18.6,0-37.1,0-55.7c0-0.5-0.1-0.9-0.1-1.4
		C37.2,122.8,32.4,122.8,27.4,122.8z M154.4,176.5c7-4.2,13.8-8.3,20.8-12.5c-7.1-4.2-13.8-8.3-20.8-12.4
		C154.4,160,154.4,168.1,154.4,176.5z M51,100.2c-0.1,0-0.1,0-0.2,0c-0.1,0.2-0.1,0.4-0.2,0.6c-1.8,4.8-5.3,7.2-10.4,7.3
		c-2,0-4.1,0-6.1,0c-2.2,0-4.4,0-6.5,0c0,3.1,0,6,0,8.7c7.9,0,15.6,0,23.4,0C51,111.2,51,105.7,51,100.2z M51,81.6
		c-7.9,0-15.7,0-23.4,0c0,2,0,3.9,0,5.8c4.5,0,8.9-0.1,13.2,0c4.4,0.1,7.5,2.3,9.4,6.3c0.2,0.5,0.4,1,0.8,2C51,90.7,51,86.2,51,81.6
		z"/>
	<path class="st0" d="M145.5,78.4c-15.8,0-31.4,0-47.1,0c0-13.7,0-27.3,0-41.1c15.6,0,31.2,0,47,0c0.1,0.3,0.2,0.8,0.3,1.6
		c3.3-3.4,6.3-6.5,9.4-9.7c1.4,1.5,2.7,2.9,4.1,4.3c-3.2,3.2-6.4,6.7-9.9,9.8c-3.1,2.6-4.1,5.5-3.9,9.6c0.3,7.8,0.1,15.6,0.1,23.4
		C145.5,76.9,145.5,77.6,145.5,78.4z M104.3,43.1c0,9.9,0,19.6,0,29.3c11.8,0,23.5,0,35.2,0c0-6.4,0-12.6,0-19.3
		c-6,6-11.8,11.8-17.4,17.5c-4.6-4.6-9.2-9.1-13.8-13.7c1.3-1.3,2.6-2.6,4.1-4.1c3.2,3.2,6.3,6.4,9.4,9.6c0.3-0.2,0.5-0.2,0.6-0.4
		c5.5-5.5,11.1-11,16.5-16.6c0.5-0.5,0.6-1.4,1-2.3C127.7,43.1,116.1,43.1,104.3,43.1z"/>
	<path class="st0" d="M145.4,90.4c0,13.8,0,27.4,0,41.1c-15.7,0-31.3,0-47,0c0-13.6,0-27.3,0-41.1C114,90.4,129.6,90.4,145.4,90.4z
		 M104.2,125.6c11.8,0,23.5,0,35.2,0c0-9.9,0-19.6,0-29.3c-11.8,0-23.5,0-35.2,0C104.2,106.1,104.2,115.8,104.2,125.6z"/>
	<path class="st0" d="M151.5,54.8c0-2,0-3.8,0-5.7c11.7,0,23.4,0,35.2,0c0,1.8,0,3.7,0,5.7C175,54.8,163.3,54.8,151.5,54.8z"/>
	<path class="st0" d="M151.5,66.6c0-1.9,0-3.8,0-5.7c11.7,0,23.4,0,35.2,0c0,1.8,0,3.7,0,5.7C175,66.6,163.3,66.6,151.5,66.6z"/>
	<path class="st0" d="M186.7,72.7c0,2,0,3.8,0,5.7c-11.7,0-23.4,0-35.2,0c0-1.8,0-3.7,0-5.7C163.2,72.7,174.9,72.7,186.7,72.7z"/>
	<path class="st0" d="M186.7,90.4c0,2,0,3.8,0,5.7c-11.7,0-23.4,0-35.2,0c0-1.8,0-3.7,0-5.7C163.2,90.4,174.9,90.4,186.7,90.4z"/>
	<path class="st0" d="M186.7,102.2c0,1.9,0,3.8,0,5.7c-11.8,0-23.5,0-35.2,0c0-1.9,0-3.7,0-5.7C163.2,102.2,174.9,102.2,186.7,102.2
		z"/>
	<path class="st0" d="M151.5,131.5c0-1.9,0-3.8,0-5.7c11.7,0,23.4,0,35.2,0c0,1.8,0,3.7,0,5.7C175,131.5,163.3,131.5,151.5,131.5z"
		/>
	<path class="st0" d="M163.3,42.9c0-1.9,0-3.8,0-5.7c7.8,0,15.5,0,23.4,0c0,1.8,0,3.7,0,5.7C178.9,42.9,171.2,42.9,163.3,42.9z"/>
	<path class="st0" d="M174.9,114c0,2,0,3.8,0,5.7c-7.8,0-15.5,0-23.4,0c0-1.8,0-3.7,0-5.7C159.2,114,167,114,174.9,114z"/>
	<path class="st0" d="M181,119.7c0-1.9,0-3.7,0-5.7c1.9,0,3.8,0,5.7,0c0,1.9,0,3.7,0,5.7C184.9,119.7,183,119.7,181,119.7z"/>
</g>
</svg>
