<?xml version="1.0" encoding="utf-8"?>
<!-- Generator: Adobe Illustrator 23.1.0, SVG Export Plug-In . SVG Version: 6.00 Build 0)  -->
<svg version="1.1" id="Layer_1" xmlns="http://www.w3.org/2000/svg" xmlns:xlink="http://www.w3.org/1999/xlink" x="0px" y="0px"
	 viewBox="0 0 200 200" style="enable-background:new 0 0 200 200;" xml:space="preserve">
<style type="text/css">
	.st0{fill:#424242;stroke:#424242;stroke-miterlimit:10;}
	.st1{fill:#11BC8B;}
	.st2{fill:#D6B6D4;}
	.st3{fill:#F4CB57;}
</style>
<g>
	<path class="st0" d="M10.8,12.2c0.1-0.1,0.3-0.2,0.3-0.4C12.7,7.7,15.7,5.9,20,6C40,6,59.9,6,79.8,6c10.2,0,20.3,0,30.5,0
		c1.5,0,2.6,0.4,3.7,1.5c10.8,10.9,21.7,21.8,32.6,32.6c1,1,1.5,2.1,1.4,3.5c-0.1,6.6,0,13.1,0,19.7c0,1,0.3,1.6,1.2,2.1
		c12.5,7.3,20.3,18,23.4,32.1c0.6,2.7,0.2,3.6-2,4.5c-2,0.1-2.9-1.1-3.3-2.9c-5.2-25.9-32-41.1-56.6-31.8
		c-16.7,6.3-26,18.8-27.9,36.5c-0.8,7.1,0.3,14.2,3.5,20.7c0.1,0.3,0.2,0.5,0.3,0.8c0.1,0.2,0.2,0.5,0.3,0.7
		c0.2,0.4,0.3,0.9,0.5,1.3c11.8,22.6,41.4,29.8,62.3,15.1c6.1-4.3,10.9-9.6,13.9-16.4c2.6-4.8,3.8-9.9,4.3-15.2
		c0.2-1.9,0.9-3.1,2.9-3.3c2.3,0.6,2.8,1.3,2.6,3.8c-0.7,8-3.2,15.4-7.5,22.2c2.2,2.2,4.4,4.3,6.7,6.5c2.1-0.9,2.8-0.8,4.5,0.9
		c5.5,5.5,10.9,10.9,16.4,16.4c3.8,3.8,4.9,8.4,3.2,13.6c-1.7,5-5.3,7.9-10.5,8.6c-3.9,0.6-7.5-0.4-10.3-3.1
		c-6-5.8-11.8-11.7-17.7-17.6c-1.3-1.3-1.2-2.8-0.2-4.1c-2.3-2.2-4.4-4.4-6.6-6.5c0,0-0.1,0-0.2,0.1c-2.9,1-3.4,2.9-3.4,5.8
		c0.2,9.4-0.1,18.8,0.1,28.3c0.1,5.2-1.5,8.9-6.7,10.6c-41.5,0-82.9,0-124.4,0c-2.9-1.2-5-3.3-6.2-6.2c0-46.5,0-92.9,0-139.4
		c1-0.6,1.9-1.2,2.9-1.8c2.1,0.5,2.6,2,2.6,4c0,43.7,0,87.4,0,131c0,0.7,0,1.5,0.1,2.2c-0.2,4,0.5,4.7,4.4,4.7
		c39.2,0,78.3,0,117.5,0c0.6,0,1.2,0.1,1.8,0c1.4-0.2,2.3-1,2.4-2.5c0.1-0.7,0-1.5,0-2.2c0-10,0-19.9,0-29.9
		c-0.3,0.1-0.6,0.1-0.8,0.2c-5.7,2-11.6,2.8-17.7,2.8c-19.3-0.1-38.7,0-58,0c-0.5,0-1.1,0-1.6,0c-1.4-0.2-2.2-1-2.4-2.3
		c-0.2-1.5,0.5-2.5,1.9-2.9c0.6-0.2,1.3-0.2,2-0.2c11.6,0,23.1,0,34.7,0c0.6,0,1.2,0,1.8,0c-3.1-2.3-6.1-4.6-9.1-6.8
		c-0.7-0.5-1.6-0.9-2.4-0.9c-4.7-0.1-9.4,0-14,0c-3.8,0-7.7,0-11.5,0c-2,0-3.2-1-3.3-2.6c-0.1-1.7,1.2-2.8,3.2-2.8
		c6.6,0,13.3,0,19.9,0c0.6,0,1.2,0,2.1-0.1c-4.7-6.2-7.6-12.9-9.1-20.3c-0.8,0-1.5,0-2.2,0c-3.6,0-7.3,0-10.9,0
		c-1.3,0-2.5-0.6-2.8-1.9c-0.1-0.9,0.2-2.1,0.7-2.8c0.5-0.6,1.6-0.8,2.5-0.8c3.9-0.1,7.9,0,11.9,0c0-2.7,0-5.2,0-7.9
		c-0.6,0-1.2,0-1.8,0c-3.5,0-7.1,0-10.6,0c-1.7,0-2.9-1.1-2.9-2.6c0-1.6,1.1-2.7,2.9-2.8c0.5,0,1.1,0,1.6,0c3.9,0,7.8,0,11.7,0
		c1.5-7.2,4.5-13.6,8.9-19.6c-5.8,0-11.1,0-16.5,0c-2.1,0-4.1,0-6.2-0.1c-1.6-0.1-2.4-1.1-2.5-2.6c-0.1-1.5,0.8-2.4,2.2-2.7
		c0.6-0.1,1.2-0.1,1.8-0.1c8.2,0,16.4,0,24.6,0c0.6,0,1.4,0,1.9-0.3c3.3-2.4,6.5-4.9,9.7-7.4c-0.5,0-1.1,0-1.7,0
		c-11.6,0-23.1,0-34.7,0c-0.7,0-1.4,0-2-0.2c-1.4-0.4-2.1-1.5-1.9-2.9c0.2-1.3,1-2.2,2.4-2.3c0.4,0,0.9,0,1.3,0
		c19.9,0,39.8,0,59.7,0c1.8,0,3.5,0,5.3,0.3c4,0.7,7.9,1.6,12,2.4c0-4,0-8.2,0-12.5c0-1.3,0-2.6,0-4c-8.3,0-16.4,0-24.5,0
		c-2.4,0-4.5-0.5-6.5-1.9c-2.2-2.1-3-4.7-2.9-7.7c0.1-7.6,0-15.2,0-22.8c0-0.5-0.1-1-0.1-1.6c-0.3,0-0.5-0.1-0.7-0.1
		c-29.4,0-58.8,0-88.2,0c-2.4,0-3.3,1-3.4,3.5c0,7.2,0,14.5,0,21.7c0,1.9-0.7,3-2.6,3.4c-1-0.6-1.9-1.3-2.9-1.9
		C10.8,29.5,10.8,20.8,10.8,12.2z M159.2,142c-1,0.8-2,1.7-2.7,2.3c2,2.1,3.9,4.1,5.9,6.2c0.9-1,1.9-2,2.8-3
		c1.1-1.1,2.3-2.3,3.2-3.2c-2-2.1-3.9-4-5.9-6.1C161.4,139.5,160.3,140.8,159.2,142z M190.1,171.7c2.8-3,2.8-7.3-0.1-10.3
		c-2.9-3-5.8-5.8-8.7-8.8c-2.2-2.2-4.3-4.4-6.3-6.4c-2.8,2.6-5.4,5.1-8,7.5c-1,0.9-1.9,1.8-2.7,2.6c5.4,5.5,10.6,11.1,16,16.3
		C183,175.2,187.4,174.5,190.1,171.7z M114.1,15.8c0,0.3,0,0.6,0,0.9c0,6.6,0,13.1,0,19.7c0,2.6,0.9,3.5,3.5,3.5
		c6.4,0,12.8,0,19.2,0c0.5,0,1,0,1.4,0C130.1,31.9,122.1,23.9,114.1,15.8z"/>
	<path class="st1" d="M114.1,15.8c8,8,16,16.1,24.1,24.1c-0.4,0-0.9,0-1.4,0c-6.4,0-12.8,0-19.2,0c-2.6,0-3.5-0.9-3.5-3.5
		c0-6.6,0-13.1,0-19.7C114.1,16.4,114.1,16.1,114.1,15.8z"/>
	<path class="st2" d="M86.4,124.6c0.1,0.3,0.2,0.5,0.3,0.8C86.6,125.1,86.5,124.8,86.4,124.6z"/>
	<path class="st0" d="M95,120.1c-2.4,0.1-3.2-0.4-3.9-2.6c-6.4-21.3,8.4-43.3,30.6-45.5c19-1.9,36.2,11.3,38.9,30
		c2.8,18.8-9.3,36.6-27.9,40.3c-14.2,2.8-26.1-1.7-35.4-12.8c-1.4-1.7-1.4-2.6,0-4.5c2.2-0.8,2.9-0.6,4.5,1.4
		c8.3,10.1,21.5,13.9,33.7,9.5c7.9-2.9,13.8-8.1,17.2-16l0,0c0.1-0.3,0.2-0.5,0.3-0.8l0,0c0.1-0.3,0.2-0.5,0.3-0.8
		c2-4.7,2.5-9.6,1.9-14.6c-1.6-13.4-12-24.2-25.3-26.2c-13.6-2-26.9,5.3-32.3,17.8c-3.2,7.3-3.2,14.7-0.8,22.2
		C96.3,118.4,95.6,119.3,95,120.1z"/>
	<path class="st1" d="M152.8,119.9c-3.4,7.8-9.3,13.1-17.2,16c-12.2,4.4-25.4,0.6-33.7-9.5c-1.6-2-2.3-2.2-4.5-1.4
		c-0.8-1.6-1.6-3.2-2.4-4.8c0.6-0.8,1.2-1.7,1.8-2.5c0.4,0.6,0.8,1.2,1.3,1.7c2.7,2.8,5.1,5.9,8.1,8.2c7,5.1,14.9,7.1,23.5,5.8
		c8.3-1.2,15.2-4.9,20.6-11.4C151.2,121.2,152,120.6,152.8,119.9z"/>
	<path class="st0" d="M53.9,146.3c0,1.9,0,3.8,0,5.6c-0.1,3.7-2.5,6.4-6.2,6.5c-3.9,0.1-7.9,0.1-11.8,0c-3.6-0.1-6.1-2.5-6.2-6.1
		c-0.1-4.1-0.1-8.1,0-12.2c0.1-3.6,2.7-6,6.3-6c3.9-0.1,7.8-0.1,11.7,0c3.7,0,6.3,2.6,6.3,6.4C53.9,142.4,53.9,144.3,53.9,146.3z
		 M48.3,149c0-2.7,0-5.3,0.1-8c0-1-0.4-1.4-1.4-1.4c-3.5,0-7,0-10.6,0.1c-0.5,0-1.3,0.7-1.3,1.2c-0.1,2.7,0,5.4,0,8.2
		c0,0.5-0.1,1.1-0.1,1.6c0,2.4,0,2.4,2.4,2.4c2.4,0,4.8,0,7.2,0C48.6,152.9,48.6,152.9,48.3,149z"/>
	<path class="st0" d="M53.9,68.7c0,1.9,0,3.8,0,5.6c-0.1,3.7-2.6,6.3-6.3,6.3c-3.9,0.1-7.8,0.1-11.7,0c-3.6-0.1-6.1-2.5-6.3-6
		c-0.1-4.1-0.1-8.1,0-12.2c0.1-3.6,2.7-6,6.2-6.1c3.9-0.1,7.9-0.1,11.8,0c3.6,0.1,6.1,2.7,6.2,6.3C53.9,64.7,53.9,66.7,53.9,68.7z
		 M35.1,71.3c0,0.6-0.1,1.2-0.1,1.8c-0.2,1.7,0.5,2.3,2.2,2.2c2.5-0.1,5,0,7.4,0c3.9,0,3.9,0,3.6-4c0-2.7,0-5.3,0.1-8
		c0-1-0.4-1.4-1.4-1.4c-3.5,0-7,0-10.5,0c-1,0-1.4,0.4-1.4,1.4C35.1,65.9,35.1,68.6,35.1,71.3z"/>
	<path class="st0" d="M41.7,94.9c2,0,4,0,6,0c3.6,0.1,6.1,2.6,6.2,6.1c0.1,4,0.1,8,0,12c-0.1,3.5-2.6,6-6.2,6.1
		c-3.9,0.1-7.9,0.1-11.8,0c-3.6,0-6.1-2.4-6.2-6c-0.1-4.1-0.1-8.1,0-12.2c0.1-3.6,2.6-5.9,6.3-6C37.8,94.9,39.7,94.9,41.7,94.9z
		 M35.2,109.9c-0.1,0.5-0.1,1-0.2,1.4c-0.3,1.8,0.4,2.5,2.3,2.3c2.5-0.2,5.1,0,7.6,0c3.6,0,3.6,0,3.3-3.7c0-2.7,0-5.5,0.1-8.2
		c0-0.9-0.2-1.4-1.2-1.4c-3.6,0-7.3,0-10.9,0.1c-0.4,0-1.1,0.7-1.2,1.1C35,104.4,35.1,107.1,35.2,109.9z"/>
	<path class="st1" d="M152.8,119.9c-0.8,0.7-1.7,1.3-2.3,2.1c-5.4,6.5-12.3,10.2-20.6,11.4c-8.7,1.3-16.6-0.8-23.5-5.8
		c-3.1-2.2-5.5-5.4-8.1-8.2c-0.5-0.5-0.9-1.1-1.3-1.7c-2.4-7.5-2.3-14.9,0.8-22.2c5.4-12.5,18.7-19.9,32.3-17.8
		c13.3,2,23.7,12.8,25.3,26.2c0.6,5,0.1,9.9-1.9,14.6c-0.1,0.3-0.2,0.5-0.3,0.8c0,0,0,0,0,0C153,119.4,152.9,119.6,152.8,119.9
		L152.8,119.9z M121.9,102.9c-0.1-0.2-0.4-0.6-0.8-0.9c-3.8-3.6-9-3.6-12.4,0c-3.3,3.5-3.1,8.6,0.5,12.2c2.2,2.2,4.4,4.3,6.7,6.5
		c4.2,4.1,9.1,4,13.2-0.1c4.5-4.6,8.9-9.1,13.4-13.7c3.7-3.8,3.8-9,0.4-12.4c-3.5-3.5-8.7-3.2-12.5,0.5
		C127.6,97.6,124.8,100.1,121.9,102.9z"/>
	<path class="st3" d="M153.1,119.1c0.1-0.3,0.2-0.5,0.3-0.8C153.4,118.6,153.2,118.9,153.1,119.1z"/>
	<path class="st3" d="M152.8,119.9c0.1-0.3,0.2-0.5,0.3-0.8C153,119.4,152.9,119.6,152.8,119.9z"/>
	<path class="st1" d="M35.1,149c0-2.7-0.1-5.5,0-8.2c0-0.4,0.8-1.2,1.3-1.2c3.5-0.1,7,0,10.6-0.1c1,0,1.4,0.4,1.4,1.4
		c-0.1,2.7-0.1,5.3-0.1,8C43.9,149,39.5,149,35.1,149z"/>
	<path class="st1" d="M35.1,149c4.4,0,8.8,0,13.2,0c0.3,4,0.3,4-3.6,4c-2.4,0-4.8,0-7.2,0c-2.4,0-2.4,0-2.4-2.4
		C35,150,35.1,149.5,35.1,149z"/>
	<path class="st1" d="M35.1,71.3c0-2.7,0-5.3-0.1-8c0-1,0.4-1.4,1.4-1.4c3.5,0,7,0,10.5,0c1,0,1.4,0.4,1.4,1.4
		c-0.1,2.7-0.1,5.3-0.1,8C43.9,71.3,39.5,71.3,35.1,71.3z"/>
	<path class="st1" d="M35.1,71.3c4.4,0,8.8,0,13.2,0c0.2,4,0.2,4-3.6,4c-2.5,0-5-0.1-7.4,0c-1.8,0.1-2.5-0.5-2.2-2.2
		C35.1,72.5,35.1,71.9,35.1,71.3z"/>
	<path class="st1" d="M35.2,109.9c0-2.8-0.1-5.6-0.1-8.3c0-0.4,0.7-1.1,1.2-1.1c3.6-0.1,7.3,0,10.9-0.1c1,0,1.2,0.5,1.2,1.4
		c0,2.7-0.1,5.5-0.1,8.2C43.9,109.9,39.5,109.9,35.2,109.9z"/>
	<path class="st1" d="M35.2,109.9c4.4,0,8.7,0,13.1,0c0.3,3.7,0.3,3.7-3.3,3.7c-2.5,0-5.1-0.1-7.6,0c-1.9,0.1-2.6-0.5-2.3-2.3
		C35.1,110.9,35.1,110.4,35.2,109.9z"/>
	<path class="st0" d="M121.9,102.9c3-2.8,5.7-5.3,8.4-8c3.8-3.7,9-3.9,12.5-0.5c3.4,3.4,3.3,8.6-0.4,12.4
		c-4.4,4.6-8.9,9.2-13.4,13.7c-4.1,4.2-9,4.2-13.2,0.1c-2.2-2.2-4.5-4.3-6.7-6.5c-3.6-3.6-3.9-8.7-0.5-12.2c3.4-3.5,8.6-3.5,12.4,0
		C121.5,102.4,121.8,102.8,121.9,102.9z M112.1,107c0.3,1,0.2,2.4,0.8,3c2.3,2.5,4.8,4.8,7.2,7.1c1.5,1.4,3.1,1.4,4.5,0
		c4.7-4.8,9.4-9.6,14.1-14.4c1.1-1.1,1.4-2.4,0.5-3.8c-1.6-1.9-3.2-2-4.9-0.3c-3.2,3.3-6.4,6.6-9.7,9.9c-1.6,1.6-3,1.6-4.6,0.2
		c-1.1-1-2.1-2.1-3.1-3C115.2,104.1,113.1,104.7,112.1,107z"/>
</g>
</svg>
