<?xml version="1.0" encoding="utf-8"?>
<!-- Generator: Adobe Illustrator 23.1.0, SVG Export Plug-In . SVG Version: 6.00 Build 0)  -->
<svg version="1.1" id="Layer_1" xmlns="http://www.w3.org/2000/svg" xmlns:xlink="http://www.w3.org/1999/xlink" x="0px" y="0px"
	 viewBox="0 0 200 200" style="enable-background:new 0 0 200 200;" xml:space="preserve">
<style type="text/css">
	.st0{fill:#424242;}
	.st1{fill:#EDEDED;}
	.st2{fill:#11BC8B;}
</style>
<g>
	<path class="st0" d="M5,173.9c0-6,0-11.9,0-17.9c1.7-3.5,4.5-5.1,8.4-4.7c0-1,0-1.8,0-2.5c0-22.8,0-45.6,0-68.4
		c0-13.1,0-26.2,0-39.3c0-5.5,2-9.9,6.7-12.9c2.7-1.7,5.8-2.1,8.9-2.1c31.4,0,62.8,0,94.2,0.1c4.4,0,7.4-1.5,9.2-5.7
		c2.2-5.1,4.7-6.6,10.3-6c2.9,0.3,5.3-0.3,7.6-2c4.5-3.2,7.4-3.3,11.9,0c2.4,1.7,4.7,2.4,7.6,2.1c5.6-0.6,8,0.8,10.3,6
		c1.2,2.7,2.8,4.6,5.6,5.5c0.5,0.2,0.9,0.4,1.3,0.7c3.4,1.8,4.9,4.6,4.7,8.4c0,0.7-0.1,1.4-0.1,2c-0.3,2.3,0.3,4.3,1.7,6.2
		c3.8,5.3,3.7,7.8,0,13.1c-1.3,1.9-2,3.8-1.7,6.1c0.1,0.9,0.2,1.9,0.2,2.8c0,2.5-0.6,4.8-2.6,6.3c-1.2,0.9-1.5,1.9-1.5,3.3
		c0,24.7,0,49.5,0,74.2c0,0.7,0,1.5,0,2.2c0.5,0.1,0.8,0.1,1.1,0.1c4.9,0.2,7.3,2.6,7.3,7.4c0,4,0.1,8,0,11.9
		c-0.1,1.8-0.4,3.6-1,5.3c-2.2,5.9-7.3,8.9-14.5,9c-53.3,0-106.6,0-160,0c-0.9,0-1.9,0-2.8-0.1c-5.9-0.7-9.8-3.9-11.9-9.3
		C5.5,174.9,5.3,174.4,5,173.9z M97,91.2c5.5,2.4,11.7-1.2,12.1-7.1c0.1-1.9,0.1-3.9,0-5.8c-0.4-6-6.2-9.6-11.8-7.5
		c-3.3,1.2-5.1,3.7-5.4,7.1c-0.2,2.1-0.2,4.2,0,6.3C92.2,87.5,93.9,89.9,97,91.2z M117.3,103.4c-1.6-3.5-4.3-6-7.6-7.9
		c-0.5-0.3-1.3-0.2-1.8,0.1c-5,2.7-9.9,2.7-14.9,0c-0.5-0.3-1.5-0.3-2,0c-4.8,2.7-7.8,6.8-9.1,12.1c-0.1,0.5,0.2,1.5,0.7,1.8
		c1.6,1.1,3.2,2.1,4.9,2.9c5.2,2.4,10.5,3.6,16.2,2.6c5.5-0.3,10.3-2.4,14.7-5.6c0.4-0.3,0.7-1.1,0.5-1.5
		C118.5,106.3,117.9,104.9,117.3,103.4z M119.8,96.7c1.4,2.4,2.8,4.9,4.4,7.5c0.1-0.2,0.2-0.4,0.3-0.6c5.6-7.4,7.6-15.7,5.9-24.9
		c-0.4-2.4-1.3-4.1-3.7-5.1c-5.2-2.2-6.4-4.7-6-10.5c0-0.5-0.1-1.3-0.5-1.6c-4.4-3.8-9.5-6.3-15.3-6.9c-3,0-6.1-0.4-9.1,0
		c-22.8,3.2-33.8,30.3-19.8,48.6c0.3,0.4,0.5,0.8,0.9,1.6c2.3-6.5,6.1-10.9,11.2-14c-2-4.1-2.3-6.2-1.9-12.6
		c0.4-7,5.9-12.8,12.7-13.4c7.3-0.6,13.8,3.7,15.3,10.7c1.1,5.1,1.2,10.3-1.3,15C115.3,92.5,117.6,94.6,119.8,96.7z M159.2,17.2
		c-2.5-2-3.2-2-5.4-0.4c-3.7,2.9-7.8,4-12.4,3.1c-2.1-0.4-3.3,0.9-3.9,2.6c-1.5,4.2-4.4,6.9-8.5,8.6c-2.7,1.1-3,1.8-2.6,4.6
		c0.7,4.2-0.3,7.8-2.9,11.2c-2,2.6-2,3.3,0,5.9c2.5,3.3,3.5,6.9,2.9,11c-0.5,2.9-0.1,3.5,2.6,4.8c3.9,1.8,6.8,4.5,8.4,8.5
		c0.8,2,2.1,3,4.3,2.6c4.3-0.7,8.3,0.1,11.7,2.9c2.5,1.9,3,1.9,5.4,0.1c2.3-1.1,4.6-2.1,6.9-3.2c1.5,0.1,3.1,0,4.6,0.2
		c2.3,0.3,3.8-0.7,4.6-2.8c1.5-4,4.3-6.7,8.3-8.3c2.7-1.1,3-1.6,2.6-4.6c-0.5-4.2,0.4-7.9,3-11.3c2-2.5,2-3.1,0-5.6
		c-2.7-3.4-3.5-7.1-3-11.3c0.4-3.1,0.2-3.5-2.8-4.7c-4-1.6-6.8-4.3-8.2-8.3c-0.1-0.4-0.4-0.8-0.6-1.1c-0.6-1.2-1.5-1.7-2.9-1.6
		c-1.9,0.1-3.8,0.2-5.8,0.3C163.5,19.2,161.4,18.2,159.2,17.2z M178.7,179.2c0.8,0.1,1.6,0.2,2.4,0.2c6-0.3,9.2-3.6,9.2-9.6
		c0-3.6,0-7.2,0-10.8c0-1.4-0.4-2.1-1.9-2c-2.1,0.1-4.2,0.1-6.3,0.1c-18.3,0-36.5,0-54.8,0c-2.1,0-4.1,0-6.2,0c-1,0-1.5,0.4-1.4,1.4
		c0,1.4,0.1,2.9,0,4.3c-0.2,4.1-2.9,6.7-6.9,6.7c-8.3,0-16.6,0-25,0c-3.4,0-5.8-2-6.4-5.3c-0.3-1.7-0.3-3.5-0.2-5.2
		c0.1-1.5-0.5-1.9-1.9-1.9c-22.2,0-44.5,0-66.7,0c-1.4,0-2,0.4-2,1.9c0.1,4-0.2,8,0.1,11.9c0.1,1.8,0.8,3.6,1.8,5.1
		c1.9,3,5.1,3.4,8.4,3.4c51.9,0,103.7,0,155.6,0C177.2,179.4,178,179.3,178.7,179.2z M92.1,40.1c-0.6,2.3-1.2,2.7-4.1,2.7
		c-18.5,0-37,0-55.6,0c-0.7,0-1.4,0-2.1,0c0,36.3,0,72.3,0,108.5c0.9,0,1.6,0,2.3,0c15.4,0,30.8,0,46.2,0c0.6,0,1.2,0,1.9,0
		c3.3,0.3,5.7,2.5,6,5.8c0.2,1.5,0.2,3.1,0.1,4.7c-0.1,1.5,0.4,2.1,2,2c6.8-0.1,13.7,0,20.5,0c4.7,0,4.7,0,4.7-4.7
		c0-5.3,2.4-7.8,7.7-7.8c15.5,0,31.1,0,46.6,0c0.7,0,1.5,0,2.2,0c0-22.2,0-44.1,0-66c-4.3-0.5-4.9-0.5-7.1,1
		c-6.6,4.4-8.1,4.3-14.8,0.1c-1.2-0.8-2.8-1.1-4.3-1.2c-2.6-0.2-5.1-0.1-7.7-0.1c-0.3,20.9-18,36.9-38.3,35.8
		c-19.6-1-34.9-17.8-34.1-37.9c0.3-9.5,4.1-17.8,11.1-24.3c12.1-11.2,26-12.8,41.3-6.6c-0.9-3.7,0.6-6.4,2.7-9.3c-1.1,0-1.8,0-2.5,0
		c-4.6,0-9.2,0-13.8,0c-1.9,0-3.3-0.6-3.6-2.7c0.5-2.3,1-2.8,3.4-2.8c5.2,0,10.4,0,15.7,0c0.7,0,1.3-0.1,2.1-0.1c0-1.9,0-3.6,0-5.5
		c-0.7,0-1.5,0-2.2,0c-27.3,0-54.6,0-81.9,0c-3.2,0-6.3,0-9.5,0c-3.6,0.1-6.6,2.2-7.7,5.7c-0.4,1.2-0.4,2.4-0.4,3.7c0,36,0,72,0,108
		c0,0.4,0,0.9,0,1.3c0,0.3,0.2,0.8,0.3,0.8c1.5,0.1,3,0.3,4.4,0.1c0.3-0.1,0.7-1.5,0.7-2.3c0-34.6,0-69.2,0-103.9
		c0-0.9,0-1.7,0.1-2.6c0.4-3.4,2.3-5.1,5.7-5.1c19.5,0,38.9,0,58.4,0C91,37.3,91.6,37.8,92.1,40.1z M181.8,76.2
		c-1.5,2.4-2.6,4.7-4.1,6.6c-0.8,1.1-1.2,2-1.2,3.3c0,21,0,42,0,63c0,0.4-0.1,0.9,0,1.3c0.2,0.4,0.6,1,1,1c1.4,0.1,2.8,0,4.3,0
		C181.8,126.3,181.8,101.4,181.8,76.2z"/>
	<path class="st1" d="M178.7,179.2c-0.7,0-1.5,0.1-2.2,0.1c-51.9,0-103.7,0-155.6,0c-3.3,0-6.5-0.4-8.4-3.4c-1-1.5-1.7-3.4-1.8-5.1
		c-0.3-4,0-7.9-0.1-11.9c0-1.5,0.5-1.9,2-1.9c22.2,0,44.5,0,66.7,0c1.5,0,2,0.4,1.9,1.9c-0.1,1.7-0.1,3.5,0.2,5.2
		c0.6,3.3,3.1,5.3,6.4,5.3c8.3,0,16.6,0,25,0c4.1,0,6.8-2.6,6.9-6.7c0.1-1.4,0-2.9,0-4.3c0-1,0.4-1.4,1.4-1.4c2,0,4.1,0,6.2,0
		c18.3,0,36.5,0,54.8,0c0,4.2,0.2,8.3-0.1,12.4c-0.2,2.5-1.1,4.9-1.8,7.3C180,177.7,179.3,178.4,178.7,179.2z"/>
	<path class="st2" d="M165.7,79.4c-2.3,1.1-4.6,2.1-6.9,3.2c-1.8,0-3.6,0-5.4-0.1c-3.4-2.8-7.4-3.6-11.7-2.9
		c-2.2,0.4-3.5-0.6-4.3-2.6c-1.6-4-4.5-6.7-8.4-8.5c-2.7-1.2-3.1-1.8-2.6-4.8c0.6-4.1-0.4-7.7-2.9-11c-2-2.7-2.1-3.3,0-5.9
		c2.6-3.4,3.5-7,2.9-11.2c-0.4-2.8,0-3.5,2.6-4.6c4.1-1.6,6.9-4.4,8.5-8.6c0.7-1.8,1.8-3,3.9-2.6c4.6,0.9,8.7-0.2,12.4-3.1
		c1.8,0.1,3.6,0.3,5.4,0.4c2.2,1,4.4,2,6.5,3c1.5,4.3,4.3,7.3,8.6,8.8c0.2,0.1,0.5,0.2,0.7,0.3c0.8,0.9,1.9,1.7,2.2,2.8
		c0.4,1.6,0.5,3.3,0.3,4.9c-0.3,1.9-0.2,3.6,0.7,5.2c0.8,1.4,1.7,2.7,2.6,4.1c1.3,2,1.4,4.1,0.3,6.2c-0.5,0.9-1.1,1.8-1.7,2.7
		c-1.5,2.2-2.2,4.4-1.9,7.3c0.6,4.8,0.2,6.5-4.4,8.7c-0.7,0.3-1.5,0.6-2.1,1.1c-1.2,1-2.4,1.9-3.3,3.1
		C166.8,76.6,166.3,78,165.7,79.4z M148.6,58c-2.3-2.4-4.5-4.7-6.8-6.9c-1.6-1.6-3.2-1.7-4.4-0.5c-1.2,1.2-1.1,2.9,0.4,4.4
		c2.3,2.3,4.6,4.7,7,7c2.6,2.5,5.1,2.5,7.6,0c7.3-7.3,14.6-14.6,21.9-21.9c0.4-0.4,1.1-0.9,1.1-1.4c0-1,0-2.2-0.5-3
		c-0.7-1.1-2-1.2-3.2-0.5c-0.6,0.3-1.1,0.8-1.6,1.3C163,43.6,155.9,50.7,148.6,58z"/>
	<path class="st2" d="M103.8,115c-5.7,1-11.1-0.2-16.2-2.6c-1.7-0.8-3.4-1.8-4.9-2.9c-0.4-0.3-0.8-1.3-0.7-1.8
		c1.3-5.3,4.3-9.4,9.1-12.1c0.5-0.3,1.4-0.3,2,0c5,2.7,9.9,2.7,14.9,0c0.5-0.3,1.3-0.3,1.8-0.1c3.3,1.9,6,4.4,7.6,7.9
		c-1.1,1.3-2,2.7-3.2,3.7C110.7,109.8,107.2,112.4,103.8,115z"/>
	<path class="st2" d="M165.7,79.4c0.6-1.3,1.1-2.8,2-4c0.9-1.2,2.1-2.2,3.3-3.1c0.6-0.5,1.4-0.8,2.1-1.1c4.6-2.2,5-3.9,4.4-8.7
		c-0.3-2.8,0.4-5.1,1.9-7.3c0.6-0.9,1.2-1.8,1.7-2.7c1.2-2.1,1-4.2-0.3-6.2c-0.9-1.4-1.8-2.7-2.6-4.1c-0.9-1.6-1.1-3.3-0.7-5.2
		c0.3-1.6,0.2-3.4-0.3-4.9c-0.3-1.1-1.4-1.9-2.2-2.8c-0.2-0.2-0.4-0.3-0.7-0.3c-4.4-1.5-7.2-4.5-8.6-8.8c1.9-0.1,3.8-0.2,5.8-0.3
		c1.3-0.1,2.3,0.4,2.9,1.6c0.2,0.4,0.5,0.7,0.6,1.1c1.5,4,4.2,6.7,8.2,8.3c2.9,1.2,3.1,1.6,2.8,4.7c-0.5,4.2,0.4,7.9,3,11.3
		c2,2.5,2,3.1,0,5.6c-2.7,3.4-3.5,7.1-3,11.3c0.4,2.9,0.1,3.5-2.6,4.6c-4,1.6-6.8,4.2-8.3,8.3c-0.8,2.1-2.3,3.1-4.6,2.8
		C168.8,79.4,167.3,79.4,165.7,79.4z"/>
	<path class="st1" d="M178.7,179.2c0.5-0.8,1.3-1.6,1.5-2.5c0.7-2.4,1.6-4.8,1.8-7.3c0.3-4.1,0.1-8.3,0.1-12.4c2.1,0,4.2,0,6.3-0.1
		c1.5-0.1,1.9,0.6,1.9,2c-0.1,3.6,0,7.2,0,10.8c0,6-3.2,9.3-9.2,9.6C180.3,179.4,179.5,179.3,178.7,179.2z"/>
	<path class="st2" d="M97.3,70.8c5.6-2.1,11.4,1.5,11.8,7.5c0.1,1.9,0.1,3.9,0,5.8c-0.4,6-6.6,9.6-12.1,7.1c1.9-0.6,2.5-2.3,3.1-3.9
		c1.3-3.5,1.1-7.2,0.5-10.8C100.1,74.3,99.2,72.2,97.3,70.8z"/>
	<path class="st2" d="M97.3,70.8c1.9,1.4,2.8,3.4,3.2,5.7c0.6,3.6,0.8,7.3-0.5,10.8c-0.6,1.6-1.1,3.3-3.1,3.9
		c-3.1-1.3-4.8-3.7-5.1-6.9c-0.2-2.1-0.2-4.2,0-6.3C92.2,74.5,94,72.1,97.3,70.8z"/>
	<path class="st2" d="M103.8,115c3.4-2.6,6.9-5.1,10.2-7.9c1.3-1,2.2-2.5,3.2-3.7c0.6,1.5,1.3,2.9,1.7,4.4c0.1,0.4-0.2,1.3-0.5,1.5
		C114.1,112.5,109.3,114.7,103.8,115z"/>
	<path class="st2" d="M153.4,82.5c1.8,0,3.6,0,5.4,0.1C156.5,84.4,155.9,84.4,153.4,82.5z"/>
	<path class="st2" d="M159.2,17.2c-1.8-0.1-3.6-0.3-5.4-0.4C155.9,15.2,156.7,15.2,159.2,17.2z"/>
	<path class="st0" d="M86.7,142.9c-0.4,2-1.7,2.9-3.7,2.8c-4.8,0-9.6,0-14.3,0c-4.6-0.1-7.1-2.7-7.2-7.2c0-1.6,0-3.1,0-4.7
		c0.1-4.1,2.7-6.8,6.8-6.8c21.5,0,43,0,64.5,0c4.1,0,6.7,2.7,6.8,6.8c0,1.5,0,3,0,4.5c0,4.8-2.6,7.4-7.4,7.4c-7.4,0-14.8,0-22.2,0
		c-4.2,0-8.3,0-12.5,0c-1.9,0-3.2-0.8-3.5-2.8c0.6-2.2,1.2-2.7,3.5-2.8c1.2,0,2.4,0,3.5,0c8.1,0,16.3-0.1,24.4-0.1
		c1,0,2,0.1,2.9,0.1c6.7-0.1,5.4,1.2,5.6-5.9c0-0.1,0-0.2,0-0.2c-0.5-0.5-1-1.3-1.5-1.4c-2.3-0.1-4.7,0-7,0.1
		c-0.7,0-1.5-0.1-2.2-0.1c-17,0-34,0-51,0c-5.3,0-5.2,0-5.2,5.3c0,1.7,0.6,2.1,2.2,2.1c4.6-0.1,9.2,0,13.8,0
		C85,140.1,86.3,140.9,86.7,142.9z"/>
	<path class="st0" d="M148.6,58c7.4-7.4,14.5-14.5,21.6-21.6c0.5-0.5,1-1,1.6-1.3c1.2-0.7,2.5-0.5,3.2,0.5c0.5,0.8,0.6,2,0.5,3
		c0,0.5-0.7,1-1.1,1.4c-7.3,7.3-14.6,14.6-21.9,21.9c-2.6,2.5-5.1,2.5-7.6,0c-2.3-2.3-4.7-4.6-7-7c-1.5-1.5-1.6-3.2-0.4-4.4
		c1.3-1.2,2.8-1.1,4.4,0.5C144,53.4,146.2,55.7,148.6,58z"/>
</g>
</svg>
