<?xml version="1.0" encoding="utf-8"?>
<!-- Generator: Adobe Illustrator 23.1.0, SVG Export Plug-In . SVG Version: 6.00 Build 0)  -->
<svg version="1.1" id="Layer_1" xmlns="http://www.w3.org/2000/svg" xmlns:xlink="http://www.w3.org/1999/xlink" x="0px" y="0px"
	 viewBox="0 0 71 71" style="enable-background:new 0 0 71 71;" xml:space="preserve">
<style type="text/css">
	.st0{fill:#00936C;}
</style>
<g>
	<g>
		<path class="st0" d="M32.1,43.1c-1.1,0-2.2-0.1-3.2-0.4l0.6-2.1c2.5,0.7,5.3,0.4,7.8-1c3.1-1.7,5.5-4.9,6.5-8.6
			c0.8-3,0.8-6.1-0.2-8.9l-0.1-0.3l2.1-6.3V9.1c0-2.6-2.1-4.7-4.7-4.7h-1.1v8.1l-2.5,3.5L29,25.3c-1.1,1.2-1.9,2.6-2.2,4.1l-0.2,0.8
			h-3.7v-2.1h2c0.5-1.6,1.4-3,2.5-4.3l8.3-9.1l2-2.8V2.3l1-0.1c0.1,0,0.2,0,0.3,0H41c3.8,0,6.8,3.1,6.8,6.9v6.7l-2,5.9
			c1,3.1,1,6.5,0.1,9.8c-1.2,4.3-4,7.9-7.6,9.9C36.4,42.5,34.3,43.1,32.1,43.1z"/>
	</g>
	<g>
		<path class="st0" d="M52.5,59.4H35.6c-3.4,0-6.5-1.5-8.6-4.1h-4v-2.1H28l0.3,0.4c1.7,2.3,4.4,3.7,7.2,3.7h16.9V59.4z"/>
	</g>
	<g>
		<g>
			<path class="st0" d="M63.8,31.6H51c-3.1,0-5.7-2.6-5.7-5.7c0-3.1,2.5-5.7,5.7-5.7h12.8c3.1,0,5.7,2.6,5.7,5.7
				C69.5,29.1,67,31.6,63.8,31.6z M51,22.4c-1.9,0-3.5,1.6-3.5,3.6c0,2,1.6,3.6,3.5,3.6h12.8c1.9,0,3.5-1.6,3.5-3.6
				c0-2-1.6-3.6-3.5-3.6H51z"/>
		</g>
		<g>
			<path class="st0" d="M61.4,40.9H48.6c-3.1,0-5.7-2.6-5.7-5.7c0-3.1,2.5-5.7,5.7-5.7h12.8c3.1,0,5.7,2.6,5.7,5.7
				C67.1,38.3,64.5,40.9,61.4,40.9z M48.6,31.6c-1.9,0-3.5,1.6-3.5,3.6c0,2,1.6,3.6,3.5,3.6h12.8c1.9,0,3.5-1.6,3.5-3.6
				c0-2-1.6-3.6-3.5-3.6H48.6z"/>
		</g>
		<g>
			<path class="st0" d="M60.2,50.1H47.3c-3.1,0-5.7-2.6-5.7-5.7s2.5-5.7,5.7-5.7h12.8c3.1,0,5.7,2.6,5.7,5.7S63.3,50.1,60.2,50.1z
				 M47.3,40.9c-1.9,0-3.5,1.6-3.5,3.6c0,2,1.6,3.6,3.5,3.6h12.8c1.9,0,3.5-1.6,3.5-3.6c0-2-1.6-3.6-3.5-3.6H47.3z"/>
		</g>
		<g>
			<path class="st0" d="M56.5,59.4h-9.2c-3.1,0-5.7-2.6-5.7-5.7s2.5-5.7,5.7-5.7h9.2c3.1,0,5.7,2.6,5.7,5.7S59.6,59.4,56.5,59.4z
				 M47.3,50.1c-1.9,0-3.5,1.6-3.5,3.6s1.6,3.6,3.5,3.6h9.2c1.9,0,3.5-1.6,3.5-3.6s-1.6-3.6-3.5-3.6H47.3z"/>
		</g>
	</g>
	<g>
		<polygon class="st0" points="20.3,65.4 7.3,65.4 7.3,33.8 9.5,33.8 9.5,63.3 18.2,63.3 18.2,29 0,29 0,26.9 20.3,26.9 		"/>
	</g>
	<g>
		<rect x="12.2" y="57.6" class="st0" width="2.1" height="2.6"/>
	</g>
</g>
</svg>
