<?xml version="1.0" encoding="utf-8"?>
<!-- Generator: Adobe Illustrator 23.1.0, SVG Export Plug-In . SVG Version: 6.00 Build 0)  -->
<svg version="1.1" id="Layer_1" xmlns="http://www.w3.org/2000/svg" xmlns:xlink="http://www.w3.org/1999/xlink" x="0px" y="0px"
	 viewBox="0 0 200 200" style="enable-background:new 0 0 200 200;" xml:space="preserve">
<style type="text/css">
	.st0{fill:#00936C;}
</style>
<g>
	<path class="st0" d="M162.8,195.6c-1.8-0.7-3.7-1.2-5.3-2.1c-7.2-4.2-9.7-13.5-5.4-20.7c0.8-1.3,0.5-1.9-0.4-2.8
		c-10.1-10.6-20.1-21.3-30.2-31.9c-0.2-0.2-0.4-0.4-0.6-0.7c-1.6-1.7-1.8-3.2-0.5-4.4c1.3-1.2,2.6-1,4.3,0.8
		c9.7,10.2,19.3,20.5,29,30.7c1,1,2,2.1,2.5,2.7c3.3-0.7,6.2-1.8,9.1-1.8c7.8-0.1,14,5.8,14.8,13.6c0.8,7.3-4.3,14.3-11.5,16.1
		c-0.5,0.1-0.9,0.3-1.4,0.4C165.8,195.6,164.3,195.6,162.8,195.6z M165.2,190.4c5.4,0,9.9-4.5,9.9-10c0-5.4-4.4-9.8-9.8-9.9
		c-5.7,0-10.1,4.4-10.1,9.9C155.3,186,159.7,190.4,165.2,190.4z"/>
	<path class="st0" d="M85,121.6c-1.5,0-2.8,0.1-4.1,0c-6.3-0.4-11.1-4.9-11.3-11.2c-0.2-9.2-0.2-18.5,0-27.7
		c0.2-6.2,5.3-11,11.6-11.1c9.2-0.1,18.4,0,27.6,0c2.8,0,4.8,1.4,6.4,3.8c3.4-1.8,6.7-3.6,10-5.3c7.4-4,14.8-7.9,22.1-11.9
		c0.7-0.4,1.4-1.2,1.7-1.9c1.3-3.1,4.1-4.8,7.4-4.3c3,0.4,5.3,3,5.4,6.2c0.1,7,0.1,13.9,0,20.9c0,1.3,0.3,2.1,1.4,2.9
		c10.1,7.2,10.1,22.2,0.1,29.5c-1.1,0.8-1.5,1.6-1.5,2.9c0.1,6.8,0.1,13.7,0,20.5c-0.1,4.7-4,7.7-8.3,6.5c-2.2-0.6-3.6-2.1-4.5-4.1
		c-0.3-0.6-0.7-1.4-1.2-1.7c-2.1-1.2-4.2-2.3-6.4-3.5c-8.7-4.7-17.4-9.3-26.2-14c-1.4,2-3.1,3.5-5.7,3.8c-0.3,0-0.6,1-0.7,1.5
		c-0.3,3-0.6,5.9-0.9,8.9c-0.3,2.9-1,3.5-3.9,3.5c-1.1,0-2.2,0-3.5,0c0.1,1.2,0.2,2.2,0.2,3.2c0.1,2,0.3,4.1,0.2,6.1
		c-0.1,3.5-2.1,5.8-5.5,6.2c-2.8,0.3-5.7,0.4-8.5,0.1c-3.8-0.4-5.3-2.5-4.9-6.3c0.7-6.2,1.6-12.3,2.3-18.5
		C84.6,125,84.8,123.4,85,121.6z M148.6,63.5c-0.3,0.1-0.5,0.1-0.6,0.2c-10.4,5.6-20.8,11.1-31.1,16.7c-0.6,0.3-1,1.4-1,2.1
		c-0.1,9.4,0,18.9-0.1,28.3c0,1.2,0.4,1.9,1.4,2.4c10,5.3,19.9,10.6,29.9,15.9c0.4,0.2,0.9,0.4,1.5,0.7
		C148.6,107.5,148.6,85.6,148.6,63.5z M110.6,96.8c0-5.8,0-11.5,0-17.3c0-2.3-0.4-2.7-2.7-2.7c-8.5,0-17,0-25.5,0
		c-5.1,0-7.7,2.6-7.7,7.7c0,8.1,0,16.3,0,24.4c0,5,2.6,7.6,7.5,7.7c8.6,0,17.1,0,25.7,0c2.2,0,2.7-0.5,2.7-2.8
		C110.6,108.1,110.6,102.4,110.6,96.8z M156.7,96.5c0-12.1,0-24.2,0-36.3c0-0.6,0.2-1.2-0.1-1.7c-0.3-0.6-0.9-1.1-1.4-1.6
		c-0.4,0.5-1,1-1.3,1.5c-0.2,0.3,0,0.9,0,1.3c0,24.6,0,49.1,0,73.7c0,0.5-0.2,1.1,0.1,1.5c0.3,0.5,0.9,1.2,1.3,1.2
		c0.5,0,1.1-0.7,1.3-1.2c0.2-0.5,0.1-1.2,0.1-1.8C156.7,120.9,156.7,108.7,156.7,96.5z M90.3,121.8c-1,7.8-2,15.5-3,23.3
		c0,0.4,0.4,1.2,0.7,1.2c2.2,0,4.4-0.1,6.6-0.5c0.6-0.1,1.2-1.4,1.2-2.2c0.1-1.5,0-3-0.2-4.4c-0.8-5.8-1-11.5,1.3-17
		c0-0.1-0.1-0.2-0.1-0.4C94.6,121.8,92.5,121.8,90.3,121.8z M162,105.4c5.2-4.3,4.4-14.5,0-17.3C162,93.8,162,99.5,162,105.4z
		 M103.7,121.9c-0.2,0-0.3-0.1-0.5-0.1c-1.9,2.5-2.7,5.3-2.9,8.5c0.9,0,1.7,0,2.6,0C103.2,127.5,103.5,124.7,103.7,121.9z"/>
	<path class="st0" d="M118.9,35.1c-2-0.8-2.7,0.6-3.5,2.5c-3.8,9.4-7.7,18.8-11.6,28.2c-0.3,0.8-0.7,1.8-1.4,2.1
		c-0.8,0.4-2.1,0.5-2.7,0.1c-0.7-0.5-1.1-1.7-1.2-2.6c-0.1-0.7,0.5-1.5,0.8-2.2c3.9-9.4,7.7-18.8,11.7-28.2c0.5-1.3,0.5-2-0.8-2.9
		c-5.8-4.3-7.6-12.1-4.5-18.5c3.1-6.5,10.2-9.8,17.2-8.2c6.8,1.6,11.7,8,11.6,15C134.3,28.6,127.5,35.2,118.9,35.1z M119.2,29.9
		c5.5,0.1,10-4.2,10.1-9.7c0.1-5.4-4.2-10-9.6-10.1c-5.6-0.1-10.2,4.2-10.3,9.7C109.4,25.4,113.6,29.8,119.2,29.9z"/>
	<path class="st0" d="M55.8,158.6c4.6,8.2,3.4,16.2-3.1,21.2c-5.9,4.5-14.3,4-19.6-1.1c-5.4-5.2-6.2-13.6-1.9-19.7
		c3.7-5.2,12-9.1,21.1-3.7c0.3-0.4,0.6-1.1,1-1.6c6.7-7.2,13.5-14.4,20.3-21.6c0.4-0.4,0.8-0.9,1.3-1.3c1.1-0.7,2.5-0.7,3.2,0.3
		c0.5,0.8,0.5,2,0.4,3c-0.1,0.6-0.8,1.1-1.3,1.6c-6.7,7.1-13.3,14.2-20,21.3C56.8,157.5,56.3,158,55.8,158.6z M43.6,177.7
		c5.4,0.1,9.9-4.5,9.9-10c0-5.4-4.4-9.9-9.8-10c-5.4-0.1-10,4.3-10.1,9.8C33.5,173,38,177.6,43.6,177.7z"/>
	<path class="st0" d="M36.4,64.2c-8.4,5.9-16,5.9-21.8-0.1c-5.1-5.3-5.7-13.5-1.4-19.5c4.4-6,12.5-7.9,19.1-4.6
		c5.3,2.7,10.7,10,7,19.8c0.5,0.3,1.1,0.7,1.6,1c7.4,4.5,14.8,9,22.3,13.5c0.5,0.3,1,0.5,1.4,0.9c1.1,0.9,1.4,2,0.7,3.3
		c-0.7,1.2-1.8,1.5-3,1.1c-0.6-0.2-1.1-0.5-1.6-0.9C52.5,74,44.4,69.1,36.4,64.2z M25.4,63.4c5.5,0.1,10-4.4,10-9.9
		c0-5.4-4.4-9.9-9.7-10C20,43.6,15.5,48,15.4,53.5C15.4,59,19.8,63.4,25.4,63.4z"/>
	<path class="st0" d="M181.1,66.6c0.4,0.4,1.5,0.9,1.7,1.6c0.3,0.8,0.1,2.4-0.5,2.8c-3.1,2.4-6.3,4.6-9.6,6.6
		c-0.6,0.4-2.3-0.1-2.8-0.7c-0.5-0.6-0.6-2.5-0.1-2.9c3.2-2.5,6.7-4.8,10.1-7.2C180,66.6,180.3,66.7,181.1,66.6z"/>
	<path class="st0" d="M181.7,122.5c0,2.4-2.1,3.7-3.8,2.7c-2.7-1.7-5.3-3.5-7.8-5.4c-1.2-0.9-1.4-2.2-0.5-3.5
		c0.9-1.2,2.2-1.5,3.4-0.7c2.5,1.7,5,3.4,7.5,5.2C181.2,121.4,181.5,122.2,181.7,122.5z"/>
	<path class="st0" d="M182.5,99.2c-1.4,0-2.9,0.1-4.3,0c-1.6-0.1-2.7-1.2-2.6-2.6c0.1-1.5,1-2.5,2.5-2.5c3-0.1,5.9-0.1,8.9,0
		c1.5,0.1,2.4,1,2.4,2.6c0,1.6-1,2.5-2.6,2.5C185.4,99.2,184,99.2,182.5,99.2z"/>
	<path class="st0" d="M82.1,108.1c-1.1,0-2.1,0-3.2,0c-1.7-0.1-2.8-1.2-2.7-2.7c0.1-1.6,1.1-2.5,2.7-2.5c2.2,0,4.3-0.1,6.5,0
		c1.6,0,2.6,0.9,2.6,2.5c0,1.6-1,2.5-2.5,2.6C84.4,108.1,83.2,108.1,82.1,108.1C82.1,108.1,82.1,108.1,82.1,108.1z"/>
	<path class="st0" d="M82.1,99.2c-1.1,0-2.2,0-3.3,0c-1.5-0.1-2.4-1-2.5-2.5c-0.1-1.4,0.8-2.5,2.2-2.6c2.5-0.2,5-0.2,7.4,0
		c1.5,0.1,2.3,1.2,2.2,2.7c-0.1,1.4-1,2.2-2.4,2.3C84.4,99.2,83.2,99.2,82.1,99.2z"/>
	<path class="st0" d="M82.2,85.2c1.1,0,2.2-0.1,3.3,0c1.5,0.1,2.4,0.9,2.4,2.5c0,1.5-0.8,2.5-2.4,2.5c-2.3,0.1-4.7,0.1-7.1,0
		c-1.5-0.1-2.4-1.1-2.4-2.6c0-1.5,0.9-2.4,2.5-2.5C79.9,85.2,81.1,85.2,82.2,85.2z"/>
</g>
</svg>
