<?xml version="1.0" encoding="utf-8"?>
<!-- Generator: Adobe Illustrator 23.1.0, SVG Export Plug-In . SVG Version: 6.00 Build 0)  -->
<svg version="1.1" id="Capa_1" xmlns="http://www.w3.org/2000/svg" xmlns:xlink="http://www.w3.org/1999/xlink" x="0px" y="0px"
	 viewBox="0 0 800 800" style="enable-background:new 0 0 800 800;" xml:space="preserve">
<style type="text/css">
	.st0{fill:#F2F2F2;}
	.st1{fill:#00916C;}
	.st2{fill:#424242;}
</style>
<circle class="st0" cx="392.8" cy="395.4" r="390"/>
<g>
	<path class="st1" d="M160.9,292.9c-8.7,0-15.7,7-15.7,15.7v122.8c0,8.7,7,15.7,15.7,15.7s15.7-7,15.7-15.7V308.6
		C176.6,299.9,169.5,292.9,160.9,292.9z"/>
	<path class="st2" d="M494.3,201.1h-65.5c-8.7,0-15.7,7-15.7,15.7V231l-210.7,62.5c-6.7,2-11.3,8.1-11.3,15.1v122.8
		c0,0.8,0.1,1.6,0.2,2.4c0,0.1,0,0.3,0.1,0.4c0.1,0.7,0.3,1.3,0.5,1.9l44.6,142.5c2.1,6.7,8.3,11,15,11c1.6,0,3.1-0.2,4.7-0.7
		l65-20.3c4-1.2,7.3-4,9.2-7.7c1.9-3.7,2.3-8,1.1-12l-22.1-70.6L413.1,509v14.2c0,8.7,7,15.7,15.7,15.7h65.5c8.7,0,15.7-7,15.7-15.7
		V216.8C510,208.1,503,201.1,494.3,201.1z M296.7,543.3l-34.9,10.9l-31.1-99.3l42.3,12.5L296.7,543.3z M290.1,439.7H290l-67.3-20
		v-99.3l190.5-56.5v212.3L290.1,439.7z M478.6,507.5h-34v-10.2V242.8v-10.2h34V507.5z"/>
	<path class="st1" d="M617.1,458.1l-68.1-34c-7.8-3.9-17.2-0.7-21.1,7c-3.9,7.8-0.7,17.2,7,21.1l68.1,34.1c2.3,1.1,4.7,1.7,7,1.7
		c5.8,0,11.3-3.2,14.1-8.7C628,471.5,624.9,462,617.1,458.1z"/>
	<path class="st1" d="M542,317.6c2.4,0,4.8-0.5,7-1.7l68.1-34c7.8-3.9,10.9-13.3,7-21.1s-13.3-10.9-21.1-7l-68.1,34
		c-7.8,3.9-10.9,13.3-7,21.1C530.7,314.5,536.2,317.6,542,317.6z"/>
	<path class="st1" d="M624.8,354.3h-56.9c-8.7,0-15.7,7-15.7,15.7s7,15.7,15.7,15.7h56.9c8.7,0,15.7-7,15.7-15.7
		S633.5,354.3,624.8,354.3z"/>
</g>
</svg>
