<?xml version="1.0" encoding="utf-8"?>
<!-- Generator: Adobe Illustrator 23.1.0, SVG Export Plug-In . SVG Version: 6.00 Build 0)  -->
<svg version="1.1" id="Layer_1" xmlns="http://www.w3.org/2000/svg" xmlns:xlink="http://www.w3.org/1999/xlink" x="0px" y="0px"
	 viewBox="0 0 384 384" style="enable-background:new 0 0 384 384;" xml:space="preserve">
<style type="text/css">
	.st0{fill:#00936C;}
</style>
<g>
	<path class="st0" d="M-19.3,71.5c2.7-4.1,5-7.7,7.6-11.7C3.3,69.5,18,79,33.4,89c0-5.1,0-9.4,0-13.8c0-14,0-28,0-41.9
		c0-7.2,2.2-9.4,9.3-9.4c82.6,0,165,0,247.6,0c6.8,0,9.1,2.3,9.1,9.2c0,73,0,146.1,0,219.1c0,6.8-2.3,9.1-9.3,9.1
		c-31.5,0-63,0-94.5,0.1c-2.2,0-4.7,1-6.4,2.4c-4.5,3.6-9.3,5.1-15,4.1c-1.3-0.2-3.3-0.1-4.2,0.7c-8.6,8.2-15.2,8.9-25.2,2.3
		c-2.7,6.1-7,10.3-13.8,11.2c-6.6,0.9-11.8-2.1-16.8-7.9c-0.8,1.3-1.2,2.4-2,3.1c-6.8,6.5-16.9,6.8-23.6,0
		c-3.8-3.8-7.3-8.3-10.6-12.7c-1.9-2.6-3.6-3.5-6.8-3.4c-9.8,0.2-19.6,0.1-29.3,0.1c-6.2,0-8.6-2.4-8.6-8.7
		c0-18.9-0.1-37.8,0.1-56.8c0-3.3-0.9-4.8-4-6.1c-15.7-6.4-31.5-12.9-47.7-19.7c1.7-4.2,3.4-8.3,5.2-12.9
		c26.2,10.8,52.3,21.7,78.5,32.5c9.4-15,18.8-29.9,28.2-45C56.2,120.3,18.6,96-19.3,71.5z M201.5,37.9c0,1.9,0,3.5,0,5
		c0,18.4,0,37,0,55.4c0,6.9-2.3,9.2-9.2,9.2c-17.3,0-34.4,0-51.7,0c-6.9,0-9.2-2.3-9.2-9.1c0-18.7,0-37.2,0-55.9c0-1.5,0-3,0-4.4
		c-28.3,0-56.1,0-84,0c0,19.4-0.1,38.5,0.1,57.5c0,1.4,1.5,3.4,2.8,4.2c18.1,11.8,36.2,23.4,54.4,35.1c1.6,1,3.7,2,5.6,2.1
		c26,1.9,52,3.8,78,5.4c10.6,0.6,18.5,6.8,19.9,16.6c1.4,9.6-4.2,18.4-14.2,21.1c-9.7,2.4-19.6,3.7-29.5,5.6
		c0.1,0.3,0.6,1.6,1.2,2.7c4.5,9.1,9.2,18.1,13.6,27.3c1.3,2.8,2.9,3.7,5.9,3.7c27.2-0.1,54.2-0.1,81.4-0.1c1.5,0,3,0,4.5,0
		c0,5,0,9.3,0,14c-27.5,0-54.8,0-82.6,0c2,4.8,3.8,9.2,5.7,13.6c30.2,0,60.5,0,90.9,0c0-69.9,0-139.4,0-209
		C257.5,37.9,229.8,37.9,201.5,37.9z M122.4,228.6c0.8,0.7,1.5,1.3,2.1,1.9c9.6,9.6,19.1,19.2,28.8,28.6c1,1,3.1,0.9,4.8,1.4
		c0-1.9,0.2-3.6,0-5.4c-0.2-1-1.3-1.9-2-2.8c-7.6-9.4-15-18.8-22.9-28.5c3.4-2.8,6.9-5.7,10.4-8.7c1.2,1.3,2.1,2.3,3,3.4
		c8.6,10.3,17,20.6,25.8,30.8c1.6,2,2.9,6.5,6.4,4.2c3.6-2.3,0.7-5.8-0.6-8.5c-6.6-13.5-13.5-27.1-20.3-40.6
		c-3.7-7.5-7.5-14.8-11.1-22.3c-3.4-6.8-0.5-11.5,7.1-11.7c4.2,0,8.5,0.3,12.7-0.1c7.8-0.9,15.5-2.2,23.2-3.5c3-0.6,4.9-2.8,4.3-6.1
		c-0.6-3-2.7-4.2-5.7-4.3c-26.1-1.7-52.4-3.5-78.5-5.4c-2.7-0.2-4.2,0.5-5.6,2.7c-9.1,14.7-18.3,29.4-27.4,44.1
		c-0.7,1.2-1.5,2.6-1.6,4c-0.5,13.2,0.2,26.1,5.2,38.6c3.8,9.6,9.1,18.2,16.4,25.5c1,1,2.9,1.3,4.4,1.9c0.6-1.6,1.7-3.4,1.6-4.9
		c-0.2-2-1.2-4.2-2.4-5.8c-3-4.2-6.4-8.2-9.7-12.4c3.8-3,7.3-5.8,10.8-8.6c8,10,15.6,19.6,23.4,29c1,1.3,3.1,1.9,4.8,2.7
		c0.2-2,1.3-4.4,0.5-5.8c-2.6-4.9-5.5-9.8-8.9-14.2c-2.6-3.4-5.9-6.2-8.5-8.7C116.6,235.2,119.5,232,122.4,228.6z M145.8,37.9
		c0,18.7,0,37.1,0,55.3c14,0,27.8,0,41.5,0c0-18.7,0-36.9,0-55.3C173.5,37.9,159.8,37.9,145.8,37.9z M68.4,247.1
		c-5.6-13.8-7.3-27.8-7-42.1c0-0.8-0.8-2.2-1.6-2.6c-4-1.7-7.9-3.4-12-5c0,16.9,0,33.2,0,49.7C54.8,247.1,61.3,247.1,68.4,247.1z"/>
	<path class="st0" d="M229,298.7c3.3-12.9,7.3-16.6,20.6-18.4c10.7-1.5,21.3-3,32.1-4.5c13.2-1.7,25.5,0.7,37.2,6.8
		c2.1,1,3.7,1.9,5.9,0.3c0.7-0.6,2-0.7,2.9-0.7c30,0,60.1,0,90.4,0c0,4.5,0,9,0,13.9c-27.6,0-55.4,0-83.4,0c0,14.3,0,28.2,0,42.5
		c28,2.2,55.9,4.3,84.2,6.5c-0.3,4.7-0.6,9.1-0.9,13.9c-9.1-0.7-17.7-1.3-26.5-2c-20.9-1.6-41.9-3.3-62.7-5
		c-2.1-0.1-4.9-0.7-5.8-2.1c-2.1-3.1-4.2-2.6-7-1.9c-12.4,3.1-24.8,6.2-37.3,9.2c-10.7,2.7-21.3,1.9-31.8-1.5
		c-29.4-9.8-58.8-19.5-88.2-29.3c-7.9-2.7-12.8-8.6-13.1-16.2c-0.2-7.7,3.8-13.8,11.7-17.3c11.2-4.9,22.6-4.5,34.3-2
		C203.9,293.9,216.3,296.2,229,298.7z M271.3,317.3c-11.5-1-22.6,0.6-33.8-2.3c-17.4-4.7-35.3-7.3-53.1-10.8c-7-1.4-14-1.3-20.5,1.6
		c-1.7,0.7-2.9,2.8-4.3,4.2c1.4,1.3,2.7,3,4.3,3.6c29.3,9.8,58.4,19.7,87.8,29.2c5.7,1.9,12.2,3.1,18,2c17-3.3,33.7-7.7,50.7-11.8
		c0-10.6,0.1-20.8-0.1-30.9c0-1.2-1-2.7-2.1-3.4c-10.7-7.3-22.5-10.6-35.6-8.9c-11.1,1.5-22.2,3.1-33.4,4.7
		c-2.9,0.3-5.8,0.9-5.7,4.5c0.1,4,3.1,4.3,6.3,4.2c7.1-0.1,14.2,0,21.3,0C271.3,308.1,271.3,312.4,271.3,317.3z"/>
	<path class="st0" d="M215.7,205.1c0-4.7,0-9,0-13.4c18.5,0,36.9,0,55.4,0c0,4.3,0,8.7,0,13.4C252.9,205.1,234.5,205.1,215.7,205.1z
		"/>
</g>
</svg>
