<?xml version="1.0" encoding="utf-8"?>
<!-- Generator: Adobe Illustrator 23.1.0, SVG Export Plug-In . SVG Version: 6.00 Build 0)  -->
<svg version="1.1" id="Layer_1" xmlns="http://www.w3.org/2000/svg" xmlns:xlink="http://www.w3.org/1999/xlink" x="0px" y="0px"
	 viewBox="0 0 384 384" style="enable-background:new 0 0 384 384;" xml:space="preserve">
<style type="text/css">
	.st0{fill:#00936C;}
</style>
<g>
	<path class="st0" d="M377.9,106.8c-1,4.7-1.7,9.5-3,14.1c-13.3,46.7-65.2,70.1-109,49.3c-0.9-0.4-1.8-0.8-3.1-1.3c0,1.7,0,3,0,4.3
		c0,55.4-0.2,110.9,0.1,166.3c0.1,12.5-4,22.6-18.4,26.7c-64.4,0-128.8,0-193.2,0c-14.6-5.7-18.2-11-18.2-27.1
		c0-97.7,0-195.5,0-293.2c0-15.6,8.8-24.4,24.4-24.4c59.9,0,119.8,0.1,179.7-0.1c9.5,0,17.2,2.6,22.6,10.8c1-0.5,1.9-0.9,2.8-1.4
		c10-5.4,20.7-8.5,32-9.2c36.9-2.5,70.9,21.9,80.5,57.8c1.2,4.4,1.8,8.9,2.7,13.4C377.9,97.3,377.9,102,377.9,106.8z M241.9,167.4
		c0,1.6,0,3,0,4.3c0,34.3,0,68.7,0,103c0,6.3-1.3,7.6-7.7,7.6c-57.4,0-114.9,0-172.3,0c-6.4,0-7.8-1.4-7.8-7.6
		c0-57.6,0-115.1,0-172.7c0-6.2,1.3-7.5,7.4-7.5c36.8,0,73.6,0,110.4,0c1,0,2-0.1,3,0.1c2.5,0.3,4.1,1.8,4.4,4.3
		c0.3,2.7-0.9,4.6-3.6,5.3c-1.4,0.4-2.9,0.4-4.3,0.4c-34.3,0-68.7,0-103,0c-1.3,0-2.6,0-4,0c0,56.1,0,111.7,0,167.5
		c55.9,0,111.5,0,167.4,0c0-1.5,0-2.8,0-4.1c0-40.8,0-81.7,0.1-122.5c0-4.4-0.7-8.2-2.7-12.2c-4.6-8.8-6.7-18.4-7.7-28.6
		c-5.6,0-10.9,0-16.3,0c-2.6,0-5.2,0.1-7.7-0.1c-2.8-0.3-4.9-2.8-4.5-5.3c0.4-2.8,2-4.5,4.9-4.6c1.5-0.1,2.9,0,4.4,0
		c6.4,0,12.7,0,19.2,0c2.1-23.3,12.1-42.1,30-56.7c-2.8-4.9-6.9-6.5-12.1-6.5c-60.8,0-121.6,0-182.4,0c-9.1,0-13.6,4.5-13.6,13.7
		c0,99.1,0,198.2,0,297.3c0,9.1,4.5,13.6,13.7,13.6c60.7,0,121.4,0,182.1,0c9.2,0,13.7-4.5,13.7-13.6c0-57.1,0-114.2,0-171.4
		c0-1.2,0-2.3,0-3.5C248.9,167.4,245.7,167.4,241.9,167.4z M241.9,157.2c6.2,0,12-0.2,17.8,0.1c2.2,0.1,4.7,0.7,6.7,1.7
		c24.2,12.4,48.2,12.1,70.8-3c22.8-15.2,32.9-37.4,29.9-64.8c-4.3-39.9-43.6-67.4-82.6-58.2c-44.6,10.5-66.4,59.6-44.4,99.9
		c1,1.9,1.6,4.2,1.6,6.3C242.1,145.1,241.9,150.9,241.9,157.2z"/>
	<path class="st0" d="M150.5,241.5c-0.3-1.3-0.5-2.3-0.7-3.2c-0.3-2.7,0.7-4.7,3.2-5.6c2.7-0.9,5.1-0.2,6.1,2.5c1.2,3,2,6.2,2.5,9.4
		c0.5,2.9-1.3,4.7-3.9,5.4c-4.1,1.2-8.2,2.4-12.3,3.3c-7.2,1.6-13.9-2.6-16-10c-2.1-7.7-4.1-15.4-6.2-23c-1.6-5.8-3.8-7.6-9.7-7.8
		c-19.7-0.8-35.3-17.2-35-36.7c0.3-19.8,16-35.7,35.7-36c11.1-0.1,22.2-0.1,33.3,0c9.6,0.1,18.4-2.3,26.2-7.9
		c3.4-2.4,6.8-4.7,10.4-6.9c7.3-4.5,15.6,0,15.8,8.6c0.1,5.2,0.2,10.3,0,15.5c-0.1,2.4,0.7,3.7,2.9,4.5c2.3,0.9,4.5,2.1,6.6,3.3
		c7.4,4.3,11.4,10.7,11.4,19.3c0,8.6-4,15-11.4,19.3c-0.2,0.1-0.4,0.2-0.6,0.3c-7.7,2-10.2,7-8.9,14.6c0.5,2.7,0.1,5.6,0.1,8.4
		c-0.2,8.5-8.6,13-15.8,8.5c-4.3-2.7-8.4-5.6-12.6-8.3c-5.3-3.5-11.2-5.6-17.8-6.1c-0.3,3.2-1,6.2-4.9,6.5c-4.6,0.3-5.1-3.5-6.2-6.6
		c-3.7,0-7.2,0-11.1,0c2.6,9.6,5.1,19,7.9,28.4c0.3,1.1,2.5,2.4,3.7,2.3C145.7,243.2,148,242.2,150.5,241.5z M130.8,150.5
		c0,17.1,0,34.3,0,51.2c10.5,0.7,21,0.8,31.2,2.2c10.7,1.5,18.7,9.1,27.8,14.7c0-28.6,0-56.7,0-85.2c-9.1,5.7-17.1,13.2-27.7,14.7
		C151.9,149.7,141.4,149.8,130.8,150.5z M93.8,191.6c7.3,8.9,16.1,11.7,26.5,10.6c0-17.5,0-34.8,0-52.1
		c-11.5-1.2-22.7,3.3-25.6,10.5c3.3,0,6.6-0.4,9.7,0.1c1.8,0.3,4,1.8,4.8,3.3c1.6,3.2-1.1,6.5-5.1,6.6c-4.9,0.1-9.8,0-14.8,0
		c0,3.9,0,7.3,0,10.8c4.9,0,9.4,0,13.9,0c4.2,0,6.5,1.9,6.5,5.1c-0.1,3.2-2.4,4.9-6.6,5C100.2,191.6,97.4,191.6,93.8,191.6z
		 M200.2,188.4c7.8-2.9,11.3-7.5,10.6-13.6c-0.6-5.4-4.9-9.9-10.6-10.8C200.2,172.1,200.2,180.1,200.2,188.4z"/>
	<path class="st0" d="M148.1,335c25.2,0,50.5,0,75.7,0c1,0,2-0.1,3,0.1c2.9,0.3,4.5,2,4.6,4.9c0.1,2.9-1.6,4.6-4.4,5.1
		c-1,0.2-2,0.1-3,0.1c-50.7,0-101.4,0-152,0c-1.1,0-2.3,0.1-3.3-0.2c-2.6-0.7-4-2.4-3.9-5.1c0.1-2.7,1.7-4.3,4.4-4.7
		c1.1-0.2,2.2-0.1,3.4-0.1C97.6,335,122.9,335,148.1,335z"/>
	<path class="st0" d="M158.5,314.1c21.7,0,43.5,0,65.2,0c1,0,2-0.1,3,0.1c2.9,0.3,4.5,2,4.6,4.8c0.1,2.7-1.5,4.4-4,5
		c-1.2,0.3-2.5,0.2-3.7,0.2c-43.5,0-87,0-130.5,0c-1.1,0-2.3,0.1-3.4-0.1c-2.7-0.6-4.4-2.2-4.3-5.2c0.1-2.9,1.8-4.6,4.7-4.7
		c2.8-0.2,5.6-0.1,8.4-0.1C118.6,314.1,138.6,314.1,158.5,314.1z"/>
	<path class="st0" d="M64.6,62.6c0.2-11.5,9.6-20.6,21.1-20.4c11.4,0.2,20.4,9.6,20.3,21.2c-0.2,11.2-9.7,20.5-20.9,20.3
		C73.5,83.4,64.5,74.1,64.6,62.6z M95.8,62.8c-0.1-5.9-4.9-10.6-10.8-10.5c-5.7,0.1-10.3,4.8-10.4,10.6c0,5.9,4.8,10.8,10.6,10.7
		C91.1,73.5,95.9,68.7,95.8,62.8z"/>
	<path class="st0" d="M148.1,52.7c8.5,0,17,0,25.5,0c2.5,0,4.7,0.9,5.1,3.4c0.2,1.7-0.5,3.9-1.5,5.3c-0.6,0.9-2.6,1.3-4,1.3
		c-16.8,0.1-33.6,0.1-50.4,0c-3.8,0-6.2-2.2-6.1-5.3c0.1-2.9,2.4-4.8,6.1-4.8C131.3,52.6,139.7,52.7,148.1,52.7z"/>
	<path class="st0" d="M90.6,293.2c6.6,0,13.2,0,19.9,0c3.7,0,5.9,1.9,6,4.9c0,3-2.3,5.1-5.9,5.1c-13.3,0.1-26.7,0-40,0
		c-3.7,0-5.9-1.9-5.9-5c0-3.2,2.1-5,6.1-5.1C77.4,293.2,84,293.2,90.6,293.2z"/>
	<path class="st0" d="M132.4,73.6c3.4,0,6.7,0,10.1,0c3,0,4.9,1.5,5.2,4.6c0.3,2.9-1.6,5.3-4.7,5.4c-7.1,0.2-14.1,0.2-21.2,0
		c-3.1-0.1-5.1-2.6-5-5.3c0.2-2.6,2.2-4.6,5.2-4.7C125.5,73.5,129,73.6,132.4,73.6z"/>
	<path class="st0" d="M184.7,303.3c-2.6,0.1-5-2.1-5.1-4.7c-0.2-2.9,2-5.2,4.8-5.3c2.8-0.1,4.9,1.9,5.1,4.7
		C189.7,300.7,187.5,303.2,184.7,303.3z"/>
	<path class="st0" d="M226.5,303.3c-2.6,0-4.9-2.1-5-4.8c-0.1-2.9,2-5.2,4.9-5.2c2.8,0,4.9,2,5,4.7
		C231.5,300.8,229.3,303.2,226.5,303.3z"/>
	<path class="st0" d="M200.6,297.8c0.2-2.8,2.7-4.8,5.6-4.5c2.7,0.3,4.5,2.6,4.3,5.4c-0.2,2.7-2.6,4.8-5.2,4.6
		C202.5,303.1,200.3,300.6,200.6,297.8z"/>
	<path class="st0" d="M299.6,135.7c2.3-1.9,4.4-3.9,6.7-5.7c2.7-2.2,5.5-2,7.5,0.3c1.7,2.1,1.5,5.1-0.8,7.2
		c-2.6,2.4-5.2,4.7-7.9,6.8c-3.5,2.8-7.4,2.9-10.8,0c-11.7-10.1-23.6-20-34.9-30.6c-11.1-10.4-11.6-28.1-1.9-39.7
		c9.9-11.9,26.9-14.4,39.7-5.7c2,1.4,3.2,1.3,5.2,0c12.9-8.7,30-6.2,39.7,5.7c9.8,12.1,8.8,29.4-2.4,40.3c-2.5,2.4-5.2,4.7-7.8,6.9
		c-2.7,2.2-5.5,2.1-7.5-0.1c-2-2.3-1.6-5.2,1.1-7.7c2.3-2,4.6-3.9,6.8-6c8.1-7.6,8.6-19.8,1.3-27.8c-7.3-8.1-19.4-8.6-27.8-1.2
		c-4.6,4.1-7.2,4-12-0.1c-8.6-7.4-20.6-6.7-28,1.6c-7.1,8-6.6,20.2,1.6,27.5C277.8,117,288.6,126.2,299.6,135.7z"/>
	<path class="st0" d="M169.1,176.1c0-4.7,0-9.4,0-14.1c0-3.7,1.9-5.9,4.9-6c3-0.1,5.1,2.3,5.1,5.8c0.1,9.5,0.1,19,0,28.5
		c0,3.4-2.1,5.6-5,5.6c-3,0.1-5-2.2-5.1-5.8C169.1,185.5,169.1,180.8,169.1,176.1z"/>
</g>
</svg>
