<?xml version="1.0" encoding="utf-8"?>
<!-- Generator: Adobe Illustrator 23.1.0, SVG Export Plug-In . SVG Version: 6.00 Build 0)  -->
<svg version="1.1" id="Layer_1" xmlns="http://www.w3.org/2000/svg" xmlns:xlink="http://www.w3.org/1999/xlink" x="0px" y="0px"
	 viewBox="0 0 200 200" style="enable-background:new 0 0 200 200;" xml:space="preserve">
<style type="text/css">
	.st0{fill:#00936C;}
</style>
<g>
	<path class="st0" d="M0.9,96.7c1.9-2.5,3.3-2.6,5.6-0.4c4.4,4.4,8.8,8.8,13.2,13.2c2,2,2.8,2,4.9,0c1.2-1.2,2.3-2.4,3.5-3.5
		c1.4-1.3,3-1.4,4.2-0.2c1.2,1.2,1.2,2.8-0.2,4.2c-1,1-2.2,1.9-3.4,3c3.8,3.8,7.2,7.4,10.8,10.7c1.9,1.7,2.8,3.6,2.5,6.2
		c-0.2,1.5,0,3,0,4.6c0,2.9,0.7,4.3,2.9,6.3c8.2-6,14.1-5,18.1,3.2c4-1.4,7.8-1.1,11.1,1.9c3.2,3,3.9,6.7,2.8,10.5
		c1.8,1.3,3.7,2.3,5,3.8c1.3,1.5,1.9,3.6,3,5.6c4.6,0,8.2,2.2,10,6.8c1,2.4,0.9,5-0.2,7.4c-0.5,1-0.3,1.6,0.4,2.3c2.1,2,4,4,6.1,6
		c2,1.9,4.7,1.9,6.5,0.2c1.8-1.8,1.8-4.4-0.2-6.4c-3.5-3.5-7-7-10.5-10.5c-1.1-1.1-1.7-2.2-1.1-3.7c0.8-1.9,3.2-2.2,4.9-0.6
		c3.5,3.4,6.9,6.9,10.4,10.3c0.8,0.8,1.9,1.5,3,1.8c1.9,0.5,3.7-0.6,4.6-2.2c0.9-1.8,0.7-3.6-0.9-5.2c-2.8-2.9-5.7-5.7-8.6-8.6
		c-0.8-0.8-1.6-1.6-2.4-2.4c-1.2-1.3-1.3-2.9-0.2-4.1c1.2-1.2,2.8-1.3,4.2,0.1c3.6,3.5,7,7.1,10.7,10.6c0.8,0.8,2,1.4,3.1,1.7
		c1.9,0.4,3.5-0.6,4.4-2.3c0.9-1.7,0.7-3.7-0.8-5.2c-3.3-3.4-6.7-6.7-10.1-10.1c-2.2-2.2-2.5-3.8-1-5.2c1.4-1.3,2.9-1,5,1.1
		c3.3,3.3,6.6,6.6,10,9.9c1.7,1.6,3.6,1.9,5.4,1c1.7-0.9,2.7-2.7,2.2-4.6c-0.3-1.1-1.1-2.3-1.9-3.2c-6.2-6.3-12.4-12.5-18.6-18.7
		c-0.5-0.5-1.3-1.2-1.3-1.8c0-1.1,0.2-2.4,0.9-3.2c0.8-1,2.2-0.9,3.3-0.1c0.6,0.4,1,0.9,1.5,1.4c6.5,6.5,13.1,13.1,19.9,19.9
		c2.2-2.3,4.4-4.6,6.6-6.9c2.8-2.8,5.5-5.6,8.3-8.3c1.6-1.6,3.2-1.8,4.5-0.6c1.3,1.3,1.2,3-0.5,4.6c-5.2,5.2-10.5,10.5-15.7,15.7
		c-0.5,0.5-1,1.3-1.1,2c-0.6,5.8-3.8,9.1-9.7,9.9c-0.2,0-0.4,0.1-0.5,0.1c-1.1,6.6-3.8,9.3-10.4,10.3c-0.2,2.6-1,5.1-3,7.1
		c-2,2-4.3,3-7.2,3.1c-0.1,0.7-0.3,1.3-0.4,2c-0.8,3.9-3,6.5-6.8,7.7c-3.7,1.2-7.2,0.5-10-2.2c-2.5-2.3-4.7-4.9-7.4-7.6
		c-1.8,1.9-3.3,3.5-4.8,5.1c-3,3.2-6.7,4.4-10.9,3c-4.3-1.5-6.6-4.7-7-9.2c0-0.1-0.1-0.2-0.1-0.3c-6.8-1.5-8.9-3.6-10.2-10.3
		c-4.1-0.3-7.3-2.2-9.1-6c-1.2-2.6-2.5-3.9-5.1-5.1c-6-2.6-7.9-10.2-3.9-15.3c0.5-0.6,1.1-1.2,1.7-2c-4.2-3.5-5-8.2-4.6-13.2
		c0.2-2.2-0.5-3.7-2.1-5.1c-3-2.8-5.9-5.8-8.7-8.7c-0.8-0.9-1.7-1.1-2.9-1.2c-1.9-0.2-4.1-0.6-5.4-1.8C11.5,109.5,6.3,104,0.9,98.6
		C0.9,98,0.9,97.3,0.9,96.7z M57.7,167.4c0.5-0.2,1.5-0.5,2.2-1.1c3.5-3.4,7.1-6.9,10.5-10.4c1.6-1.7,1.4-4.2-0.2-5.8
		c-1.6-1.5-4.1-1.8-5.7-0.3c-3.7,3.5-7.2,7.1-10.7,10.7c-1.2,1.3-1.2,3-0.4,4.6C54.1,166.6,55.4,167.3,57.7,167.4z M84.5,171.4
		c-0.4,0.2-1.5,0.4-2.2,1c-2.8,2.6-5.5,5.3-8.2,8.2c-1.6,1.7-1.4,4.1,0.2,5.8c1.6,1.7,4.1,2,5.8,0.5c2.9-2.7,5.7-5.5,8.4-8.4
		c1.2-1.3,1.2-3,0.4-4.6C88.2,172.3,86.9,171.4,84.5,171.4z M78.4,167c-0.1-2.3-0.9-3.7-2.5-4.5c-1.7-0.8-3.4-0.6-4.7,0.7
		c-2.4,2.3-4.7,4.6-7,7c-1.7,1.8-1.6,4.3,0,6c1.7,1.7,4.1,1.8,6,0.1c2.4-2.2,4.7-4.6,7-7C77.8,168.6,78.2,167.5,78.4,167z
		 M47.4,157.2c0.3-0.1,1.3-0.2,1.8-0.7c2.6-2.4,5.2-4.8,7.5-7.5c1.4-1.6,0.9-4-0.7-5.5c-1.5-1.4-3.8-1.6-5.4-0.2
		c-2.5,2.2-4.8,4.6-7.1,7.1c-1.2,1.3-1.2,2.9-0.4,4.4C43.9,156.3,45.2,157.2,47.4,157.2z"/>
	<path class="st0" d="M136.7,85.2c-1.7-3.3-1.3-5.5,1.5-8.3c7.1-7.1,14.1-14.2,21.2-21.2c1.7-1.7,3.4-1.8,4.6-0.5
		c1.1,1.2,1,2.9-0.5,4.4c-4.2,4.2-8.4,8.4-12.6,12.6c-3.2,3.2-6.3,6.3-9.7,9.7c12.8,12.3,25.5,24.4,38.4,36.7
		c3.2-3.2,6.2-6.3,9.3-9.4c0.6-0.6,1.2-1.3,1.9-1.8c1.2-0.9,2.5-0.9,3.6,0.2c1.2,1.1,1.4,2.6,0.3,3.7c-3.8,4-7.7,7.9-11.7,11.6
		c-2.1,1.9-4.7,1.4-7.3-0.1c-1.3,1.4-2.6,2.9-4,4.3c-1.4,1.4-3.2,1.5-4.4,0.3c-1.2-1.2-1.1-2.9,0.4-4.3c1.3-1.3,2.8-2.6,4.3-3.9
		c-10.5-10.1-20.7-19.8-31.5-30.1c-3.3,3.6-6.5,7.1-9.8,10.5c-2.4,2.5-4,2.9-6.8,0.9c-6.7-4.7-14-6.5-22.1-5.8
		c-5.5,0.5-11,0-16.5,0.1c-1.1,0-2.4,0.6-3.1,1.3c-3.3,3.1-6.5,6.4-9.7,9.6c-2.7,2.8-3,6-0.7,8.4c2.2,2.4,5.4,2.4,8.3,0.1
		c2.7-2.2,5.2-4.4,8-6.5c0.8-0.6,1.9-1,2.9-1.1c4.2-0.1,8.5-0.1,12.7,0c2.6,0,3.5,1.1,3.4,3.7c0,0.5,0.2,1.2,0.6,1.6
		c1.7,1.8,3.5,3.5,5.2,5.3c2,2,2.3,3.5,0.9,4.9c-1.3,1.4-3,1.1-4.9-0.8c-2.6-2.6-5.2-5.3-8-7.9c-0.6-0.5-1.5-0.7-2.3-1
		c-0.1,0-0.1,0-0.2,0c-4.9-0.7-9,0.5-12.4,4.3c-0.9,1-2.1,1.8-3.2,2.7c-4.8,3.6-11.3,3-15.3-1.4c-4-4.4-4.1-11,0-15.4
		c3.7-3.9,7.7-7.6,11.9-11.7C78,90.2,77,89.4,76,88.8c-1-0.6-2.2-1-3.3-1.4c-4.2-1.4-8.4-2.8-11.3-7.4c-0.9,1.1-1.4,2-2.1,2.7
		c-5.7,5.7-11.4,11.4-17,17.1c-0.4,0.4-0.9,0.9-1.4,1.3c-1.3,1.1-2.8,1.1-3.9,0c-1.2-1.1-1.2-2.7,0-4.1c0.9-1,2-2,2.9-3
		c6.5-6.5,13-13,19.5-19.5c1.9-1.9,1.9-2.8,0-4.7c-3.4-3.4-6.7-6.7-10.1-10.1c-1.7-1.7-1.9-3.4-0.6-4.6c1.3-1.3,2.9-1,4.6,0.6
		c3.5,3.4,6.9,6.9,10.4,10.3c2.7,2.6,3.4,5.7,2.1,9.2c-0.1,0.4-0.2,1.1,0,1.3c1.5,1.3,2.9,2.9,4.7,3.7c5.1,2.1,10.5,3.8,14.3,8.2
		c0.4,0.5,1.4,0.6,2.1,0.6c8.3,0,16.6-0.1,24.9,0.1c2.1,0,4.2,0.7,6.1,1.6c2.6,1.2,5.1,2.8,7.7,4.2c0.5,0.3,1.5,0.2,1.9-0.1
		C130.5,91.8,133.5,88.6,136.7,85.2z"/>
</g>
<g>
	<path class="st0" d="M103,12.6c4.7-4.8,10.3-7.5,16.9-7.7c17.4-0.5,29.4,15.8,24,32.8c-1.6,5-4.2,9.3-8.1,12.7
		c-10.1,8.7-20.3,17.2-30.5,25.8c-1.7,1.4-2.9,1.4-4.6,0.1C90.5,67.7,80.1,59.1,70,50.2c-8.6-7.5-11.5-19.9-7.6-29.9
		c6.3-15.8,26.2-20.5,38.9-9.2C101.9,11.6,102.4,12.1,103,12.6z M102.9,70.3c0.3-0.2,0.5-0.3,0.7-0.4c9.4-8,18.8-15.9,28.2-23.9
		c3.2-2.8,5.3-6.3,6.5-10.4c2.6-8.8-0.6-17.5-8-22c-7.5-4.5-16.4-3.2-23,3.4c-0.7,0.7-1.3,1.4-2,2c-1.5,1.4-3,1.4-4.5,0
		c-1.1-1-2.1-2.1-3.2-3.2c-9-8.3-23.5-5.6-28.8,5.4c-3.8,7.9-1.6,18.2,5.4,24.6c2.2,2,4.6,3.9,6.9,5.9C88.2,57.9,95.5,64,102.9,70.3
		z"/>
</g>
</svg>
