<?xml version="1.0" encoding="utf-8"?>
<!-- Generator: Adobe Illustrator 23.1.0, SVG Export Plug-In . SVG Version: 6.00 Build 0)  -->
<svg version="1.1" id="Capa_1" xmlns="http://www.w3.org/2000/svg" xmlns:xlink="http://www.w3.org/1999/xlink" x="0px" y="0px"
	 viewBox="0 0 800 800" style="enable-background:new 0 0 800 800;" xml:space="preserve">
<style type="text/css">
	.st0{fill:#F2F2F2;}
	.st1{fill:#00916C;}
	.st2{fill:#424242;}
</style>
<circle class="st0" cx="392.8" cy="395.4" r="390"/>
<g>
	<path class="st1" d="M378.5,414.7c0-2.1,0-4.2,0-6.3c0-71.7,0-143.4,0-215.1c0-12.6,6.1-21,17.1-23.8c13.1-3.3,26.3,6.2,27.3,19.6
		c0.2,2.4,0.1,4.9,0.1,7.3c0,70.7,0,141.3,0,212c0,2.1,0,4.2,0,7.6c2-1.8,3.4-2.9,4.6-4.2c15.4-15.4,30.8-30.9,46.3-46.2
		c6.6-6.6,14.5-9,23.5-5.9c8.5,2.9,13.5,9.1,14.9,17.9c1.3,8-1.8,14.6-7.5,20.3c-15.2,15.1-30.4,30.3-45.5,45.5
		c-13.6,13.6-27.1,27.2-40.7,40.7c-11.6,11.6-24.1,11.6-35.7,0c-28.9-28.9-57.8-57.7-86.6-86.6c-6.6-6.6-9.2-14.4-6.3-23.4
		c2.7-8.5,8.8-13.7,17.7-15.3c8-1.4,14.7,1.5,20.3,7.1c15.2,15.2,30.4,30.3,45.5,45.6c1.3,1.3,2.1,3.1,3.2,4.7
		C377.3,415.7,377.9,415.2,378.5,414.7z"/>
	<path class="st2" d="M400.9,570.9c-43.8,0-87.6,0-131.4,0c-40.8,0-69.7-29-69.7-69.9c0-6.5-0.1-12.9,0-19.4
		c0.2-12.2,9.2-21.6,21.2-22.4c11.4-0.8,21.8,7.7,23.1,19.7c0.8,7.6,0.3,15.3,0.4,23c0.1,15.2,8.9,24.2,24,24.2
		c88.1,0,176.2,0,264.4,0c15.2,0,24.1-8.9,24.2-24c0.1-6.5-0.1-12.9,0-19.4c0.2-13.7,10.1-23.9,22.8-23.6
		c12.7,0.3,22.2,10.2,21.9,23.8c-0.2,12.2,0.3,24.6-2.1,36.4c-6.3,30.2-33.4,51.4-64.2,51.5C490.6,571,445.7,570.9,400.9,570.9z"/>
</g>
</svg>
