<?xml version="1.0" encoding="utf-8"?>
<!-- Generator: Adobe Illustrator 23.1.0, SVG Export Plug-In . SVG Version: 6.00 Build 0)  -->
<svg version="1.1" id="Layer_1" xmlns="http://www.w3.org/2000/svg" xmlns:xlink="http://www.w3.org/1999/xlink" x="0px" y="0px"
	 viewBox="0 0 71 71" style="enable-background:new 0 0 71 71;" xml:space="preserve">
<style type="text/css">
	.st0{fill:#00936C;}
</style>
<g>
	<g>
		<g>
			<path class="st0" d="M45.2,11.3l-7.9-6.7c-1-0.8-2.6-0.8-3.6,0l-7.5,6.3l-1.4-1.6l7.5-6.3c1.7-1.5,4.6-1.5,6.3,0l7.9,6.7
				L45.2,11.3z"/>
		</g>
		<g>
			<path class="st0" d="M68.6,69.1H2.4c-0.6,0-1.1-0.5-1.1-1.1V29.9c0-0.2,0-0.4,0.1-0.6c0.1-0.1,0.2-0.3,0.3-0.4l6.7-5.7l1.4,1.6
				l-6.5,5.5V67h64.1V30.3L61,24.7l1.4-1.6l6.9,5.8c0.2,0.1,0.3,0.3,0.4,0.5c0,0.1,0.1,0.3,0,0.4V68C69.7,68.6,69.2,69.1,68.6,69.1z
				"/>
		</g>
		<g>
			<polygon class="st0" points="62.5,31.3 60.4,31.3 60.4,11.5 10.3,11.5 10.3,31.3 8.1,31.3 8.1,9.4 62.5,9.4 			"/>
		</g>
		<g>
			<g>
				<path class="st0" d="M46.1,50.8H24.9c-0.2,0-0.5-0.1-0.7-0.2L1.6,32L3,30.4l22.3,18.3h20.4l22.4-18.3l1.3,1.6L46.8,50.5
					C46.6,50.7,46.3,50.8,46.1,50.8z"/>
			</g>
			<g>
				<g>
					<path class="st0" d="M5,68.3l-1.4-1.6l7.4-6.3l5.6-4.8c0.7-0.6,1.5-1.3,2.4-2l5.5-4.7l1.4,1.6l-5.5,4.7c-0.9,0.7-1.7,1.5-2.4,2
						L12.4,62L5,68.3z"/>
				</g>
				<g>
					
						<rect x="55.5" y="44.8" transform="matrix(0.6512 -0.7589 0.7589 0.6512 -24.9453 63.4352)" class="st0" width="2.1" height="28.2"/>
				</g>
			</g>
		</g>
	</g>
	<g>
		<g>
			<path class="st0" d="M35.9,42.6c-7,0-12.7-5.7-12.7-12.6s5.7-12.6,12.7-12.6c3.8,0,7.4,1.7,9.8,4.6l-1.6,1.3
				c-2-2.5-5-3.9-8.2-3.9c-5.8,0-10.6,4.7-10.6,10.5s4.7,10.5,10.6,10.5c2.3,0,4.5-0.7,6.4-2.1l1.3,1.7
				C41.3,41.7,38.7,42.6,35.9,42.6z"/>
		</g>
		<g>
			<path class="st0" d="M33.8,36.1L33.8,36.1c-0.5,0-1-0.1-1.6-0.2c-1.6-0.5-2.8-1.8-3.3-3.6c-0.6-2.4,0.3-5.1,2.3-7
				c1.8-1.7,4.2-2,5.9-2c1.4,0,2.5,0.2,2.6,0.3l1.1,0.3l-0.3,1.1c-0.1,0.3-2.1,6.9-2.5,7.9C37.8,33.8,36.6,36.1,33.8,36.1z
				 M37.2,25.3c-1.3,0-3.2,0.3-4.5,1.4c-1.8,1.7-2.1,3.7-1.7,5c0.3,1.1,0.9,1.8,1.8,2.1c0.4,0.1,0.7,0.2,1,0.2l0,0
				c1.3,0,2-1.1,2.3-2c0.3-0.7,1.5-4.7,2.1-6.7C37.9,25.4,37.6,25.3,37.2,25.3z"/>
		</g>
		<g>
			<path class="st0" d="M40.8,36c-1.1,0-2.1-0.4-2.9-1.1c-1.7-1.5-0.5-6.6,0.3-9.5l2,0.6c-0.9,3.3-1.4,6.8-0.9,7.4
				c0.8,0.7,1.8,0.6,2.5,0.3c1.6-0.6,3.5-2.4,3.9-4.9c0.3-1.8,0-4.5-3.4-7.2l1.3-1.6c4.4,3.5,4.5,7.3,4.2,9.2
				c-0.5,3-2.7,5.7-5.3,6.6C42,35.9,41.4,36,40.8,36z"/>
		</g>
	</g>
</g>
</svg>
