<?xml version="1.0" encoding="utf-8"?>
<!-- Generator: Adobe Illustrator 23.1.0, SVG Export Plug-In . SVG Version: 6.00 Build 0)  -->
<svg version="1.1" id="Layer_1" xmlns="http://www.w3.org/2000/svg" xmlns:xlink="http://www.w3.org/1999/xlink" x="0px" y="0px"
	 viewBox="0 0 200 200" style="enable-background:new 0 0 200 200;" xml:space="preserve">
<style type="text/css">
	.st0{fill:#00936C;}
</style>
<g>
	<path class="st0" d="M15.9,114c0.8-1.4,1.5-3,2.6-4.3c1.5-1.8,3.6-2.6,5.9-2.6c5,0,10-0.1,14.9,0c3.3,0,5.8,1.7,7.4,4.6
		c0.5,1,1.1,1.3,2.1,1.2c5.8-0.2,11.5,0.1,16.7,2.8c1.7,0.9,2.8,0.7,4.3-0.3c5.8-3.8,12.2-5.5,19.1-5.5c0.6,0,1.5,0,1.9-0.4
		c6-4.7,12.8-7.4,20.3-8.2c0.3-6.9-7.7-16-14.6-16.6c-0.3,0.8-0.6,1.5-1,2.3c-3,6.1-9.3,9.3-16.8,8.2c-10.2-1.5-18.3-6.5-24.2-15.1
		c-1.2-1.7-1.5-3.4-0.4-5.2c1.1-1.8,2.7-2.5,4.8-2.2c5.1,0.6,9.7-0.6,14-3.3c4.7-3,9.8-4,15.2-1.6c4.2,1.9,7,5.1,8.3,9.5
		c0.2,0.5,0.5,1.2,0.9,1.4c2.4,1.2,5.1,2,7.4,3.3c2.3,1.4,4.3,3.2,6.6,5c0-0.4,0.1-0.9,0.1-1.3c0-10.3,0-20.6,0-30.9
		c0-0.8-0.5-1.8-1.1-2.4c-4.4-4.3-9-8.4-13.3-12.9c-3.8-4-6.2-8.7-5.9-14.5c0.4-7.8,6.5-13.9,13.7-13.5c3.7,0.2,6.7,1.8,9.3,4.5
		c0.3-0.2,0.5-0.3,0.7-0.5c4-3.7,8.7-5.2,13.9-3.1c5.3,2.1,7.9,6.4,8.5,11.9c0.6,4.8-0.7,9.2-3.8,12.8c-3.5,4.1-7.5,7.8-11.3,11.7
		c-1.6,1.6-3.9,2.8-4.7,4.7c-0.8,1.8-0.2,4.3-0.2,6.5c0,3.2,0,6.4,0,9.9c1.4-1.2,2.5-2.3,3.6-3.2c2.9-2.4,6.2-4.1,9.8-5.2
		c0.6-0.2,1.2-0.8,1.4-1.3c3-9.4,12.3-13.6,21.3-9.4c0.8,0.4,1.6,0.8,2.4,1.3c4.2,2.8,8.7,3.9,13.7,3.3c2.1-0.3,4,0.4,5.1,2.3
		c1.1,1.9,0.6,3.7-0.6,5.4c-6.5,9.2-15.3,14.4-26.6,15c-7.1,0.3-11.9-3.2-15.2-10.7c-2.8,0.6-5.3,1.8-7.5,3.6
		c-4.7,3.9-7.3,8.8-7.4,15c-0.1,5.1,0,10.3,0,14.9c4.6,1.4,8.9,2.6,13.1,4.2c3.9,1.5,7.2,4.2,10.3,7.1c0.5,0.5,1.2,0.8,1.9,0.9
		c10.7,0.9,19.3,5.6,25.8,14.2c0.8,1.1,1.5,1.3,2.6,0.8c1.2-0.5,2.4-0.9,3.7-1.3c5.9-2,11.6,0.2,14,5.5c2.4,5.2,0.5,10.9-4.8,14.1
		c-14.8,9-29.5,18-44.3,27c-2.8,1.7-5.5,3.3-8.3,5c-4.5,2.9-9.3,4.1-14.6,4.1c-23-0.1-46.1,0-69.1,0c-1.3,0-2.3,0.2-3.4,1.1
		c-1,0.8-2.4,1.2-3.6,1.8c-5.9,0-11.8,0-17.7,0c-3.7-1.1-6.1-3.4-7.1-7.1C15.9,156.7,15.9,135.4,15.9,114z M47.9,176.5
		c0.9,0,1.6,0,2.3,0c22.2,0,44.4,0,66.5,0c4.3,0,8.2-1.1,11.9-3.3c13.2-8.1,26.4-16.1,39.7-24.2c4.4-2.7,8.8-5.3,13.2-8
		c1.9-1.2,2.8-2.9,2.4-5.2c-0.4-2.1-1.7-3.7-3.8-4c-1.2-0.2-2.5,0-3.6,0.4c-16.9,5.6-33.9,11.2-50.8,16.9c-2.9,1-5.8,1.4-8.8,1.4
		c-7.6-0.1-15.2,0-22.7,0c-4.3,0-8.3,0.9-12,2.9c-1.3,0.7-2.5,1.6-3.7,2.4c-1.5,0.9-3.1,0.5-4-0.9c-0.8-1.3-0.5-2.9,0.8-3.9
		c4.9-3.6,10.3-6,16.4-6.2c5.6-0.2,11.2-0.1,16.8-0.1c3,0,3.9-0.7,4-3.8c0-1.6-0.3-3.3-1.1-4.7c-2.1-3.9-5.5-5.9-10-6
		c-4.9-0.1-9.8,0-14.8,0c-1.9,0-3.7-0.2-5.6-0.5c-5-0.8-9.5-2.9-13.4-6.1c-5.8-4.6-12.5-5.6-19.7-4.8
		C47.9,138,47.9,157.2,47.9,176.5z M117.6,145c1.9-0.4,3.5-0.5,5.1-1c12.9-4.2,25.7-8.5,38.6-12.8c0.7-0.2,1.5-0.5,2.4-0.8
		c-4.5-5.7-10-9.3-17-10.9c0.7,1.4,1.4,2.7,2,4c0.6,1.4,0,2.9-1.3,3.6c-1.3,0.7-2.9,0.3-3.7-1c-0.4-0.6-0.7-1.3-1-1.9
		c-8-15.4-27.4-21.5-42.7-13.4c-0.4,0.2-0.8,0.5-1.3,0.8c1,0.4,1.8,0.6,2.6,1c0.8,0.3,1.6,0.7,2.3,1c1.9,0.9,2.6,2.5,1.9,4.1
		c-0.7,1.6-2.4,2.1-4.4,1.2c-5.2-2.5-10.7-3.5-16.5-2.7c-4.2,0.6-8.1,1.9-11.8,4.3c3.2,2.1,6.5,3.6,10,3.8
		c5.8,0.3,11.5,0.2,17.3,0.3c1.6,0,3.2,0.1,4.7,0.4c8.1,1.7,14,9.2,13.2,17C118,142.8,117.8,143.6,117.6,145z M21.7,146.2
		c0,9.9,0,19.8,0,29.7c0,2.6,1,3.6,3.6,3.6c4.4,0,8.7,0,13.1,0c2.6,0,3.6-1,3.7-3.6c0-19.8,0-39.7,0-59.5c0-2.5-1-3.5-3.5-3.5
		c-4.3,0-8.6,0-12.9,0c-3,0-3.9,0.9-3.9,4C21.7,126.6,21.7,136.4,21.7,146.2z M114.1,48.1c0.2-0.1,0.3-0.2,0.5-0.3
		c0.1-0.1,0.2-0.1,0.3-0.2c2.6-2.4,5.3-4.6,7.7-7.1c2.4-2.4,4.7-4.9,6.8-7.5c1.9-2.4,2.7-5.3,2.3-8.4c-0.4-3.6-2.6-6.4-5.6-7.2
		c-2.8-0.7-6.4,0.8-8.3,3.6c-2.8,4-3.9,4-6.8,0c-1.9-2.7-4.6-4.2-7.9-3.7c-3.4,0.5-5.1,3.1-5.8,6.3c-0.9,3.9,0.2,7.4,2.8,10.2
		C104.6,38.8,109.4,43.4,114.1,48.1z M61,79.1C61,78.9,61,79,61,79.1c5.5,6.6,12.6,10.3,21.2,10.5c4.5,0.1,8.4-3.4,9-7.7
		c0.6-3.9-2.2-8-6.2-9.2c-3.2-1-6,0-8.7,1.5c-1.9,1.1-3.8,2.3-5.9,3C67.3,78,64.2,78.4,61,79.1z M168.3,61.3
		c-6.3,0.3-11.5-1.6-16.3-4.8c-1-0.7-2.3-1-3.5-1.3c-4.7-1.1-9.4,1.7-10.6,6.2c-1.2,4.4,1.6,9.3,6.3,10.4c2,0.5,4.3,0.4,6.3,0
		C157.6,70.6,163.4,67.1,168.3,61.3z"/>
</g>
</svg>
