<?xml version="1.0" encoding="utf-8"?>
<!-- Generator: Adobe Illustrator 23.1.0, SVG Export Plug-In . SVG Version: 6.00 Build 0)  -->
<svg version="1.1" id="Layer_1" xmlns="http://www.w3.org/2000/svg" xmlns:xlink="http://www.w3.org/1999/xlink" x="0px" y="0px"
	 viewBox="0 0 200 200" style="enable-background:new 0 0 200 200;" xml:space="preserve">
<style type="text/css">
	.st0{fill:#00936C;}
</style>
<g>
	<path class="st0" d="M153.8,184.5c-5.6-1.5-11.1-3.1-16.7-4.6c-0.4-0.1-0.8-0.2-1.1-0.3c-2.5-0.9-4.6-1.1-7.2,0.7
		c-1.8,1.2-4.5,1.5-6.8,1.5c-18.5,0.1-37.1,0.1-55.6,0.1c-10.1,0-20.2,0-30.3,0c-8.2,0-13.4-5.2-13.4-13.4c0-4,0-8.1,0-12.1
		c0-2,0.9-3.1,2.4-3.1c1.6,0,2.5,1.1,2.5,3.1c0,4.2,0,8.4,0,12.6c0,4.7,3.2,7.9,7.9,7.9c29,0,58,0,87,0c0.5,0,1-0.1,1.6-0.4
		c-2.7-0.7-5.3-1.5-8-2.2c-9.2-2.5-18.4-4.9-27.6-7.4c-0.5-0.1-1.2-0.3-1.5-0.6c-1.5-1.5-3.3-1.2-5.1-1.2c-13.5,0-27-0.1-40.5,0.1
		c-5.7,0.1-8.8-3.8-8.8-8.8c0.1-41.3,0-82.5,0.1-123.8c0-1.1,0.1-2.2,0.2-3.3c-2.7,0.5-5,3.3-5.2,6.4c0,0.7,0,1.3,0,2
		c0,34.9,0,69.8,0,104.7c0,0.6,0.1,1.2,0,1.8c-0.2,1.4-1,2.2-2.4,2.2c-1.4,0-2.2-0.8-2.5-2.2c-0.1-0.5,0-1,0-1.5
		c0-35.2,0-70.4,0-105.6c0-8.3,5.2-13.5,13.5-13.5c4.4,0,8.7,0,13.1,0c0.6,0,1.2,0,2,0c0-1.9,0-3.7,0-5.4c0-2.4,0.9-3.2,3.2-3.2
		c16.4,0,32.9,0,49.3,0c2.2,0,3.1,0.8,3.1,3.1c0,1.8,0,3.6,0,5.5c5.4,0,10.7,0,15.9,0c5.9,0.1,10.7,3.6,12.2,9.1
		c0.4,1.3,0.5,2.7,0.5,4.1c0.1,5.2,0.1,10.4,0,15.6c0,1.3,0.3,1.9,1.7,2.3c11.7,3.1,23.4,6.2,35.1,9.4c5,1.3,6.5,4,5.2,9
		c-0.4,1.3-0.7,2.6-1.1,4.1c1.6,0.4,3.1,0.8,4.6,1.2c4.2,1.2,5.9,4,4.8,8.3c-4.3,16.2-8.7,32.3-13,48.5
		c-3.9,14.4-7.8,28.8-11.5,43.2c-0.7,2.9-2,5.1-4.8,6.2C155.6,184.5,154.7,184.5,153.8,184.5z M58.1,28.6c-5.7,0-11,0-16.4,0
		c-3.3,0-4,0.7-4,3.9c0,14.5,0,29,0,43.5c0,26.8,0,53.6,0,80.4c0,2.8,0.8,3.6,3.5,3.6c3.8,0,7.6,0,11.4,0c9.9,0,19.9,0,29.8,0
		c0.6,0,1.5-0.3,1.7-0.8c0.6-1.6,0.9-3.4,1.4-5.2c-1.6-0.4-3-0.8-4.4-1.2c-4.6-1.3-6.1-4-4.9-8.6c1.4-5.1,2.7-10.2,4.1-15.4
		c-0.8,0-1.4,0-2,0c-9.6,0-19.2,0-28.8,0c-0.6,0-1.1,0-1.7,0c-1.3-0.2-2.1-1-2.2-2.3c-0.1-1.3,0.7-2.2,1.9-2.5
		c0.5-0.1,1.1-0.1,1.6-0.1c10.2,0,20.3,0,30.5,0c0.6,0,1.2,0,1.9,0c1-3.8,2-7.5,3-11.4c-0.9,0-1.5,0-2.2,0c-11,0-22.1,0-33.1,0
		c-2.5,0-3.7-0.8-3.7-2.5c0-1.7,1.2-2.5,3.7-2.5c10.9,0,21.7,0,32.6,0c4,0,4,0,5-3.8c0.7-2.5,1.3-5,2-7.6c-0.9,0-1.6,0-2.2,0
		c-12.5,0-24.9,0-37.4,0c-0.5,0-1,0-1.5,0c-1.3-0.1-2.1-0.9-2.2-2.2c-0.1-1.4,0.6-2.3,2-2.6c0.6-0.1,1.2-0.1,1.8-0.1
		c13,0,25.9,0,38.9,0c0.7,0,1.3,0,2,0c2.5-9.3,5-18.5,7.4-27.8c-0.8,0-1.4,0-2,0c-15.6,0-31.2,0-46.8,0c-2.6,0-3.4-0.8-3.4-3.3
		c0-2.6,0-5.2,0-7.8c0-3.1,0.7-3.8,3.8-3.8c17.2,0,34.4,0,51.6,0c0.8,0,1.7-0.3,2.4-0.7c1.6-0.9,3.3-1.2,5.1-0.8
		c3.3,0.9,6.6,1.8,9.9,2.6c4,1.1,7.9,2.1,12.1,3.2c0-5.9,0.1-11.6,0-17.2c-0.1-3.2-2.9-6.2-5-6.4c0,3.8,0,7.7,0,11.5
		c0,1.9-1.1,3.1-2.6,3c-1.4-0.1-2.3-1.2-2.4-3c0-3,0-6.1,0-9.1c0-2.1-1-3-3.1-3c-5.4,0-10.8,0-16.2,0c-0.3,0-0.6,0.1-1,0.2
		c0,0.8,0,1.5,0,2.2c-0.2,5.8-4.6,10.4-10.4,10.5c-7.1,0.1-14.2,0.1-21.3,0c-5.7-0.1-10.1-4.6-10.4-10.2
		C58.1,30.4,58.1,29.6,58.1,28.6z M173.2,70c-0.5-0.3-1-0.9-1.7-1c-21.1-5.7-42.1-11.3-63.2-17c-1.5-0.4-2.2-0.2-2.6,1.4
		c-8.2,30.7-16.5,61.5-24.7,92.2c-0.4,1.6,0,2.1,1.5,2.5c21,5.6,41.9,11.2,62.9,16.8c2.2,0.6,2.2,0.5,2.8-1.7
		c7.5-27.9,14.9-55.7,22.4-83.6C171.4,76.6,172.2,73.5,173.2,70z M90.4,155.4c-0.4,1.5-0.8,2.8-1.1,4.1c-0.6,2.2-0.6,2.2,1.6,2.8
		c20.7,5.6,41.5,11.1,62.2,16.7c2.6,0.7,2.6,0.7,3.3-1.9c6-22.4,12-44.9,18-67.3c2.2-8.1,4.4-16.3,6.5-24.4c0.2-0.8,0.5-1.7-0.6-2
		c-1.7-0.5-3.5-0.9-5.2-1.4c-0.2,0.6-0.4,1.1-0.5,1.6c-7.3,27.1-14.5,54.2-21.8,81.4c-1.3,4.7-4,6.3-8.7,5
		c-13.3-3.6-26.7-7.2-40-10.8C99.6,157.9,95.1,156.7,90.4,155.4z M50.8,58.4c0.8,0,1.5,0,2.1,0c14.8,0,29.5,0,44.3,0
		c0.4,0,0.9,0.1,1.3,0c0.4-0.1,0.8-0.4,0.9-0.7c0.4-1.3,0.7-2.7,1.1-4.2c-16.7,0-33.2,0-49.8,0C50.8,55.1,50.8,56.7,50.8,58.4z
		 M95.1,28.7c-10.6,0-21.3,0-31.9,0c-0.6,5.2,1.7,7.8,6.7,7.8c6.3,0,12.6,0,18.9,0C93.5,36.5,95.9,33.6,95.1,28.7z M101.9,23.6
		c0-1.3,0-2.4,0-3.5c-15.2,0-30.3,0-45.5,0c0,1.2,0,2.3,0,3.5C71.6,23.6,86.7,23.6,101.9,23.6z"/>
	<path class="st0" d="M55.1,74.8c2.2,0,4.4,0,6.6,0c1.7,0,2.7,0.9,2.7,2.4c0,1.5-1,2.5-2.7,2.5c-4.5,0.1-8.9,0.1-13.4,0
		c-1.7,0-2.7-1.1-2.7-2.6c0-1.4,1.1-2.4,2.8-2.4C50.7,74.8,52.9,74.8,55.1,74.8z"/>
	<path class="st0" d="M55.2,140.3c2.1,0,4.3,0,6.4,0c1.9,0,2.9,0.9,2.9,2.5c0,1.5-1,2.4-2.9,2.5c-4.3,0-8.6,0-12.9,0
		c-1.9,0-3-1.1-3-2.6c0.1-1.5,1.1-2.3,3-2.4C50.9,140.3,53,140.3,55.2,140.3z"/>
	<path class="st0" d="M143.9,119.3c-4.7,2.7-9.3,5.4-13.9,8c-2.3,1.3-4.6,2.7-6.9,4c-1.9,1.1-3.1,0.8-4.3-1.2
		c-2.5-4.2-4.9-8.5-7.4-12.7c-1-1.8-0.8-3.2,0.6-4c1.3-0.7,2.7-0.2,3.6,1.5c2.1,3.7,4.2,7.3,6.5,11.1c2.3-1.3,4.6-2.6,6.8-3.9
		c4.8-2.8,9.5-5.5,14.3-8.3c2.5-1.4,3.8-1,4.8,1.8c5.5,14.6-4.4,32-19.8,35c-14.8,2.9-28.7-6.2-31.9-20.7
		c-2.4-10.9,2.7-22.6,12.1-28.4c9.6-5.9,22.3-5.1,31,2c0.7,0.5,1.4,1.5,1.4,2.2c0,0.7-0.6,1.9-1.2,2.2c-0.7,0.3-1.9,0.1-2.7-0.3
		c-1.8-0.9-3.4-2.4-5.2-3.2c-8.6-3.6-16.8-2.7-23.7,3.7c-6.9,6.3-9,14.4-6,23.2c2.9,8.8,9.5,13.7,18.6,14.6
		c14.5,1.5,26.2-11.4,23.5-25.8C144.1,120.1,144,119.8,143.9,119.3z"/>
	<path class="st0" d="M155.6,97.7c-0.5-0.1-1-0.2-1.5-0.3c-15.1-4-30.2-8.1-45.3-12.2c-2.5-0.7-3-1.6-2.4-4.1
		c1.5-5.8,3.1-11.6,4.7-17.4c0.6-2.3,1.7-2.9,3.9-2.3c15.2,4.1,30.4,8.1,45.6,12.2c2.4,0.7,3,1.7,2.4,4.1
		c-1.5,5.7-3.1,11.5-4.6,17.2C158,96.5,157.4,97.6,155.6,97.7z M111.7,80.8c14.2,3.8,28.2,7.5,42.3,11.3c1.3-4.7,2.5-9.4,3.8-14.1
		c-14.2-3.8-28.2-7.6-42.3-11.3C114.2,71.5,112.9,76,111.7,80.8z"/>
</g>
</svg>
