<?xml version="1.0" encoding="utf-8"?>
<!-- Generator: Adobe Illustrator 23.1.0, SVG Export Plug-In . SVG Version: 6.00 Build 0)  -->
<svg version="1.1" id="Layer_1" xmlns="http://www.w3.org/2000/svg" xmlns:xlink="http://www.w3.org/1999/xlink" x="0px" y="0px"
	 viewBox="0 0 200 200" style="enable-background:new 0 0 200 200;" xml:space="preserve">
<style type="text/css">
	.st0{fill:#00936C;}
</style>
<g>
	<path class="st0" d="M11.8,138.9c0.9-1.3,2.1-1.7,3.6-1.7c1.6,0.1,3.3,0.1,4.9,0c0.5,0,1.2-0.4,1.4-0.8c6.5-12,13-24.1,19.5-36.1
		c-5.4-5.6-4-14.7,4.4-17.7c0-13.6,0-27.2,0-40.8c-2.1,0-4.1,0-6.1,0c-0.6,3.1-1.1,3.8-2.8,3.8c-1.7,0-2.3-0.9-2.7-3.9
		c-0.7,0-1.4,0-2.1,0c-3.5,0-7,0-10.5,0c-3.8-0.1-6.4-2.9-6.4-6.7c0-4,2.6-6.8,6.4-6.9c3.6-0.1,7.1,0,10.7,0c0.6,0,1.2,0,1.9,0
		c0.4-2.1-0.6-5,2.8-5c3.2,0,2.2,2.9,2.6,4.9c2,0,4,0,6.1,0c0.4-1.9-0.6-5.1,2.9-4.9c3,0.2,2.1,2.9,2.4,4.9c5.7,0,11.4,0,17.2,0
		c-0.2-3.8,0.6-7.2,3.9-9.5c3.3-2.3,6.8-2.2,10.4-0.2c1.5-2.2,3.4-3.8,6.1-4.4c2.7-0.5,5.1,0.1,7.2,1.5c5.9-5.2,9.6-5.2,15.4,0
		c2-1.2,4.2-2,6.7-1.6c4.5,0.7,7.7,4.3,7.8,8.9c0,1.7,0,3.5,0,5.4c3.6,0,7,0,10.5,0c3.4,0,6.9,0,10.5,0c0.4-2-0.7-5.1,2.8-5
		c3.2,0.1,2.2,2.9,2.5,4.9c2,0,4,0,6.1,0c0.4-1.9-0.7-5,2.8-4.9c3.2,0.1,2.2,3,2.6,5c4,0,8,0.1,12,0c5.9-0.2,7.9,5.3,6.8,9
		c-0.9,2.9-3.1,4.7-6.1,4.7c-3.6,0.1-7.1,0-10.7,0c-0.6,0-1.2,0-1.8,0c-0.5,3.1-1.1,3.9-2.8,3.9c-1.7,0-2.3-0.8-2.7-3.7
		c-2,0-4,0-6.1,0c0,13.6,0,27.1,0,40.9c3.6,1.2,6.3,3.6,7.2,7.5c0.9,3.8-0.1,7.2-2.9,10c0.2,0.4,0.4,0.7,0.5,1
		c6.2,11.6,12.5,23.1,18.7,34.7c0.6,1.1,1.2,1.4,2.4,1.4c1.6-0.1,3.3,0,4.9,0c2.2,0,3.1,1,3,3.2c-0.1,8.7-7.4,16.2-16.4,16.4
		c-13.5,0.2-27,0.1-40.5,0c-1.2,0-2.4-0.3-3.8-0.5c0,8,0,15.9,0,24c0.7,0,1.4,0,2,0c18,0,35.9,0,53.9,0c0.4,0,0.8,0,1.2,0
		c1.5-0.1,2.8,0.2,3.3,1.7c0.6,1.6-0.4,2.5-1.5,3.4c-57.5,0-114.9,0-172.4,0c0-1.1,0-2.3,0-3.4c0.8-1.4,2-1.7,3.6-1.7
		c18.3,0,36.6,0,54.9,0c0.7,0,1.3,0,2.1,0c0-8.1,0-16,0-24c-1.5,0.2-2.8,0.5-4.1,0.5c-13.2,0-26.4,0.2-39.6,0
		c-7.1-0.1-12.3-3.7-15.4-10.2c-0.7-1.5-1-3.1-1.5-4.7C11.8,140.9,11.8,139.9,11.8,138.9z M115.2,97.7c0.1-0.8,0.1-1.4,0.1-2
		c0.3-6.1,2.5-11.3,6.9-15.6c1.5-1.5,3-3.1,4.4-4.7c3.9-4.4,7.3-9.3,8-15.3c0.5-4.5,0.4-9.2,0.4-13.7c0-3.3-1.5-4.8-4.8-4.8
		c-6.3,0-12.7,0-19,0c-0.8,0-1.5,0-2.3,0c0,4.4,3.5,7.7,8.1,7.9c2.1,0.1,4.2,0,6.3,0c2.1,0,3,0.9,3,3c0,1.3,0,2.6,0,3.9
		c0,2.3-0.7,3.1-3,3.2c-3.3,0.2-6.4,1.1-9.1,2.9c-4.8,3.3-7.4,8-7.7,13.9c-0.1,2-1.2,3.1-2.9,2.9c-1.4-0.2-2.2-1.3-2.2-3.1
		c0.2-9.4,6.9-18.1,16-20.7c0.7-0.2,1.5-0.4,2.2-0.7c-3.3-0.1-6.5-0.3-9.4-2.1c-1-0.7-1.8-0.9-3-0.2c-1.1,0.6-2.6,0.9-3.9,0.9
		c-3.1,0.2-5.5-1.4-7.5-3.6c-5.4,3.2-8.9,2.5-13.8-2.7c-2.8,1.8-5.8,1.8-9,0.7c0,1.9,0,3.6,0,5.3c0,1.8-1,3-2.6,2.9
		c-1.5,0-2.5-1.2-2.5-3c0-0.8,0-1.6,0-2.4c0-3,0-6,0-8.9c-5.9,0-11.6,0-17.3,0c0,13.4,0,26.6,0,39.9c0,0.5,0.6,1.1,1.1,1.3
		c6.8,2.9,8.7,10.5,4,16.3c-0.6,0.7-0.6,1.1-0.2,1.9c5.3,9.7,10.5,19.4,15.7,29.1c0.2,0.3,0.4,0.5,0.9,1.2c0-1.1,0-1.7,0-2.3
		c0-9,0-18,0-27c0-3.9,0.3-4.3,4.2-4.5c0.1,0,0.2-0.1,0.4-0.3c-0.1-0.9-0.1-1.9-0.2-2.9c-0.5-3.9-2.3-7.2-4.3-10.4
		c-2.9-4.7-4.3-9.8-4.3-15.3c0-1.7,1-2.8,2.5-2.8c1.5,0,2.5,1,2.5,2.6c0.1,5.4,1.8,10.2,4.7,14.7c2.3,3.5,3.6,7.3,4,11.4
		c0.1,1,0.1,2,0.2,3C93.3,97.7,104.1,97.7,115.2,97.7z M119.9,180.3c0.1-0.4,0.1-0.6,0.1-0.8c0-8.2,0-16.4,0-24.6
		c0-0.6-0.5-1.3-1-1.8c-3.9-3.4-6.1-7.5-6.3-12.7c-0.1-2.2,0.9-3.1,3.1-3.1c1.3,0,2.7,0,4.1,0c0-5.9,0-11.6,0-17.3
		c-14.2,0-28.2,0-42.3,0c0,5.8,0,11.4,0,17.3c1.3,0,2.5,0,3.8,0c2.7,0,3.6,0.9,3.4,3.6c-0.3,4.9-2.4,8.9-6.2,12
		c-0.8,0.7-1.1,1.4-1.1,2.4c0,7.8,0,15.5,0,23.3c0,0.5,0.1,1.1,0.1,1.7C91.8,180.3,105.8,180.3,119.9,180.3z M170.4,137.2
		c-0.4-0.8-0.6-1.3-0.9-1.8c-5.4-10-10.9-20-16.2-30.1c-1-1.9-1.9-3.2-4.2-2.6c-0.3,0.1-0.7,0.1-1,0c-1-0.4-1.5,0.1-2,1
		c-5.8,10.7-11.5,21.4-17.3,32.1c-0.2,0.4-0.3,0.8-0.6,1.4c8,0,15.7,0,23.4,0c0,1.8,0,3.3,0,5c-11.2,0-22.3,0-33.4,0
		c0.6,5.1,5.7,9.3,11.3,9.3c13.1,0.1,26.3,0.1,39.4,0c5.2-0.1,8.9-2.8,10.9-7.6c0.2-0.5,0.3-1.1,0.5-1.8c-5,0-9.7,0-14.4,0
		c-2.1,0-3.3-1-3.3-2.6c0-1.6,1.3-2.5,3.4-2.5C167.5,137.2,168.8,137.2,170.4,137.2z M120.4,97.6c4.8,0.5,4.8,0.5,4.8,5.2
		c0,8.9,0,17.8,0,26.7c0,0.6,0,1.1,0,1.7c0.1,0,0.3,0,0.4,0c5.6-10.4,11.2-20.7,16.8-31.1c-5.6-5.8-3.7-14.9,4.3-17.6
		c0-13.6,0-27.2,0-40.9c-2.4,0-4.7,0-7,0c0.2,1.5,0.5,2.9,0.6,4.4c0.1,3.2,0,6.5,0,9.7c0,5.9-1.4,11.5-4.9,16.3
		c-3,4.3-6.6,8.2-10.1,12.1C121.9,88.1,120.3,92.4,120.4,97.6z M69.5,137.1C63.2,125.5,57,114,50.9,102.8c-1.9,0-3.4,0-5.1,0
		c-6.1,11.4-12.3,22.8-18.6,34.4C41.4,137.1,55.3,137.1,69.5,137.1z M79.4,142.4c-20.7,0-41.4,0-62,0c0.9,5.1,5.6,9.2,11.2,9.3
		c13.2,0.1,26.5,0.1,39.8,0C73.7,151.7,78.6,147.5,79.4,142.4z M119.9,103c-14.1,0-28.1,0-42.2,0c0,3.9,0,7.7,0,11.6
		c14.1,0,28.1,0,42.2,0C119.9,110.7,119.9,106.9,119.9,103z M105.1,48c-0.4-2.2-1-4.3-1.3-6.5c-0.2-2,0.8-3.6,2.6-4.6
		c0.4-0.2,1-0.9,1-1.3c0.1-5.1,0.1-10.2,0-15.3c0-2.4-1.8-4-4-3.9c-2.2,0.1-3.9,1.7-3.9,4.1c0,7.9,0,15.8,0,23.8
		C99.5,47.5,102.4,49.3,105.1,48z M94.4,32.8c0-3.2,0-6.3,0-9.5c0-2.7-1.6-4.6-3.9-4.6c-2.3,0-4,1.7-4,4.5c0,6.3,0,12.7,0,19
		c0,2.8,1.6,4.5,4,4.5c2.3,0,4-1.9,4-4.6C94.4,39,94.4,35.9,94.4,32.8z M81.3,32.6c0-2.2,0-4.3,0-6.5c-0.1-2.7-1.7-4.5-4.1-4.4
		c-2.3,0.1-3.9,1.8-3.9,4.4c0,4.2,0,8.5,0,12.7c0,2.7,1.6,4.6,3.9,4.6c2.4,0.1,4-1.8,4.1-4.6C81.3,36.8,81.3,34.7,81.3,32.6z
		 M120.6,36.4c0-4.4,0-8.8,0-13.1c0-2.9-1.6-4.7-4-4.7c-2.4,0-4,1.8-4,4.7c0,4,0,7.9,0,11.9c0,0.4,0.1,0.9,0.1,1.3
		C115.4,36.4,117.9,36.4,120.6,36.4z M48.4,87.5c-2.8,0-5.2,2.3-5.2,5.2c0,2.8,2.3,5.1,5.1,5.1c2.8,0,5.2-2.4,5.2-5.2
		C53.5,89.8,51.2,87.5,48.4,87.5z M149.3,87.5c-2.8,0-5.2,2.3-5.2,5.1c0,2.7,2.4,5.1,5.1,5.1c2.8,0,5.2-2.3,5.2-5.1
		C154.4,89.8,152.1,87.5,149.3,87.5z M146.7,33.2c-7.1,0-14,0-20.9,0c0,1.2,0,2.2,0,3.2c7,0,13.9,0,20.9,0
		C146.7,35.4,146.7,34.4,146.7,33.2z M51,36.4c5.8,0,11.5,0,17.1,0c0-1.2,0-2.2,0-3.2c-5.8,0-11.4,0-17.1,0C51,34.3,51,35.3,51,36.4
		z M34.2,36.5c0-1.3,0-2.3,0-3.4c-4.2,0-8.3,0-12.3,0c-1.1,0-1.7,0.6-1.7,1.7c0,1.1,0.5,1.8,1.6,1.8C25.9,36.6,30,36.5,34.2,36.5z
		 M163.4,33.1c0,1.3,0,2.3,0,3.4c4.2,0,8.2,0,12.3,0c1.2,0,1.8-0.6,1.8-1.8c0-1.1-0.7-1.6-1.7-1.6C171.7,33.1,167.6,33.1,163.4,33.1
		z M39.5,36.4c2.2,0,4.2,0,6.1,0c0-1.2,0-2.2,0-3.2c-2.1,0-4.1,0-6.1,0C39.5,34.3,39.5,35.3,39.5,36.4z M158.1,33.2
		c-2.2,0-4.1,0-6.2,0c0,1.2,0,2.2,0,3.2c2.1,0,4.1,0,6.2,0C158.1,35.3,158.1,34.3,158.1,33.2z"/>
</g>
</svg>
