<?xml version="1.0" encoding="utf-8"?>
<!-- Generator: Adobe Illustrator 23.1.0, SVG Export Plug-In . SVG Version: 6.00 Build 0)  -->
<svg version="1.1" id="Layer_1" xmlns="http://www.w3.org/2000/svg" xmlns:xlink="http://www.w3.org/1999/xlink" x="0px" y="0px"
	 viewBox="0 0 200 200" style="enable-background:new 0 0 200 200;" xml:space="preserve">
<style type="text/css">
	.st0{fill:#00936C;}
</style>
<g>
	<path class="st0" d="M194.2,20.8c-1,1.3-2.3,1.6-3.9,1.5c-5.6-0.1-11.3,0-16.9,0c-0.7,0-1.3,0-2.2,0c0,2.7,0,5.1,0,7.6
		c0,0.8,0,1.6,0,2.4c-0.1,2.5-0.2,4.6,2.7,6c2.4,1.1,3.4,3.8,3.4,6.6c0,7.9,0.1,15.8,0,23.7c0,4.6-3.3,8.2-7.9,8.6
		c-3.8,0.3-7.6,0.4-11.4,0.6c-4.7,0.2-7.5,3.2-7.5,7.9c0,5,0,9.9,0,14.9c0,1.1,0.3,1.8,1.3,2.3c6.3,3.6,12.5,7.2,18.8,10.8
		c1.7,0.9,2.3,2.1,2.3,4c-0.1,6.3,0,12.6,0,18.9c0,0.5,0,1-0.1,1.5c-0.2,1.4-1.1,2.2-2.5,2.2c-1.5,0-2.4-0.9-2.5-2.4
		c-0.1-1.5,0-3.1,0-4.6c0-4.5-0.1-8.9,0-13.4c0-1.5-0.5-2.2-1.7-2.8c-6.2-3.5-12.3-7.1-18.5-10.6c-1.6-0.9-2.3-2.1-2.3-4
		c0.1-5.6,0-11.3,0-16.9c0-7.3,5.2-12.6,12.6-12.8c3.3-0.1,6.6-0.2,9.9-0.4c3.2-0.1,4.4-1.4,4.4-4.6c0-7.3,0-14.6,0-21.9
		c0-2.8-1.3-4.3-3.6-4.4c-2.4,0-3.8,1.5-3.8,4.4c0,4.7,0,9.3,0,14c0,3.6-1.9,5.5-5.6,5.5c-11.8,0-23.5,0.1-35.3,0
		c-3.8,0-6.8,1.2-9.3,3.9c-2.7,2.9-5.3,5.9-7.8,9c-2.1,2.6-4.6,4.5-7.9,5.5c-2.6,0.8-5.1,1.8-7.3,2.5c0.8,2.3,1.5,4.6,2.3,7
		c4.4-1.4,9.2-2.9,13.9-4.5c1-0.3,1.8-1.3,2.5-2.1c2.1-2.2,4-4.6,6.2-6.8c0.7-0.7,2-1.2,3-1.1c1.3,0.2,1.8,1.5,1.8,2.8
		c0,21.8,0,43.6,0,65.4c0,1.9-1.1,3.1-2.6,3.1c-1.5-0.1-2.5-1.2-2.5-3.3c0-18.9,0-37.7,0-56.6c0-0.6,0-1.3,0-2c-0.3,0-0.4,0-0.5,0.1
		c-3.1,4.5-8,5.9-12.9,7.5c-9.3,2.9-18.6,6.2-27.9,9.1c-2.2,0.7-4.6,1-7,1.2c-1.7,0.2-3.4,0-5.1,0c-4.3,0.1-7.3,3-7.4,7.3
		c-0.1,3.9-0.1,7.7,0,11.6c0,0.7,0.7,1.6,1.4,2c6.1,3.6,12.1,7.1,18.3,10.6c1.5,0.9,2.2,1.9,2.2,3.7c-0.1,5.2,0,10.4,0,15.6
		c0,2.2-0.9,3.3-2.6,3.3c-1.7,0-2.5-1.1-2.5-3.3c0-4.4-0.1-8.8,0-13.2c0-1.3-0.4-2.1-1.5-2.7c-6.1-3.4-12.1-7-18.1-10.4
		c-1.5-0.9-2.2-1.9-2.2-3.7c0.1-4.4,0-8.8,0-13.2c0.1-6.8,4.7-11.8,11.5-12.4c0.4,0,0.7-0.1,1.1-0.1c8.5,1.1,15.7-3.1,23.3-5.6
		c1.8-0.6,2.6-2.6,1.9-4.4c-0.6-1.8-2.5-2.7-4.5-2c-4,1.3-8,2.8-12,4c-1.9,0.6-3.9,1-5.9,1c-12.1,0.1-24.1,0-36.2,0.1
		c-2.8,0-5.6,0.6-8.3,1.4c-3.4,1.1-4.6,3.3-4.7,6.9c0,9.6,0,19.2,0,28.9c0,3.8,2,6.5,5.4,7.3c0-0.7,0-1.3,0-2c0-9.9,0-19.7,0-29.6
		c0-0.6,0-1.2,0-1.8c0.1-1.4,1-2.3,2.4-2.3c1.5-0.1,2.4,0.8,2.6,2.3c0.1,0.5,0.1,1.1,0.1,1.7c0,19.5,0,39,0,58.5
		c0,2.8-0.8,4.1-2.6,4c-1.7-0.1-2.4-1.3-2.4-4c0-6.5,0-13,0-19.5c0-1.1-0.3-1.7-1.4-2.1c-5.8-1.9-9-6.4-9.1-12.4c0-9.7,0-19.4,0-29
		c0-5.4,2.4-9.3,7.3-11.2c3-1.1,6.3-1.4,9.4-2.1c0.6-0.1,1.2,0,2.1,0c-0.6-0.7-0.9-1.2-1.3-1.7c-3.7-5-4.9-10.5-3.5-16.5
		c1.2-5.2,4.6-8.3,9.9-9.4c7.7-1.6,14.6,2.2,16.2,9.2c1.4,6,0.3,11.7-3.5,16.7c-0.3,0.4-0.7,0.8-1.2,1.5c0.8,0.1,1.3,0.1,1.9,0.1
		c5.6,0,11.2,0.3,16.7-0.1c3.6-0.3,7.2-1.6,10.8-2.8c7.3-2.4,14.6-5,21.8-7.7c1.5-0.5,2.9-1.6,4-2.8c3-3.2,5.8-6.7,8.7-9.9
		c3.5-3.8,7.8-5.8,13.1-5.5c1.6,0.1,3.2,0,5.1,0c-0.5-0.6-0.8-0.9-1.1-1.3c-4.9-5.5-6.3-11.8-4.4-18.8c1.4-5.3,5.8-8.6,11.3-9
		c11.2-0.9,16.9,6.7,15.4,17.4c-0.6,4.3-2.5,8-5.8,11.3c5.2,0,10.1,0,15.2,0c0-0.7,0-1.3,0-2c0-4.2,0-8.3,0-12.5
		c0-3.9,1.7-6.7,5.3-8.3c1.2-0.5,1.1-1.2,1.1-2.2c0-8.9,0-17.8,0-26.7c0-1.5,0.3-2.8,1.6-3.6c8.8,0,17.6,0,26.5,0c0,1.1,0,2.2,0,3.3
		c-0.9,1.6-1.7,3.2-2.5,4.8c-0.2,0.4-0.2,1.1,0,1.5c0.8,1.6,1.7,3.2,2.6,4.8C194.2,19.5,194.2,20.1,194.2,20.8z M145.4,45.2
		c0-0.4,0-1.2-0.1-2c-0.5-4.2-3.3-6.8-7.6-7.1c-5.1-0.3-8.4,1.6-9.4,6c-1,4.4-0.3,8.7,2.5,12.4c3.3,4.3,8.4,4.2,11.7,0
		C144.5,51.9,145.3,48.8,145.4,45.2z M47.2,75.1c0-0.5,0-1.2-0.1-1.9c-0.5-3.9-2.9-6.4-6.8-6.8c-4.8-0.6-8.3,1-9.4,4.7
		c-1.5,4.9-0.8,9.5,2.5,13.4c3.1,3.7,7.7,3.6,10.7-0.1C46.3,81.7,47.1,78.7,47.2,75.1z M187.5,9.8c-5.7,0-10.9,0-16.2,0
		c0,2.5,0,4.8,0,7.2c5.4,0,10.6,0,16.2,0C185.5,14.6,185.4,12.3,187.5,9.8z"/>
	<path class="st0" d="M194.2,191.3c-1,0.9-1.9,2-3.5,1.3c-1.6-0.7-1.6-2.1-1.6-3.6c0-11.3,0-22.5,0-34c-13.5,0-27,0-40.7,0
		c0,0.7,0,1.4,0,2.1c0,10.5,0,21,0,31.4c0,0.6,0,1.2,0,1.8c-0.1,1.5-1,2.4-2.5,2.4c-1.5,0-2.4-0.9-2.4-2.4c-0.1-2.8,0-5.5,0-8.3
		c0-5.1,0-10.3,0-15.4c0-1-0.2-1.6-1.4-1.6c-12.8,0-25.6,0-38.4,0c-0.2,0-0.5,0.1-0.9,0.1c0,0.7,0,1.3,0,2c0,7.2,0,14.3,0,21.5
		c0,0.4,0,0.9,0,1.3c-0.1,1.7-1.1,2.8-2.6,2.8c-1.4,0-2.5-1.1-2.5-2.8c0-4.7,0-9.4,0-14.2c0-0.7,0-1.3,0-2.1c-13.6,0-27,0-40.7,0
		c0,2,0,4,0,5.9c0,3.3,0,6.6,0,9.9c0,2.1-0.9,3.2-2.4,3.2c-1.6,0-2.6-1.1-2.6-3.3c0-2,0-4,0-6.2c-13.6,0-27,0-40.7,0
		c0,2.1,0,4.2,0,6.2c0,2-1,3.2-2.5,3.2c-1.6,0-2.6-1.2-2.6-3.3c0-2.7,0-5.4,0-8.1c0-2.4,0.9-3.3,3.3-3.3c13.4,0,26.8,0,40.3,0
		c0.7,0,1.3,0,2.2,0c0-2,0-3.9,0-5.8c0-3.2,0.6-3.8,3.7-3.8c13.2,0,26.4,0,39.5,0c0.7,0,1.5,0,2.5,0c0-1.6,0-3.1,0-4.6
		c0-3.3,0.6-3.9,4-3.9c13.1,0,26.2,0,39.3,0c0.7,0,1.5,0,2.5,0c0-2.3,0-4.5,0-6.7c0-2.9,0.7-3.6,3.6-3.6c14.5,0,28.9,0,43.4,0
		c1.6,0,2.9,0.3,3.9,1.5C194.2,164.6,194.2,178,194.2,191.3z"/>
	<path class="st0" d="M136.2,115.1c0,3.7,0,7.3,0,10.8c0,6.7,0,13.5,0,20.2c0,0.7,0.2,1.5-0.2,2c-0.6,0.8-1.6,1.8-2.4,1.8
		c-0.8,0-1.7-1.1-2.4-1.8c-0.2-0.2-0.1-0.8-0.1-1.2c0-11.9,0-23.8,0-35.7c0-0.2,0-0.4,0-0.6c0.2-2.4,1.9-3.4,4-2.3
		c7.3,4,14.6,8.1,21.8,12.3c0.8,0.5,1.5,1.8,1.5,2.8c0.2,4.6,0.1,9.2,0.1,13.8c0,1.8-1.1,3-2.6,2.9c-1.4,0-2.5-1.1-2.5-2.9
		c0-3.9,0-7.7-0.1-11.6c0-0.6-0.4-1.5-0.9-1.8c-5.1-3-10.3-5.8-15.5-8.7C136.8,115.2,136.6,115.2,136.2,115.1z"/>
	<path class="st0" d="M41.6,138.9c0,8,0,15.6,0,23.2c0,1.5,0,3.1,0,4.6c0,1.5-0.9,2.4-2.4,2.5c-1.5,0.1-2.4-0.8-2.6-2.3
		c-0.1-0.5-0.1-1-0.1-1.5c0-9.9,0-19.7,0-29.6c0-3.6,1.7-4.7,4.9-2.9c6.6,3.7,13.2,7.4,19.9,11.1c1.6,0.9,2.3,2,2.2,3.8
		c-0.1,3.1,0,6.2,0,9.4c0,1.9-0.9,3-2.5,3c-1.6,0-2.5-1-2.5-2.9c0-2.6,0-5.1,0-7.7c0-0.6-0.3-1.4-0.7-1.7
		C52.4,144.9,47.1,142,41.6,138.9z"/>
</g>
</svg>
