<?xml version="1.0" encoding="utf-8"?>
<!-- Generator: Adobe Illustrator 23.1.0, SVG Export Plug-In . SVG Version: 6.00 Build 0)  -->
<svg version="1.1" id="Layer_1" xmlns="http://www.w3.org/2000/svg" xmlns:xlink="http://www.w3.org/1999/xlink" x="0px" y="0px"
	 viewBox="0 0 200 200" style="enable-background:new 0 0 200 200;" xml:space="preserve">
<style type="text/css">
	.st0{fill:#424242;}
	.st1{fill:#11BC8B;}
</style>
<g>
	<path class="st0" d="M100.2,3.4c54,0.2,97.6,43.9,97.4,97.8c-0.1,53.9-44,97.5-97.9,97.3c-54.3-0.2-97.7-44.2-97.1-99
		C3.2,46.1,46.7,3.5,100.2,3.4z M184.7,67.6c-0.1-0.5-0.2-1.1-0.4-1.5c-15.7-34.4-42.4-53.4-80.1-56C86.6,8.8,70.2,13.3,54.9,22
		c-33.7,19.1-52,59-44.1,96.8c5.1,24.3,17.9,43.5,38.4,57.6c5.5,3.8,11.2,7,17.6,9.1c0.3,0.2,0.6,0.4,0.9,0.5
		c14.1,5.4,28.6,7.2,43.7,5.3c19.2-2.4,36.1-9.9,50.2-23.2c23.6-22.3,33.1-49.8,28.3-82C188.9,79.8,186.4,73.8,184.7,67.6z"/>
	<path class="st0" d="M180.9,75.8c1.1,6.3,2.7,12.6,3.4,18.9c1.5,15.6-1.6,30.5-8.8,44.4c-12.5,23.8-31.9,38.8-58.2,44.6
		c-13.6,3-27.3,2.3-40.7-1.6c-0.5-0.1-1-0.2-1.6-0.4c-8.1-2.8-15.8-6.3-22.8-11.3c-3.1-2.2-6.1-4.6-9.1-6.9
		c40-40,79.7-79.7,119.6-119.6c5,5.5,9.3,11.5,12.6,18.3C177.4,66.7,179.1,71.3,180.9,75.8z M125.7,152.9c4.4,0,8.9,0.1,13.3,0.1
		c2,0,3.4-1.5,3.3-3.3c0-1.8-1.4-3.1-3.3-3.1c-2.4-0.1-4.8,0-7.3,0c-4,0-8.1-0.1-12.1,0c-2,0-3.4,1.5-3.3,3.3c0,1.8,1.3,3.1,3.3,3.2
		C121.7,153,123.7,152.9,125.7,152.9z M147.2,131.1c2.5,4.2,2.3,8.3-0.7,12.2c2.6,3.5,3.3,7.1,1.3,10.9c-2,3.9-5.4,5.4-9.7,5.3
		c-2.7-0.1-5.4,0-8.1,0c-4.5-0.1-9-0.3-13.5-0.4c-1.1-0.6-2.2-1.3-3.4-1.9c-2.3,1.9-5,2.4-7.9,2.4c-15.3-0.1-30.6,0.1-45.9-0.1
		c-3.1,0-4.8,1.3-6.5,3.6c10.1,7.5,21.1,12.6,33.5,14.7c8,1.6,16.1,1.7,24.2,0.6c20.5-2.9,37.3-12.4,50.3-28.3
		c10.6-13,16.4-28.1,17.2-44.8c0.3-5.8-0.7-11.7-1.1-17.6c-1-7.1-3.2-13.8-6.4-20.2c-2.4-4.8-5.3-9.3-8.1-14.1
		c-0.7,0.5-0.9,0.7-1.1,0.9c-11.1,11.1-22.2,22.2-33.3,33.3c-0.9,0.9-0.6,1.5-0.3,2.5c1.5,4.5,3.1,9.1,4.1,13.7
		c0.8,3.3,0.7,6.8,1.1,10.4c1.8,0,3.6,0,5.4,0c4.1-0.1,7.3,1.4,9.3,5c2,3.6,1.7,7.1-0.6,10.5C146.8,129.8,147.1,130.5,147.2,131.1z
		 M122.4,93.8C111.3,105,100.2,116,89,127.2c7.2,0,14.3,0,21.4,0c-2.6-7.6,3.6-14,10.5-13.3c1.7,0.2,3.3,0,5.1,0
		C126.3,106.7,125.1,100,122.4,93.8z M129.6,120.5c-3.2,0-6.4,0-9.5,0c-2.2,0-3.6,1.3-3.7,3.2c0,1.9,1.4,3.3,3.6,3.3
		c6.3,0,12.6,0,18.8,0c2.2,0,3.6-1.4,3.6-3.3c0-1.9-1.4-3.2-3.7-3.2C135.7,120.4,132.6,120.5,129.6,120.5z M96.9,140
		c3,0,6.1,0,9.1,0c2.4,0,3.8-1.2,3.9-3.2c0-2-1.4-3.3-3.8-3.3c-6.1,0-12.3,0-18.4,0c-2.4,0-3.8,1.3-3.8,3.3c0,1.9,1.5,3.2,3.7,3.2
		C90.7,140,93.8,140,96.9,140z M96.9,153c3.1,0,6.2,0,9.3,0c2.2,0,3.6-1.3,3.6-3.3c0-1.9-1.4-3.2-3.6-3.2c-6.2,0-12.4,0-18.6,0
		c-2.2,0-3.7,1.2-3.7,3.2c-0.1,2,1.4,3.3,3.7,3.3C90.7,153,93.8,153,96.9,153z M129.3,133.5c-3.2,0-6.4,0-9.5,0
		c-2.1,0-3.4,1.4-3.4,3.3c0,1.8,1.4,3.2,3.4,3.2c6.3,0,12.6,0,18.9,0c2.2,0,3.6-1.4,3.6-3.3c0-1.9-1.4-3.2-3.7-3.2
		C135.6,133.4,132.5,133.5,129.3,133.5z M63.2,152.8c4.9,0,9.7,0,14.6,0c-1.1-3.7-0.2-6.8,1.8-9.5c-0.9-1.8-1.6-3.4-2.3-4.7
		C72.7,143.4,68.1,148,63.2,152.8z"/>
	<path class="st0" d="M37.8,157.6c-27-27.7-32.4-79.2,0.7-114.5C72.1,7.5,125.5,9.1,157,38.5C117.3,78.2,77.6,117.9,37.8,157.6z
		 M38.3,148.4c2.9-2.9,5.8-5.7,8.6-8.6c0.7-0.7,1.2-2,1.2-3c0.1-8,0.1-16,0.1-24c0-17.5,6.9-31.7,20.6-42.5c2.3-1.8,4.5-3.6,6.9-5.4
		c-0.4-0.4-0.6-0.8-0.9-1c-5.1-5-7.4-11.2-7.1-18.3c0.2-5.3,4.3-9.6,9.6-9.6c8.8-0.1,17.6-0.1,26.4,0c4.9,0,9,3.8,9.5,8.6
		c0.4,5-0.4,9.9-3.1,14.2c-1.4,2.2-3.1,4.1-4.7,6.2c3,2.3,6.1,4.7,8.9,6.9c11.1-11.1,22.1-22.1,33.1-33.1
		c-28.2-22.1-72.2-22.5-101.7,6.3C16.2,74,15.1,118.5,38.3,148.4z M87.1,68.6c-3.3-0.6-6-0.2-8.4,2.1c-1.8,1.8-4,3.2-6.1,4.8
		c-10.2,8-16.5,18.3-17.6,31.3c-0.7,7.7-0.3,15.4-0.4,23.1c0,0.6,0,1.1,0.1,1.7c13.4-13.4,26.7-26.7,40-40c-1.3-2.2-2.8-4.5-4.1-6.5
		c-3,3.9-6,7.8-9.1,11.8c-1.8-1.9-3.3-3.4-4.8-4.9C83.5,85.8,87.3,78.1,87.1,68.6z M90.4,42.4c-4.2,0-8.4,0-12.6,0
		c-2.4,0-3.5,1.2-3.7,3.6c-0.4,6.6,2.8,11.4,7.5,15.4c0.4,0.3,1.1,0.4,1.7,0.4c4.7,0,9.5,0,14.2,0c0.6,0,1.3-0.1,1.7-0.4
		c4.7-4,7.8-8.8,7.5-15.2c-0.1-2.6-1.2-3.8-3.9-3.8C98.6,42.4,94.5,42.4,90.4,42.4z M93.6,68.7c-0.2,6.8,1.8,12.9,5.7,18.1
		c3.4-3.4,6.7-6.7,10.2-10.1c-2.4-1.8-5-3.6-7.3-5.8C99.8,68.6,97.1,67.9,93.6,68.7z"/>
	<path class="st1" d="M122.4,93.8c2.7,6.2,3.9,12.9,3.7,20.1c-1.8,0-3.5,0.1-5.1,0c-7-0.7-13.2,5.7-10.5,13.3c-7.1,0-14.3,0-21.4,0
		C100.2,116,111.3,105,122.4,93.8z"/>
	<path class="st1" d="M63.2,152.8c4.8-4.8,9.5-9.5,14.1-14.1c0.6,1.3,1.4,2.9,2.3,4.7c-2,2.7-2.9,5.8-1.8,9.5
		C72.9,152.8,68.1,152.8,63.2,152.8z"/>
	<path class="st1" d="M87.1,68.6c0.2,9.5-3.6,17.1-10.4,23.4c1.5,1.6,2.9,3,4.8,4.9c3.1-4,6.1-8,9.1-11.8c1.3,2,2.7,4.4,4.1,6.5
		c-13.3,13.3-26.6,26.6-40,40c0-0.5-0.1-1.1-0.1-1.7c0.1-7.7-0.2-15.5,0.4-23.1c1.1-13,7.4-23.3,17.6-31.3c2-1.6,4.2-3,6.1-4.8
		C81.1,68.4,83.8,68.1,87.1,68.6z"/>
	<path class="st1" d="M90.4,42.4c4.1,0,8.3,0,12.4,0c2.7,0,3.8,1.2,3.9,3.8c0.3,6.5-2.8,11.2-7.5,15.2c-0.4,0.3-1.1,0.4-1.7,0.4
		c-4.7,0-9.5,0-14.2,0c-0.6,0-1.3-0.1-1.7-0.4c-4.7-4-7.9-8.9-7.5-15.4c0.1-2.4,1.3-3.6,3.7-3.6C82,42.4,86.2,42.4,90.4,42.4z"/>
	<path class="st1" d="M93.6,68.7c3.4-0.7,6.1-0.1,8.6,2.2c2.3,2.1,4.9,3.9,7.3,5.8c-3.5,3.5-6.8,6.8-10.2,10.1
		C95.5,81.5,93.5,75.5,93.6,68.7z"/>
	<path class="st0" d="M164.3,108.1c-8.5,5-16.2,2-20.4-2.1c-5.2-5.2-6.3-13-2.8-19.4c3.6-6.4,11-9.6,18.2-7.9
		c6.9,1.7,12,8,12.3,15.2c0,0.5,0,0.9,0.1,1.4C171.2,100.7,168.7,105,164.3,108.1z M155.6,84.7c-5.4-0.1-9.9,4.3-9.9,9.7
		c0,5.3,4.3,9.7,9.6,9.8c5.3,0.1,9.8-4.2,9.9-9.5C165.3,89.3,160.9,84.8,155.6,84.7z"/>
</g>
</svg>
