<?xml version="1.0" encoding="utf-8"?>
<!-- Generator: Adobe Illustrator 23.1.0, SVG Export Plug-In . SVG Version: 6.00 Build 0)  -->
<svg version="1.1" id="Layer_1" xmlns="http://www.w3.org/2000/svg" xmlns:xlink="http://www.w3.org/1999/xlink" x="0px" y="0px"
	 viewBox="0 0 200 200" style="enable-background:new 0 0 200 200;" xml:space="preserve">
<style type="text/css">
	.st0{fill:#00936C;}
</style>
<g>
	<path class="st0" d="M9.2,91.2c0.5-3.3,0.8-6.7,1.4-10c5.1-26.7,19.3-47,42.6-61c3.1-1.9,6.4-3.4,9.7-4.9c2.1-1,3.7-0.6,4.4,1
		c0.8,1.6,0,3.1-2.2,4.1c-15.6,6.7-28,17.2-37.1,31.5c-10,15.6-14.6,32.7-12.9,51.2c3.1,33.2,20.2,57,50.6,70.4
		c35.5,15.6,77.6,3.3,100-28.4c0.2-0.3,0.5-0.7,0.7-1c1.3-1.8,2.9-2.3,4.3-1.3c1.3,1,1.5,2.6,0.2,4.3c-2.6,3.4-5.1,6.9-8.1,10
		c-18.1,19.1-40.4,28.7-66.6,28.4c-41.7-0.5-77.6-30.9-85.4-71.9c-0.7-3.7-1.1-7.5-1.6-11.3C9.2,98.4,9.2,94.8,9.2,91.2z"/>
	<path class="st0" d="M139.6,38.9c1.4-2.3,3.1-4,5.8-4.1c2.4-0.1,4.8,0,7.4-0.5c-0.4-0.4-0.9-0.9-1.3-1.3
		c-17.1-14.1-36.7-20.7-58.9-19.3c-4.9,0.3-9.7,1.5-14.5,2.1c-1.1,0.1-2.4-0.2-3.3-0.8c-0.5-0.4-0.7-1.9-0.4-2.6
		c0.4-0.8,1.5-1.6,2.5-1.8c23.1-5.4,45-2.3,65.6,9.5c6.5,3.7,12.3,8.2,17.5,13.4c0.9,0.9,1.8,1.2,3,1.2c8,0,16,0,24,0
		c5.6,0,8.4,2.8,8.4,8.4c0,25.8,0,51.5,0,77.3c0,5.5-2.9,8.3-8.4,8.4c-2.1,0-4.2,0-6.3,0c-0.9,2.1-1.7,4-2.6,5.9
		c-0.9,1.9-2.2,2.5-3.7,1.8c-1.6-0.7-2-2.2-1.2-4.1c0.5-1.1,1-2.2,1.6-3.6c-3,0-5.7,0.3-8.4-0.1c-3.5-0.4-5.4,0.8-7,4
		c-1.8,3.6-4.4,6.8-6.9,10c-3,3.8-5.8,3.9-9.2,0.5C119.5,119.4,96,95.8,72.4,72.2c-7-7-14-14-21-21c-3.3-3.3-3.1-6,0.4-9
		C76.4,21.4,112,19.7,138.4,38C138.7,38.3,139.1,38.5,139.6,38.9z M54.9,46.9c0.3,0.3,0.5,0.6,0.7,0.8c8.1,8.1,16.1,16.1,24.2,24.1
		c0.5,0.5,1.6,0.8,2.4,0.8c9.2,0.1,18.4,0.1,27.6,0c2.4,0,4.4,0.8,5.7,3c0.2,0.4,0.7,0.8,1.1,0.8c3.3,0.1,6.6,0.2,9.4-2.3
		c3.7-3.3,7.7-6.3,11.7-9.2c1.1-0.8,1.5-1.6,1.5-2.9c-0.1-4.8-0.1-9.7,0-14.5c0-1.6-0.5-2.6-1.7-3.4c-22.5-15.6-46-17.4-70.5-5.3
		C62.5,40.8,58.5,43.6,54.9,46.9z M153,82.1c-0.3,0.1-0.3,0.1-0.4,0.2c-0.1,0.2-0.2,0.3-0.2,0.5c-1,4.9-3.4,8.9-7.3,12
		c-0.3,0.2-0.6,0.7-0.6,1c0,3.1,0,6.1,0,9.2c12.5,0.3,17.4,5,18.8,18.2c2.6,0,5.2,0,8,0c-0.4-5.3,1.1-9.9,4.9-13.6
		c3.8-3.7,8.4-5,13.6-4.5c0-15.7,0-31.2,0-46.7c-8.8,1.2-19.2-5.4-18.7-18.1c-2.6,0-5.3,0-7.9,0c0.7,11.5-8.6,19.2-18.6,18.1
		c0,1.5,0,3,0,4.6c0.8,0,1.4,0,2.1,0c8.4,0,16.7,0,25.1,0c4.5,0,6.9,2.8,6.5,7.2c-0.1,0.6-0.1,1.2-0.4,1.8c-0.5,1.2-0.2,1.9,0.7,2.9
		c3.7,4.1,3.7,9.7,0,13.7c-4.2,4.6-9.6,5.8-15.5,4.3C157.6,91.3,153.9,88,153,82.1z M116.3,81.9c-0.1,0.3-0.2,0.5-0.2,0.6
		c0,8.3,0,16.6,0,24.9c0,0.6,0.4,1.2,0.8,1.7c2.2,2.3,4.5,4.6,6.8,6.8c0.4,0.4,1,0.7,1.5,0.9c2.4,0.8,4.8,1.4,7.2,2.2
		c2.1,0.6,4.2,1.3,6.4,2.1c0-8,0-15.4,0-22.9c-1.8,0.2-3.6,0.5-5.3,0.6c-1.8,0.1-3-1-3-2.6c0-1.6,0.9-2.6,2.7-2.8
		c0.6-0.1,1.2-0.1,1.8-0.2c5.8-0.8,10.4-4.9,11.8-10.6c1.2-4.8,2.8-6.1,7.7-6.1c3.8,0,7.6,0.1,11.4-0.1c4-0.3,7.2-4.2,6.5-7.9
		c-0.3,0-0.6-0.1-0.9-0.1c-9.3,0-18.5-0.1-27.8,0.1c-1.4,0-2.9,0.7-4.1,1.6c-3.7,2.8-7.4,5.7-11,8.7c-2.7,2.2-5.7,3.3-9.2,3.2
		C118.5,81.8,117.4,81.9,116.3,81.9z M110.6,78.2c-8.1,0-16.1,0-23.8,0c7.9,7.9,15.9,15.9,23.8,23.8
		C110.6,94.3,110.6,86.3,110.6,78.2z M144.5,52.5c7.8,1.6,14.7-5.2,12.9-12.4c-3.6,0-7.3,0-11,0c-1.1,0-1.8,0.7-1.8,1.8
		C144.5,45.4,144.5,48.9,144.5,52.5z M177,40.1c-1.3,7.8,5.7,14.4,13,12.3c0-3.5,0-7,0-10.5c0-1.2-0.7-1.8-1.8-1.8
		C184.4,40,180.7,40.1,177,40.1z M144.5,110.6c0,3.6-0.1,7.1,0.1,10.6c0,0.7,1.1,1.8,1.8,1.8c3.7,0.2,7.4,0.1,11,0.1
		C159.2,115.8,152.4,109.2,144.5,110.6z M189.9,110.6c-4.1-0.8-7.5,0.2-10.2,3.1c-2.5,2.6-3.4,5.7-2.7,9.4c3.8,0,7.4,0.1,11-0.1
		c0.7,0,1.8-1.1,1.9-1.7C190,117.8,189.9,114.2,189.9,110.6z M133.8,125.4c4.4,4.4,9.2,9.2,14.1,14.2c2.4-3.5,4.9-7,7.6-11
		c-3.1,0-5.6,0-8.1,0c-2.3,0.1-4.3-0.4-6.1-1.9c-0.3-0.3-0.8-0.5-1.3-0.5C137.9,125.9,135.6,125.6,133.8,125.4z M158.3,81.9
		c0.6,1.1,0.9,1.9,1.3,2.6c3.2,4.4,12,4.4,15.2-0.1c1.4-2,1.3-4.1-0.6-6.2C169.9,82.6,164.2,81.8,158.3,81.9z"/>
	<path class="st0" d="M26.3,96.6c0.4-12.8,3.6-24.7,9.9-35.7c2.3-4,5.8-4.5,9-1.3c29.9,29.9,59.8,59.8,89.7,89.7
		c3.2,3.2,2.7,6.6-1.3,8.9c-42.2,24.7-96.6,0-105.8-48.1C27,105.6,26.8,101.1,26.3,96.6z M101.8,124c-0.5-0.6-0.7-0.9-1-1.1
		c-14.6-14.6-29.3-29.3-44-43.9c-0.5-0.5-1.5-0.8-2.2-0.8c-6.2-0.1-12.4,0-18.5,0c-0.5,0-0.9,0.1-1.4,0.1c-0.2,0.6-0.3,1-0.4,1.5
		c-3.8,14.6-2.8,28.8,3,42.7c0.5,1.3,1.2,1.7,2.5,1.7c20,0,40,0,60,0C100.3,124,100.8,124,101.8,124z M40.7,129.4
		c9.2,15.1,21.7,25.4,38.4,30.3c18.2,5.3,35.5,3,52.1-6.3c-0.6-0.6-1-1.1-1.4-1.5c-7-7-14.1-14-21.1-21.1c-1-1-1.9-1.4-3.3-1.4
		c-20.8,0-41.7,0-62.5,0C42.3,129.4,41.8,129.4,40.7,129.4z M40.9,63.4c-1.5,3-2.9,6-4.4,9.1c4.8,0,9.2,0,13.6,0
		C47.1,69.5,44.1,66.6,40.9,63.4z"/>
</g>
</svg>
