<?xml version="1.0" encoding="utf-8"?>
<!-- Generator: Adobe Illustrator 23.1.0, SVG Export Plug-In . SVG Version: 6.00 Build 0)  -->
<svg version="1.1" id="Layer_1" xmlns="http://www.w3.org/2000/svg" xmlns:xlink="http://www.w3.org/1999/xlink" x="0px" y="0px"
	 viewBox="0 0 200 200" style="enable-background:new 0 0 200 200;" xml:space="preserve">
<style type="text/css">
	.st0{fill:#00936C;}
</style>
<g>
	<path class="st0" d="M159.8,160.8c-2.2,8.2-4.3,16.3-6.5,24.5c-0.3,1-0.5,2.1-0.8,3.1c-0.3,1.4-1.1,2.7-2.5,2.6
		c-1.1,0-2.5-0.6-3.2-1.4c-5.6-6.4-11-13-16.4-19.5c-4.7-5.6-9.4-11.2-14.1-16.8c-0.4-0.5-0.8-0.9-1.4-1.5c-8.9,6.9-17.8,7-26.8,0
		c-0.6,0.7-1.1,1.3-1.6,1.9c-10,11.9-19.9,23.7-29.9,35.6c-1,1.1-2,2.2-3.6,1.8c-1.7-0.4-2.2-1.8-2.6-3.3
		c-2.2-8.5-4.5-16.9-6.7-25.4c-0.3-1.2-0.7-1.7-2.1-1.8c-8.4-0.6-16.7-1.4-25-2.1c-0.7-0.1-1.4-0.1-2.1-0.2c-3-0.5-4-2.9-2.1-5.3
		c4.3-5.2,8.6-10.3,12.9-15.4c5.6-6.7,11.3-13.4,16.8-20.1c0.5-0.7,0.8-1.8,0.7-2.7c-0.5-3.9-2-7.4-4.3-10.7
		c-2.5-3.4-5-6.9-7.2-10.5c-3.9-6.4-3.8-12.9,0-19.3c1.4-2.4,2.9-4.8,4.7-7c4.7-5.5,6.9-11.9,7.6-19c0.2-1.9,0.7-3.8,1-5.7
		c1.7-8.8,7.2-13.9,15.9-15.5c2.8-0.5,5.6-1.1,8.5-1.4c5.2-0.6,9.7-2.6,13.9-5.7c3.6-2.6,7.3-5.1,11.1-7.2c4.7-2.6,9.8-2.5,14.6-0.1
		c2.9,1.5,5.9,3.1,8.4,5.2c6.1,5.1,13,7.7,20.8,8.5c2.4,0.2,4.8,0.8,7.1,1.5c6.7,1.9,11,6.3,12.6,13c0.9,3.8,1.6,7.7,2.2,11.6
		c0.7,4.8,2.6,9,5.6,12.9c2.1,2.8,4.1,5.6,6,8.6c4,6.6,4.1,13.3,0,19.8c-1.8,3-3.9,5.8-6,8.6c-2.7,3.6-4.7,7.5-5.5,12
		c-0.2,1.3,0,2.2,0.8,3.2c9.5,11.3,19,22.6,28.5,33.9c0.3,0.4,0.6,0.8,1,1.1c0.9,1,1.5,2.1,1,3.6c-0.6,1.5-1.9,1.9-3.3,2
		c-7.9,0.7-15.8,1.3-23.7,2C162.9,160.5,161.4,160.7,159.8,160.8z M101.8,151.5c2.2-0.9,4.6-1.5,6.7-2.7c2.8-1.6,5.4-3.6,8-5.5
		c4.6-3.5,9.6-5.8,15.3-6.7c4.2-0.6,8.4-1.5,12.5-2.5c3.7-0.9,6.2-3.5,7.3-7.1c0.7-2.6,1.5-5.2,1.7-7.8c0.9-8.4,3.6-15.9,9.1-22.4
		c1.5-1.7,2.6-3.7,3.8-5.5c3-4.7,3.1-9.5,0-14.3c-1.7-2.7-3.5-5.3-5.5-7.8c-3.7-4.8-6-10-6.8-16c-0.5-3.4-1.1-6.8-1.8-10.1
		c-1.1-5-4.2-8.3-9.3-9.4c-2.4-0.5-4.9-1.2-7.4-1.4c-7.7-0.8-14.6-3.5-20.7-8.5c-1.9-1.6-4-2.9-6.1-4.3c-4.7-3-9.5-3.1-14.3,0
		c-2.8,1.8-5.5,3.7-8.1,5.7c-4.4,3.3-9.2,5.5-14.6,6.4c-4.2,0.7-8.5,1.5-12.7,2.5c-3.9,0.9-6.4,3.5-7.6,7.4
		c-0.7,2.6-1.4,5.2-1.7,7.9c-0.9,8.1-3.5,15.6-8.9,21.9c-1.5,1.8-2.8,3.8-4.1,5.8c-3,4.7-3.1,9.5,0,14.3c1.8,2.8,3.7,5.5,5.7,8.1
		c3.5,4.6,5.7,9.8,6.5,15.5c0.6,3.8,1.3,7.6,2.2,11.4c1,4.2,3.8,7,8,8.1c2.7,0.7,5.5,1.4,8.2,1.7c7.6,0.9,14.4,3.3,20.3,8.3
		c1.7,1.4,3.5,2.6,5.3,3.8C95.8,149.7,98.5,151.1,101.8,151.5z M20.6,152.8c0.7,0.1,1,0.1,1.3,0.2c7.6,0.6,15.2,1.3,22.8,1.9
		c2.8,0.2,3.4,0.7,4.1,3.5c0.8,3.1,1.6,6.3,2.5,9.4c1.2,4.6,2.4,9.1,3.7,14.1c9.5-11.3,18.8-22.4,28.1-33.5
		c-3.6-2.9-7.4-4.8-11.7-5.5c-3.6-0.6-7.1-1.2-10.7-1.9c-8.6-1.6-14-6.5-15.8-15.1c-0.1-0.4-0.2-0.8-0.5-1.5
		C36.5,133.9,28.6,143.2,20.6,152.8z M182.6,152.9c-8.1-9.7-15.9-19-23.8-28.3c-0.2,0.2-0.3,0.2-0.3,0.3c-0.2,0.8-0.5,1.6-0.7,2.3
		c-1.9,7.2-6.5,11.6-13.7,13.4c-2.7,0.7-5.5,1.2-8.3,1.6c-5.8,0.8-11.3,2.1-15.9,6.3c9.2,11,18.5,22.1,28,33.3
		c0.2-0.7,0.4-1,0.5-1.4c1.9-7.1,3.8-14.2,5.6-21.3c0.9-3.6,1.4-3.9,5.1-4.2C166.9,154.2,174.5,153.5,182.6,152.9z"/>
	<path class="st0" d="M101.6,132.1c-26.5,0-48.1-21.6-48-48.1c0-26.4,21.6-47.9,48-47.9c26.5,0,48.1,21.5,48,48.1
		C149.5,110.6,128,132.1,101.6,132.1z M101.5,126.1c23,0.1,42-18.7,42.1-41.7c0.1-23.3-18.6-42.2-41.9-42.3
		C78.6,42,59.6,60.8,59.5,83.9C59.4,107.1,78.2,126,101.5,126.1z"/>
	<path class="st0" d="M81.9,109.1c0.8-4.8,1.7-9.9,2.6-15c0.2-1.3,0-2.2-1-3.1c-3.5-3.3-7-6.8-10.5-10.2c-1-1-1.9-2.1-1.4-3.6
		c0.5-1.6,1.8-2,3.4-2.3c4.9-0.7,9.8-1.4,14.7-2.1c1.1-0.1,1.7-0.6,2.2-1.6c2.1-4.5,4.4-8.8,6.5-13.3c0.6-1.3,1.5-2.3,3.1-2.3
		c1.7,0,2.5,1,3.2,2.4c2.1,4.4,4.4,8.8,6.5,13.3c0.5,0.9,1,1.4,2.1,1.5c4.9,0.6,9.8,1.4,14.7,2.1c1.5,0.2,2.9,0.6,3.4,2.2
		c0.6,1.6-0.3,2.7-1.4,3.8c-3.5,3.4-7.1,6.8-10.6,10.4c-0.6,0.6-1,1.8-0.8,2.6c0.7,4.7,1.6,9.4,2.4,14c0.1,0.4,0.3,0.9,0.1,1.3
		c-0.3,1.1-0.5,2.5-1.3,3c-0.8,0.5-2.4,0.5-3.3,0.1c-4.5-2.2-8.9-4.6-13.3-7c-1.2-0.7-2.2-0.7-3.4,0c-4.4,2.4-8.9,4.8-13.4,7.1
		C84,113.5,81.8,112,81.9,109.1z M81.5,80.1c2.6,2.8,5.1,5.5,7.8,8.1c1.4,1.4,2.1,2.7,1.5,4.7c-0.2,0.7-0.3,1.5-0.4,2.2
		c-0.5,3-1,5.9-1.5,9.2c3.6-1.9,6.8-3.5,9.9-5.3c1.9-1.1,3.5-1.1,5.4,0c3.2,1.8,6.5,3.4,10,5.3c-0.7-4-1.1-7.6-1.9-11.2
		c-0.5-2.1,0.1-3.5,1.6-5c2.6-2.5,5.1-5.3,7.7-8c-3.3-0.5-6.7-1.1-10.1-1.4c-2.6-0.2-4.2-1.3-5.2-3.7c-1.3-3.2-3-6.2-4.8-9.7
		c-1.7,3.5-3.4,6.5-4.8,9.7c-1,2.5-2.7,3.5-5.2,3.7C88.2,79,84.8,79.6,81.5,80.1z"/>
</g>
</svg>
