<svg width="593" height="407" viewBox="0 0 593 407" fill="none" xmlns="http://www.w3.org/2000/svg">
<path d="M325.397 179.567L204.74 219.784V219.94L329.055 271.114L446.053 219.94V219.784L325.397 179.567Z" fill="white"/>
<path d="M224.344 213.251L204.74 219.786" stroke="#003E2D" stroke-miterlimit="10" stroke-linecap="round" stroke-linejoin="round"/>
<path d="M446.051 219.787L428.802 214.039" stroke="#003E2D" stroke-miterlimit="10" stroke-linecap="round" stroke-linejoin="round"/>
<path d="M420.03 209.5C421.05 206.224 420.811 203.464 419.437 201.535L424.015 186.842C425.456 182.208 425.478 177.308 424.076 172.664L417.386 150.532C416.477 147.517 417.181 141.11 418.389 137.235C418.761 136.038 418.095 134.763 416.898 134.392L389.989 126.006C388.792 125.635 387.517 126.3 387.146 127.497C385.937 131.371 382.878 137.047 380.417 139.009L362.337 153.42C358.546 156.441 355.78 160.487 354.334 165.12L349.755 179.814C347.527 180.623 345.765 182.757 344.745 186.032L344.091 188.139C343.271 190.777 343.271 193.077 344.013 194.884C342.373 195.948 341.07 197.838 340.244 200.476L339.59 202.583C338.77 205.221 338.77 207.521 339.513 209.328C337.872 210.392 336.57 212.282 335.744 214.926L335.09 217.032C334.27 219.67 334.269 221.97 335.012 223.777C333.372 224.841 332.069 226.731 331.243 229.37L330.589 231.476C329.569 234.757 329.808 237.512 331.182 239.441L323.323 264.67C321.017 272.064 324.265 280.112 331.044 283.809C331.731 284.186 332.424 284.469 333.117 284.685C335.921 285.56 338.798 285.289 341.807 285.006C345.526 284.657 349.744 284.258 354.938 285.882C360.137 287.5 363.379 290.222 366.239 292.622C369.132 295.044 371.854 297.327 375.783 297.754C383.46 298.558 390.704 293.78 393.01 286.386L400.869 261.156C403.097 260.347 404.86 258.213 405.88 254.938L406.534 252.832C407.354 250.193 407.354 247.893 406.611 246.086C408.252 245.022 409.56 243.132 410.38 240.494L411.034 238.388C411.854 235.749 411.855 233.449 411.112 231.642C412.752 230.578 414.06 228.688 414.881 226.05L415.535 223.944C416.355 221.305 416.355 219.005 415.612 217.198C417.253 216.134 418.555 214.244 419.381 211.606L420.03 209.5Z" fill="white"/>
<path d="M416.871 202.116L421.843 186.164C423.145 181.985 423.162 177.512 421.898 173.322L415.203 151.191C414.061 147.422 415.042 140.316 416.212 136.558L402.76 132.368L389.308 128.178C388.138 131.936 384.907 138.337 381.825 140.793L363.746 155.203C360.32 157.93 357.798 161.622 356.496 165.801L351.63 181.414" stroke="#003E2D" stroke-miterlimit="10" stroke-linecap="round" stroke-linejoin="round"/>
<path d="M333.73 238.857L325.478 265.345C323.493 271.714 326.259 278.62 332.118 281.818C338.031 285.049 344.749 280.333 355.601 283.714C366.454 287.095 369.303 294.793 376.004 295.497C382.638 296.195 388.84 292.083 390.824 285.714L399.077 259.226" stroke="#003E2D" stroke-miterlimit="10" stroke-linecap="round" stroke-linejoin="round"/>
<path d="M408.003 115.536C399.119 112.765 391.431 112.072 390.832 113.99L387.052 126.123C386.842 126.804 387.219 127.53 387.9 127.741L417.609 136.997C418.29 137.208 419.016 136.831 419.227 136.149L423.007 124.016C423.611 122.099 416.888 118.302 408.003 115.536Z" fill="#9BD7CA" stroke="#003E2D" stroke-miterlimit="10" stroke-linecap="round" stroke-linejoin="round"/>
<path d="M410.259 185.939C411.562 181.76 411.579 177.287 410.315 173.097" stroke="#003E2D" stroke-miterlimit="10" stroke-linecap="round" stroke-linejoin="round"/>
<path d="M407.577 163.961L405.975 158.674" stroke="#003E2D" stroke-miterlimit="10" stroke-linecap="round" stroke-linejoin="round" stroke-dasharray="5.15 5.15"/>
<path d="M348.952 196.429C345.56 195.371 345.188 192.212 346.247 188.82L346.901 186.713C347.96 183.321 350.06 180.927 353.452 181.985" stroke="#003E2D" stroke-miterlimit="10" stroke-linecap="round" stroke-linejoin="round"/>
<path d="M344.453 210.873C341.061 209.814 340.69 206.655 341.748 203.263L342.402 201.157C343.461 197.765 345.562 195.37 348.954 196.429" stroke="#003E2D" stroke-miterlimit="10" stroke-linecap="round" stroke-linejoin="round"/>
<path d="M339.948 225.319C336.556 224.261 336.185 221.101 337.244 217.709L337.898 215.603C338.956 212.211 341.057 209.817 344.449 210.875" stroke="#003E2D" stroke-miterlimit="10" stroke-linecap="round" stroke-linejoin="round"/>
<path d="M335.448 239.759C332.055 238.701 331.684 235.542 332.743 232.15L333.397 230.043C334.455 226.651 336.556 224.257 339.948 225.316" stroke="#003E2D" stroke-miterlimit="10" stroke-linecap="round" stroke-linejoin="round"/>
<path d="M410.646 215.651C414.038 216.71 416.139 214.315 417.197 210.923L417.851 208.817C418.91 205.425 418.539 202.26 415.147 201.207" stroke="#003E2D" stroke-miterlimit="10" stroke-linecap="round" stroke-linejoin="round"/>
<path d="M406.148 230.1C409.54 231.159 411.641 228.764 412.7 225.372L413.354 223.266C414.412 219.874 414.041 216.709 410.649 215.656" stroke="#003E2D" stroke-miterlimit="10" stroke-linecap="round" stroke-linejoin="round"/>
<path d="M401.647 244.544C405.04 245.602 407.14 243.208 408.199 239.816L408.853 237.71C409.911 234.318 409.54 231.153 406.148 230.1" stroke="#003E2D" stroke-miterlimit="10" stroke-linecap="round" stroke-linejoin="round"/>
<path d="M401.646 244.544C405.038 245.603 405.409 248.762 404.351 252.154L403.696 254.26C402.638 257.652 400.537 260.047 397.145 258.988" stroke="#003E2D" stroke-miterlimit="10" stroke-linecap="round" stroke-linejoin="round"/>
<path d="M370.006 250.529L348.268 243.75" stroke="#003E2D" stroke-miterlimit="10" stroke-linecap="round" stroke-linejoin="round"/>
<path d="M374.504 236.084L352.766 229.306" stroke="#003E2D" stroke-miterlimit="10" stroke-linecap="round" stroke-linejoin="round"/>
<path d="M379.005 221.641L357.267 214.862" stroke="#003E2D" stroke-miterlimit="10" stroke-linecap="round" stroke-linejoin="round"/>
<path d="M383.51 207.192L361.767 200.419" stroke="#003E2D" stroke-miterlimit="10" stroke-linecap="round" stroke-linejoin="round"/>
<path d="M388.011 192.754L366.268 185.976" stroke="#003E2D" stroke-miterlimit="10" stroke-linecap="round" stroke-linejoin="round"/>
<path d="M204.74 219.938V284.454V351.409L329.055 405.997L446.053 351.409V283.767V219.938L329.055 271.113L204.74 219.938Z" fill="white"/>
<path d="M204.74 219.787V284.458V351.412L329.055 406.001L446.053 351.412V283.771V219.787" stroke="#003E2D" stroke-miterlimit="10" stroke-linecap="round" stroke-linejoin="round"/>
<path d="M498.333 171.055C503.753 175.323 511.009 175.528 516.851 171.981C523.014 168.234 526.611 161.488 528.263 154.654C530.363 145.969 530.048 136.342 528.063 127.646C523.967 130.611 518.946 132.163 514.334 134.108C508.842 136.425 503.454 139.202 499.225 143.486C491.759 151.041 488.971 163.683 498.333 171.055Z" fill="#9BD7CA" stroke="#003E2D" stroke-miterlimit="10" stroke-linecap="round" stroke-linejoin="round"/>
<path d="M317.466 58.7609C313.869 54.0331 313.786 47.7811 316.928 42.7983C320.237 37.5439 326.101 34.5399 332.009 33.2097C339.52 31.5192 347.806 31.9238 355.272 33.7528C352.661 37.2391 351.259 41.5401 349.513 45.4864C347.44 50.1865 344.979 54.7869 341.227 58.3729C334.614 64.697 323.685 66.9252 317.466 58.7609Z" fill="#9BD7CA" stroke="#003E2D" stroke-miterlimit="10" stroke-linecap="round" stroke-linejoin="round"/>
<path d="M84.047 182.211C87.8104 174.229 96.0024 169.834 104.726 170.56C113.922 171.325 121.903 176.995 127.7 183.868C135.072 192.609 140.221 203.816 142.92 214.912C136.535 213.853 129.901 214.956 123.505 215.366C115.889 215.854 108.135 215.76 100.841 213.271C87.9656 208.887 77.54 196.001 84.047 182.211Z" fill="white" stroke="#003E2D" stroke-miterlimit="10" stroke-linecap="round" stroke-linejoin="round"/>
<path d="M329.053 270.971V405.999" stroke="#003E2D" stroke-miterlimit="10" stroke-linecap="round" stroke-linejoin="round"/>
<path d="M337.651 42.4336C321.323 50.3706 314.023 61.5722 310.77 69.6533" stroke="#003E2D" stroke-miterlimit="10" stroke-linecap="round" stroke-linejoin="round"/>
<path d="M453.442 85.7501C451.713 84.7026 411.097 59.7499 411.097 33.334C411.097 20.586 421.467 10.2158 434.215 10.2158C442.789 10.2158 450.532 14.9824 454.512 22.2709C458.497 14.9769 466.24 10.2158 474.808 10.2158C487.556 10.2158 497.927 20.586 497.927 33.334C497.927 59.7554 457.311 84.7026 455.581 85.7501L454.512 86.4042L453.442 85.7501Z" fill="#9BD7CA" stroke="#003E2D" stroke-miterlimit="10" stroke-linecap="round" stroke-linejoin="round"/>
<path d="M474.815 24.4268C479.725 24.4268 483.716 28.4174 483.716 33.3282" stroke="#003E2D" stroke-miterlimit="10" stroke-linecap="round" stroke-linejoin="round"/>
<path d="M517.66 147.933C508.143 166.739 495.002 175.003 485.563 178.627" stroke="#003E2D" stroke-miterlimit="10" stroke-linecap="round" stroke-linejoin="round"/>
<path d="M178.754 84.2697C143.775 119.249 115.669 125.412 102.128 111.877C88.5931 98.3422 94.7509 70.2303 129.736 35.2511C164.715 0.271835 192.821 -5.89148 206.362 7.6435C219.897 21.184 213.733 49.2904 178.754 84.2697Z" fill="#9BD7CA" stroke="#003E2D" stroke-miterlimit="10" stroke-linecap="round" stroke-linejoin="round"/>
<path d="M146.398 42.2607C160.648 61.0944 161.734 77.6224 161.734 77.6224" stroke="#003E2D" stroke-miterlimit="10" stroke-linecap="round" stroke-linejoin="round"/>
<path d="M164.097 27.5225C175.781 43.9728 178.535 60.8223 178.535 60.8223" stroke="#003E2D" stroke-miterlimit="10" stroke-linecap="round" stroke-linejoin="round"/>
<path d="M130.489 58.1914C141.94 74.3148 144.64 90.8261 144.64 90.8261" stroke="#003E2D" stroke-miterlimit="10" stroke-linecap="round" stroke-linejoin="round"/>
<path d="M118.156 75.4951C126.686 87.5059 128.698 99.8049 128.698 99.8049" stroke="#003E2D" stroke-miterlimit="10" stroke-linecap="round" stroke-linejoin="round"/>
<path d="M181.547 17.9023C190.304 30.229 192.366 42.855 192.366 42.855" stroke="#003E2D" stroke-miterlimit="10" stroke-linecap="round" stroke-linejoin="round"/>
<path d="M119.406 197.637C97.7566 181.547 77.9807 179.602 65.0997 180.849" stroke="#003E2D" stroke-miterlimit="10" stroke-linecap="round" stroke-linejoin="round"/>
<path d="M44.5302 286.033C22.4375 286.033 4.19133 294.984 1.3757 309.34C0.976632 311.379 2.61724 313.258 4.70124 313.258H84.3592C86.4376 313.258 88.0838 311.379 87.6792 309.34C84.8691 294.984 66.6229 286.033 44.5302 286.033Z" fill="white" stroke="#003E2D" stroke-miterlimit="10" stroke-linecap="round" stroke-linejoin="round"/>
<path d="M77.2049 351.408H11.8523C5.86082 351.408 1 346.548 1 340.556C1 338.123 2.97319 336.155 5.40084 336.155H83.6565C86.0897 336.155 88.0573 338.128 88.0573 340.556C88.0573 346.548 83.1964 351.408 77.2049 351.408Z" fill="white" stroke="#003E2D" stroke-miterlimit="10" stroke-linecap="round" stroke-linejoin="round"/>
<path d="M5.04468 324.591H84.0098" stroke="#003E2D" stroke-miterlimit="10" stroke-linecap="round" stroke-linejoin="round"/>
<path d="M25.5191 300.821H25.1129" stroke="#003E2D" stroke-miterlimit="10" stroke-linecap="round" stroke-linejoin="round"/>
<path d="M44.4698 297.497H44.058" stroke="#003E2D" stroke-miterlimit="10" stroke-linecap="round" stroke-linejoin="round"/>
<path d="M65.6768 302.002H65.265" stroke="#003E2D" stroke-miterlimit="10" stroke-linecap="round" stroke-linejoin="round"/>
<path d="M546.39 343.457L549.82 340.209C550.014 340.026 550.053 339.738 549.931 339.505C546.91 333.796 547.398 327.067 551.633 322.833L569.801 304.664" stroke="#003E2D" stroke-miterlimit="10" stroke-linecap="round" stroke-linejoin="round"/>
<path d="M531.156 374.235L512.161 394.321C509.556 396.926 505.288 396.926 502.678 394.321C500.073 391.716 500.073 387.448 502.678 384.838L515.869 372.361" stroke="#003E2D" stroke-miterlimit="10" stroke-linecap="round" stroke-linejoin="round"/>
<path d="M592.335 327.189L574.166 345.358C569.926 349.593 563.197 350.08 557.494 347.06C557.261 346.938 556.973 346.976 556.79 347.17L553.642 350.502" stroke="#003E2D" stroke-miterlimit="10" stroke-linecap="round" stroke-linejoin="round"/>
<path d="M562.847 326.701L577.346 312.202" stroke="#003E2D" stroke-miterlimit="10" stroke-linecap="round" stroke-linejoin="round"/>
<path d="M570.295 334.151L584.789 319.651" stroke="#003E2D" stroke-miterlimit="10" stroke-linecap="round" stroke-linejoin="round"/>
<path d="M526.845 364.208L532.077 358.981L560.494 391.915C563.165 394.587 567.533 394.587 570.199 391.915C572.871 389.244 572.871 384.876 570.199 382.21L499.509 311.515C496.111 308.117 493.59 309.514 493.329 311.997C493.141 313.771 493.867 316.498 494.997 319.141C500.529 332.094 511.342 351.538 523.087 364.142C524.096 365.222 525.797 365.261 526.845 364.208Z" fill="#9BD7CA" stroke="#003E2D" stroke-miterlimit="10" stroke-linecap="round" stroke-linejoin="round"/>
<path d="M94.4705 262.102V262.041C94.4705 250.064 102.441 240.348 112.268 240.348H112.373C122.2 240.348 130.17 250.058 130.17 262.041V262.102" stroke="#003E2D" stroke-miterlimit="10" stroke-linecap="round" stroke-linejoin="round"/>
<path d="M74.9458 274.403H149.693" stroke="#003E2D" stroke-miterlimit="10" stroke-linecap="round" stroke-linejoin="round"/>
<path d="M446.054 351.411H473.417" stroke="#003E2D" stroke-miterlimit="10" stroke-linecap="round" stroke-linejoin="round"/>
<path d="M204.736 351.411H151.178" stroke="#003E2D" stroke-miterlimit="10" stroke-linecap="round" stroke-linejoin="round"/>
<path d="M254.434 373.232H199.39" stroke="#003E2D" stroke-miterlimit="10" stroke-linecap="round" stroke-linejoin="round"/>
<path d="M182.707 373.232H178.894" stroke="#003E2D" stroke-miterlimit="10" stroke-linecap="round" stroke-linejoin="round"/>
<path d="M97.5133 351.409H123.719H151.182C152.468 351.409 153.493 350.334 153.427 349.048L149.187 264.291C149.126 263.094 148.139 262.157 146.942 262.157H77.7041C76.5069 262.157 75.5203 263.094 75.4593 264.291L74.6501 280.525" stroke="#003E2D" stroke-miterlimit="10" stroke-linecap="round" stroke-linejoin="round"/>
<path d="M204.738 219.787L168.174 267.32L292.489 325.817L329.053 270.973L204.738 219.787Z" fill="#9BD7CA" stroke="#003E2D" stroke-miterlimit="10" stroke-linecap="round" stroke-linejoin="round"/>
<path d="M446.052 219.787L329.053 270.973L369.27 322.164L478.958 267.32L446.052 219.787Z" fill="#9BD7CA" stroke="#003E2D" stroke-miterlimit="10" stroke-linecap="round" stroke-linejoin="round"/>
<path d="M269.538 131.034C269.538 131.034 266.634 106.641 278.728 93.7158L286.266 101.104C286.266 101.104 274.992 115.271 278.733 127.581C282.109 126.018 285.706 124.904 289.386 124.339C313.18 120.653 331.36 141.094 334.098 163.375C336.764 185.041 329.354 210.869 310.72 223.623C305.077 227.486 301.596 226.777 295.333 227.12C290.439 227.386 287.502 231.97 282.541 232.685C272.448 234.148 260.925 229.509 252.766 223.966C234.736 211.717 220.619 189.275 223.136 166.95C225.447 146.442 241.332 130.701 269.538 131.034Z" fill="#9BD7CA" stroke="#003E2D" stroke-miterlimit="10" stroke-linecap="round" stroke-linejoin="round"/>
<path d="M255.885 115.662C258.645 109.344 257.021 102.266 252.11 97.5101C246.933 92.4941 239.495 90.7149 232.467 90.8369C223.533 90.9921 214.299 93.7246 206.378 97.8372C210.28 101.052 213.046 105.519 216.095 109.493C219.725 114.221 223.765 118.733 228.981 121.753C238.176 127.069 251.113 126.575 255.885 115.662Z" fill="white" stroke="#003E2D" stroke-miterlimit="10" stroke-linecap="round" stroke-linejoin="round"/>
<path d="M228.634 102.791C264.401 110.545 272.16 136.9 272.16 136.9" stroke="#003E2D" stroke-miterlimit="10" stroke-linecap="round" stroke-linejoin="round"/>
<path d="M261.653 143.065C261.653 143.065 274.445 149.084 284.427 137.129" stroke="#003E2D" stroke-miterlimit="10" stroke-linecap="round" stroke-linejoin="round"/>
<path d="M319.08 154.189C316.037 147.538 311.309 141.768 305.395 137.982" stroke="#003E2D" stroke-miterlimit="10" stroke-linecap="round" stroke-linejoin="round"/>
</svg>
