<?xml version="1.0" encoding="utf-8"?>
<!-- Generator: Adobe Illustrator 23.1.0, SVG Export Plug-In . SVG Version: 6.00 Build 0)  -->
<svg version="1.1" id="Layer_1" xmlns="http://www.w3.org/2000/svg" xmlns:xlink="http://www.w3.org/1999/xlink" x="0px" y="0px"
	 viewBox="0 0 200 200" style="enable-background:new 0 0 200 200;" xml:space="preserve">
<style type="text/css">
	.st0{fill:#00936C;}
</style>
<g>
	<path class="st0" d="M11.3,96.8c0.6-2.5,0.9-5.3,2-7.6c3.8-8.6,10.5-13.1,19.9-13.5c5-0.2,10,0,14.9-0.1c0.9,0,1.8-0.2,2.7-0.5
		c9.5-3.9,19-7.9,28.5-11.8c1.1-0.4,1.4-1,1.4-2.1c0-1.7,0-3.4,0.4-5c1.2-5.1,6.1-8.6,11.2-8.3c5.6,0.4,9.8,4.3,10.4,9.8
		c0.1,0.9,0.1,1.7,0.1,2.6c0,10.8,0,21.6,0,32.5c0,0.6,0,1.3,0,2.1c2.8,0,5.4,0,8.3,0c0-0.7,0-1.3,0-1.9c0-15.5,0-31.1,0-46.6
		c0-6.2,3.3-9.5,9.5-9.5c2.4,0,4.8,0,7.3,0c1.2-8,5.1-14.3,12-18.6c5.3-3.3,11.2-4.3,17.3-3.2c12.2,2.2,20.9,13.1,20.4,25.7
		c-0.4,11.8-10,22.2-21.6,23.6c-13.5,1.6-26.2-7.5-28.2-22c-2.8,0-5.7-0.1-8.6,0c-1.5,0.1-2.3,1-2.6,2.5c-0.1,0.4,0,0.8,0,1.1
		c0,15.8,0,31.6,0,47.4c0,0.4,0,0.8,0,1.4c3.8,0,7.4,0,11.2,0c1.3-8.2,5.3-14.6,12.6-18.8c5.5-3.1,11.4-4,17.6-2.7
		c12,2.5,20.5,13.8,19.6,26.2c-0.9,12.5-11,22.4-23.7,23.1c-12.1,0.6-23.9-7.8-26-22c-3.7,0-7.4,0-11.2,0c0,0.7,0,1.3,0,1.8
		c0,15.5,0,31.1,0,46.6c0,3.3,0.8,4.1,4.2,4.1c2.3,0,4.6,0,6.8,0c0.8-2.6,1.4-5.1,2.4-7.4c4.4-10.2,15.1-16.1,26.3-14.6
		c10.8,1.4,19.6,10.3,21.1,21.2c1.9,13.6-7.4,26.1-20.9,28.2c-0.3,0-0.6,0.2-0.9,0.3c-1.8,0-3.7,0-5.5,0c-0.3-0.1-0.6-0.2-0.9-0.3
		c-10.3-1.6-18.3-8.9-20.7-19c-0.2-0.9-0.4-1.9-0.6-2.9c-2.5,0-4.9,0-7.2,0c-6.2,0-9.5-3.3-9.5-9.6c0-15.5,0-31.1,0-46.6
		c0-0.6,0-1.3,0-1.9c-2.9,0-5.5,0-8.3,0c0,0.8,0,1.4,0,2.1c0,10.8,0,21.6,0,32.5c0,0.9,0,1.7-0.1,2.6c-0.6,5.4-4.9,9.4-10.4,9.8
		c-5.1,0.4-10-3.2-11.2-8.3c-0.4-1.6-0.4-3.3-0.4-5c0-1.2-0.4-1.7-1.4-2.1c-7.8-3.2-15.5-6.4-23.2-9.6c-1-0.4-2-0.8-3-1.2
		c-0.1,0.3-0.1,0.4-0.1,0.5c0,4.7,0,9.4,0,14.1c0,6.6-4.7,11.5-11,11.6c-6.2,0.1-11.1-4.9-11.1-11.5c0-4.9,0-9.7,0-14.6
		c0-0.6,0-1.1,0-1.7c-0.5-0.1-0.8-0.2-1.1-0.3c-9.1-2-14.9-7.5-17.5-16.4c-0.4-1.3-0.6-2.7-0.8-4.1C11.3,98.3,11.3,97.6,11.3,96.8z
		 M80.5,68.9c-0.4,0.1-0.6,0.1-0.9,0.2c-8.6,3.6-17.1,7.2-25.7,10.7c-1,0.4-1,1.1-1,1.9c0,10.7,0,21.4,0,32.1c0,1.1,0.3,1.7,1.4,2.1
		c8.3,3.4,16.6,6.9,24.8,10.3c0.4,0.2,0.9,0.3,1.4,0.5C80.5,107.3,80.5,88.2,80.5,68.9z M97.2,97.8c0-12.4,0-24.9,0-37.3
		c0-0.8,0-1.6-0.1-2.4c-0.4-2.3-2.2-4.1-4.5-4.5c-3.8-0.6-6.4,2.1-6.4,6.4c0,25.2,0,50.4,0,75.7c0,0.6,0,1.3,0.1,1.9
		c0.5,3,3.2,4.9,6.1,4.5c3-0.4,4.8-2.7,4.8-6.3C97.2,123.1,97.2,110.4,97.2,97.8z M47.3,81.3c-5.4,0-10.6,0-15.9,0
		c-0.6,0-1.3,0.2-1.9,0.3c-8,1.9-13.5,9.7-12.6,17.7c0.9,8.5,7.7,14.9,16.1,15c4.4,0.1,8.9,0,13.3,0c0.3,0,0.6-0.1,0.9-0.1
		C47.3,103.2,47.3,92.3,47.3,81.3z M164.7,112.8c6-3.9,8.9-13.2,6.4-21c-2.6-8.2-10.9-13.9-19.4-13.4c-9.2,0.6-16.4,7-18.2,16
		c-1.3,6.9,2.3,16,7.2,18.4C146,104.4,158.4,103.3,164.7,112.8z M140.7,171c5.5-8.6,17.8-9.3,24,0c6.1-4.1,8.9-13.1,6.5-20.9
		c-2.5-8.1-10.1-13.6-18.6-13.6c-8.7,0.1-16.2,5.8-18.6,14.2C131.9,158.3,134.9,167.3,140.7,171z M164.7,54.7
		c6.4-4.7,9-13.9,6.2-21.7c-3-8.1-10.9-13.3-19.5-12.8c-8.5,0.5-15.8,6.8-17.7,15c-1.7,7.5,1.5,16.4,7,19.4
		C146.3,45.8,158.6,45.5,164.7,54.7z M47.3,120c-3.8,0-7.4,0-11,0c0,5.8-0.1,11.5,0,17.3c0.1,2.8,2.8,4.9,5.6,4.8
		c2.9-0.1,5.3-2.3,5.4-5.2C47.4,131.3,47.3,125.8,47.3,120z M145.5,115.7c4.7,1.9,10.1,1.9,14.2,0c-1.7-2.6-4-4-7.1-4
		C149.6,111.7,147.3,113.1,145.5,115.7z M145.6,174c4.8,1.8,9.4,1.8,14.1,0C156.5,168.5,148.7,168.5,145.6,174z M159.8,57.5
		c-2.1-3-4.8-4.3-8.2-3.9c-2.6,0.3-4.5,1.7-5.9,3.9C149.9,59.4,155.8,59.4,159.8,57.5z"/>
	<path class="st0" d="M152.7,100.5c-4.5,0-8.3-3.6-8.3-8.2c-0.1-4.6,3.6-8.4,8.3-8.4c4.5,0,8.3,3.7,8.4,8.2
		C161.1,96.7,157.3,100.5,152.7,100.5z M152.7,89.5c-1.5,0-2.7,1.2-2.7,2.8c0,1.5,1.1,2.6,2.6,2.7c1.5,0,2.8-1.2,2.9-2.7
		C155.5,90.8,154.2,89.5,152.7,89.5z"/>
	<path class="st0" d="M144.4,150.4c0-4.6,3.6-8.2,8.2-8.3c4.6,0,8.4,3.7,8.4,8.3c0,4.5-3.8,8.3-8.3,8.3
		C148.1,158.8,144.4,155,144.4,150.4z M152.6,153.2c1.5,0,2.8-1.2,2.8-2.7c0-1.5-1.1-2.7-2.6-2.8c-1.6-0.1-2.8,1-2.9,2.6
		C149.9,151.9,151.1,153.1,152.6,153.2z"/>
	<path class="st0" d="M152.6,42.3c-4.6,0-8.2-3.7-8.2-8.3c0-4.6,3.7-8.4,8.3-8.3c4.5,0,8.2,3.8,8.3,8.3
		C161,38.6,157.2,42.3,152.6,42.3z M152.6,31.3c-1.5,0-2.7,1.3-2.7,2.9c0,1.6,1.3,2.7,2.8,2.6c1.5-0.1,2.7-1.3,2.6-2.7
		C155.4,32.5,154.1,31.2,152.6,31.3z"/>
</g>
</svg>
