<?xml version="1.0" encoding="utf-8"?>
<!-- Generator: Adobe Illustrator 23.1.0, SVG Export Plug-In . SVG Version: 6.00 Build 0)  -->
<svg version="1.1" id="Layer_1" xmlns="http://www.w3.org/2000/svg" xmlns:xlink="http://www.w3.org/1999/xlink" x="0px" y="0px"
	 viewBox="0 0 384 384" style="enable-background:new 0 0 384 384;" xml:space="preserve">
<style type="text/css">
	.st0{fill:#00936C;}
</style>
<g>
	<path class="st0" d="M317.6,124.9c-4.7,0-9.3-0.1-13.8,0.1c-1,0-2.1,0.7-2.8,1.5c-10.3,11.2-23,17.4-38.2,19.1
		c-0.6,0.1-1,0.2-1.9,0.5c0.7,0.8,1.1,1.5,1.7,2.1c5.1,5.5,5.1,7.2-0.3,12.6c-19.5,19.5-39.2,39.1-58.7,58.6
		c-5.2,5.2-7.5,5.2-12.6,0c-44.3-44.2-88.5-88.3-132.8-132.6c-5.4-5.4-5.4-7.3,0.1-12.9c19.6-19.6,39.3-39.4,58.9-59.1
		c5.1-5.1,7.2-5.1,12.3,0c5.1,5.1,10.3,10,15.2,15.2c1.8,1.9,3.4,2.3,5.9,1.2c13.6-5.2,27.2-10.2,40.8-15.5
		c14.2-5.5,28.6-5.8,43.1-1c20.6,6.7,40.9,13.7,61.7,19.8c6.7,2,14.1,1.6,21.5,2.3c0.2-1.8,0.5-2.6,0.5-3.4c0.2-7.7,1.7-9.1,9.3-9.1
		c13.4,0,26.9,0,40.3,0c6.3,0,8.4,2,8.4,8.4c0,31.8,0,63.8,0,95.6c0,6.4-1.9,8.4-8.4,8.4c-13.3,0-26.5,0-39.9,0
		c-8.4,0-9.5-1.1-9.7-9.5C317.8,126.7,317.7,126.2,317.6,124.9z M156.9,41.7c7.3,7.6,14.6,15.1,21.9,22.6c0.7,0.7,2.6,0.8,3.7,0.5
		c7.1-1.9,13.9-1.7,20.8,1.1c15.5,6.2,30.9,12.3,46.4,18.5c1.4,0.6,3.3,1.2,3.8,2.4c0.8,2,1.7,5,0.8,6.4c-1,1.7-4,2.6-6.2,3.3
		c-1,0.3-2.4-0.8-3.5-1.2c-15.1-6.1-30.4-12.2-45.5-18.3c-4.4-1.8-8.7-2.3-13.2-0.8c-6.5,2.1-10.8,7.8-11.2,14.5
		c-0.3,7.5,3.2,13.6,10.2,16.5c18.9,7.9,37.8,15.6,56.8,23.4c17.3,7,36.7,2.8,49.2-11c1.4-1.5,2.3-4,2.3-5.9
		c0.1-20.9,0-41.8,0.2-62.7c0-3.5-1.2-4.7-4.4-5.8c-17.4-5.4-34.8-10.7-51.9-16.9c-16.1-5.9-31.5-5.9-47.3,1
		C178.7,33.7,167.6,37.5,156.9,41.7z M217.3,187.9c4.5-4.5,8.9-9,13.4-13.6c-7.3-11.1-8-23.3-2.4-35.9c-14.9-6.1-29.5-12.1-44-18.1
		c-4,17.8-17.4,22.6-27.9,21.2c-11.4-1.5-20.7-11.9-20.8-23.7c0-6,1.8-11.4,5.8-15.9c5.5-6.4,12.6-9,21.2-8.7
		c-0.5-8.2,2.9-14.7,6.9-19.8c-8.8-9.3-17.4-18.2-25.9-27c-13.8,8.5-27.3,8-40.5,0.2c-4.7,4.6-9.3,9.1-14,13.8
		c8.5,13.4,8.2,27.1,0.2,40c29.5,29.5,58.6,58.5,87.9,87.6C188.8,181,201.8,178.8,217.3,187.9z M363.4,124.4c0-29.4,0-58.5,0-87.5
		c-11.4,0-22.4,0-33.4,0c0,29.4,0,58.3,0,87.5C341.1,124.4,352.1,124.4,363.4,124.4z M305.5,112.7c4.1,0,8,0,12.1,0
		c0-21.6,0-42.9,0-64.5c-4.2,0-8,0-12.1,0C305.5,69.9,305.5,91.3,305.5,112.7z M160.1,129.8c7,0,12.2-5.2,12.2-12.3
		c0.1-6.7-5.5-12.3-12.3-12.3c-6.8,0-12.3,5.5-12.3,12.4C147.7,124.4,153.1,129.7,160.1,129.8z M240.3,142.9
		c-4.6,7-4.6,16.7-0.8,21.6c4-3.5,8.1-7,11.7-10.3C247.5,150.4,243.9,146.7,240.3,142.9z M69.3,80c4,4,7.7,7.7,11.3,11.4
		c4-6.8,3.7-16.9-0.5-21.7C76.4,73.2,72.7,76.8,69.3,80z M134.4,37.9c-4.1-4-7.8-7.7-11.1-10.8c-3.7,3.4-7.6,6.9-11.7,10.7
		C119.3,41.8,126.8,41.8,134.4,37.9z M208.1,196.8c-7.1-4.3-16-4.2-21.7,0.1c3.6,3.7,7.2,7.6,10.5,11
		C200.5,204.2,204.4,200.5,208.1,196.8z"/>
	<path class="st0" d="M74.6,342.1c0,1.7,0,2.9,0,4.2c-0.1,4.7-2.3,7.1-7,7.1c-14.6,0.1-29.1,0.1-43.7,0c-4.7,0-7-2.3-7-7
		c0-32.5,0-65.2,0-97.7c0-5,2.3-7.1,7.3-7.2c13.9,0,27.7,0,41.6,0c7.5,0,8.9,1.5,9.1,8.8c0,0.8,0.1,1.7,0.2,3
		c4.9,0,9.6,0.1,14.3-0.1c1,0,2.1-1.1,2.9-2c17.2-18.1,40.8-23.5,63.9-14.2c18.2,7.2,36.2,14.9,54.4,22.4
		c8.5,3.5,14.3,9.3,17.6,18.4c8.8-2.8,17.4-5.6,26.1-8.4c8.6-2.7,17.1-6.1,25.9-8.1c17.4-4,33,5.9,38.3,23.1
		c5.1,16.7-3.2,34.3-19.8,40.9c-19.3,7.7-38.7,14.8-58,22.2c-13.1,5-26.1,9.8-39.1,14.9c-14.7,5.8-29.4,5.9-44.3,1
		c-18.7-6.2-37.6-12-56.2-18.5C92.5,341.6,83.9,342.1,74.6,342.1z M99.3,296c0,10.4,0.1,20.9,0,31.3c0,2.9,0.6,4.4,3.7,5.4
		c20,6.3,40,12.9,60,19.4c11.6,3.8,23,3.4,34.4-0.9c8.7-3.3,17.4-6.7,26.1-9.9c23.7-9,47.4-18,71.1-27.2c11.3-4.4,16.7-16.6,13-27.8
		c-3.7-11-15.5-17.1-27-13.4c-16.1,5.1-32.2,10.5-48.2,15.9c-1.1,0.3-2.5,1.8-2.8,3c-5.3,18.7-22.1,27.3-40.3,20.1
		c-7.2-2.8-14.3-5.8-21.6-8.7c-8.6-3.5-17.4-6.8-25.9-10.6c-1.9-0.9-3.8-3.5-4.2-5.5c-0.2-1.6,1.5-4.6,2.9-5.3
		c1.8-0.8,4.7-0.5,6.8,0.5c15.8,6.2,31.4,12.6,47.1,18.9c9,3.6,18.2-0.1,21.9-8.7c3.7-8.7,0.2-18-8.8-21.8
		c-19.2-8.1-38.4-16.5-57.9-23.6c-17.6-6.4-33.7-2.1-47.2,10.7c-2.1,2-3.2,4.3-3.2,7.5C99.5,275.4,99.3,285.7,99.3,296z M62.6,341.3
		c0-29.5,0-58.5,0-87.9c-9.9,0-19.5,0.1-29.1-0.1c-3.5-0.1-4.6,0.8-4.5,4.4c0.1,26.5,0.1,53,0.1,79.5c0,1.2,0.1,2.5,0.2,4
		C40.5,341.3,51.5,341.3,62.6,341.3z M87.2,330c0-21.7,0-43.1,0-64.6c-4.2,0-8,0-12,0c0,21.7,0,43,0,64.6C79.1,330,83,330,87.2,330z
		"/>
</g>
</svg>
