<?xml version="1.0" encoding="utf-8"?>
<!-- Generator: Adobe Illustrator 23.1.0, SVG Export Plug-In . SVG Version: 6.00 Build 0)  -->
<svg version="1.1" id="Layer_1" xmlns="http://www.w3.org/2000/svg" xmlns:xlink="http://www.w3.org/1999/xlink" x="0px" y="0px"
	 viewBox="0 0 384 384" style="enable-background:new 0 0 384 384;" xml:space="preserve">
<style type="text/css">
	.st0{fill:#00936C;}
</style>
<g>
	<path class="st0" d="M334,187.4c-4.1,0-7.5,0-11.4,0c0-39.9,0-79.5,0-119.7c-1.5,0-2.8,0-4,0c-11.4,0-22.8,0-34.2,0
		c-5.6,0-7.5-1.9-7.5-7.5c0-11.3,0-22.6,0-33.9c0-1.3,0-2.6,0-4.1c-68.5,0-136.7,0-205.1,0c0,79.6,0,159.3,0,239.2
		c0.8,0.1,1.7,0.2,2.6,0.2c10.7,0,21.4,0.1,32.1-0.1c1.5,0,3.2-0.8,4.3-1.7c5.5-5.1,10.7-10.5,15.9-15.9c1.1-1.2,1.8-3,1.8-4.6
		c0.2-9.1,0.1-18.3,0.1-27.5c0-5.4,1.9-7.4,7.3-7.2c3.5,0.1,7.2,0.1,10.6,1c9.5,2.6,16.2,11.4,16.3,21.4c0.1,10.1,0,20.2,0,30.3
		c0,1.3,0,2.6,0,4.3c1.5,0,2.8,0,4.1,0c15.1,0,30.2,0,45.3,0c5.9,0,7.7,1.8,7.7,7.6c0,25.5,0,51.1,0,76.7c0,11.4-7.2,18.3-18.6,18.4
		c-21.7,0-43.3,0.1-64.9-0.1c-2.3,0-4.9-0.4-6.8-1.7c-12.7-8-26.3-10.5-41.3-9.9c-21.1,1-42.5,0.2-63.8,0.2c-1.3,0-2.6,0-4.2,0
		c0-3.8,0-7.4,0-11.4c22.6,0,45.3,0,68.1,0c0-22.9,0-45.5,0-68.4c-22.6,0-45.3,0-68.1,0c0-3.9,0-7.4,0-11.4c13,0,26.2,0,39.8,0
		c0-1.9,0-3.3,0-4.8c0-79.1,0-158.4,0-237.5c0-7.5,1.4-8.9,8.9-8.9c70.2,0,140.5,0,210.8-0.1c3.6,0,6.3,1,8.8,3.5
		c14,14.3,28.3,28.2,42.2,42.5c1.6,1.7,3,4.5,3,6.8c0.2,40.4,0.1,80.9,0.1,121.3C334,185.6,334,186.5,334,187.4z M100.3,342
		c8.8-1.7,16.5,0.6,23.6,5.1c7.6,4.9,16,6.3,25,6c17.5-0.5,35-0.1,52.4-0.1c5.4,0,7.2-2,7.3-7.4c0-1.3,0-2.6,0-4.2
		c-15.4,0-30.5,0-45.5,0c0-3.9,0-7.4,0-11.4c15.2,0,30.2,0,45.3,0c0-4,0-7.6,0-11.5c-15.2,0-30.1,0-45.1,0c0-3.9,0-7.5,0-11.5
		c15.2,0,30.2,0,45.3,0c0-3.9,0-7.4,0-11.4c-15.2,0-30.2,0-45.3,0c0-4,0-7.6,0-11.5c15.2,0,30.1,0,45.1,0c0-3.9,0-7.5,0-11.4
		c-1.5,0-2.8,0-4.1,0c-15,0-29.9,0-44.9,0c-6,0-7.8-1.8-7.8-7.8c0-12.4,0-25,0-37.4c0-6.9-4.9-11.8-11.4-11.4
		c0,8.9,0.1,17.8-0.1,26.7c-0.1,2.1-1.1,4.7-2.5,6.3c-6.9,7.3-13.9,14.3-21.1,21.1c-1.5,1.4-3.9,2.1-6,2.4c-3.2,0.4-6.5,0.1-10,0.1
		C100.3,296.2,100.3,318.7,100.3,342z M313.1,56.2c-8.1-8.3-16.4-16.5-24.4-24.6c0,7.8,0,16.2,0,24.6
		C297.1,56.2,305.4,56.2,313.1,56.2z"/>
	<path class="st0" d="M248.5,341.7c-2,0-3.6,0.1-5.3,0c-3.9-0.1-6-2.3-6.1-5.9c-0.1-4.1-0.2-8,0-12.1c0.4-8.8,7.6-15.8,16.4-16.1
		c2-0.1,4,0,6.3,0c0-2.3,0-4.1,0-5.9c0.2-9.3,7.5-16.6,16.8-16.8c3.8-0.1,7.5,0,11.5,0c1.1-17.8-1.2-34.6-8.8-50.5
		c-8.3-17,3.9-40.9,26.3-40.7c14.7,0,27.1,11.6,28.3,26.3c0.4,5.3-0.2,10.2-2.6,15.1c-7.4,15.5-9.5,32.2-8.6,49.9c3,0,6,0,9,0
		c12.7,0,19.3,6.6,19.3,19.4c0,1.1,0,2,0,3.4c2.4,0,4.3-0.1,6.3,0c9,0.3,16.2,7.5,16.5,16.5c0.1,3.5,0.1,7.1,0,10.7c0,5-2,7-7.2,7.1
		c-1.3,0-2.6,0-4.2,0c0,5.4,0,10.5,0,15.5c0,5.4-1.9,7.3-7.3,7.3c-33.1,0-66.3,0-99.4,0c-5.4,0-7.3-1.9-7.3-7.3
		C248.5,352.2,248.5,347.1,248.5,341.7z M311.2,284.7c0-2.6,0-4.6,0-6.8c-0.3-17.4,3.1-33.9,10.4-49.6c1-2,1-4.6,1-6.9
		c-0.1-7-4.7-13.1-11.2-15.4c-6.5-2.4-13.7-0.6-18.6,4.6c-4.6,5-5.8,12.8-3,18.9c5.1,11.2,8.6,22.8,9.3,35.2
		c0.4,6.5,0.1,13.2,0.1,19.8c1.4,0.2,1.8,0.3,2.3,0.3C304.5,284.7,307.7,284.7,311.2,284.7z M362.3,330.1c0.9-9.9-0.4-11.3-9.9-11.3
		c-30.8,0-61.6,0-92.3,0c-2,0-4.1-0.1-6,0c-3.4,0.2-5.5,2.3-5.7,5.7c-0.1,1.8,0,3.6,0,5.6C286.6,330.1,324.4,330.1,362.3,330.1z
		 M351,341.9c-30.6,0-60.8,0-90.9,0c0,3.8,0,7.3,0,10.9c30.3,0,60.6,0,90.9,0C351,349.2,351,345.7,351,341.9z M339.7,307.3
		c0-2,0.1-3.9,0-5.6c-0.2-3.4-2.3-5.7-5.7-5.7c-19-0.1-38-0.1-56.9,0c-3.4,0-5.6,2.3-5.8,5.6c-0.1,1.8,0,3.8,0,5.7
		C294.2,307.3,316.8,307.3,339.7,307.3z"/>
	<path class="st0" d="M220,102.1c34.6,0,62.7,28.3,62.6,62.9c-0.1,34.5-28.4,62.7-63.1,62.5c-34.4-0.1-62.5-28.3-62.5-62.8
		C157.2,130.2,185.4,102,220,102.1z M220.2,113.4c-28.3-0.1-51.5,22.8-51.6,50.9c-0.1,28.4,22.8,51.7,51.1,51.8
		c28.4,0.1,51.6-22.9,51.6-51.4C271.3,136.6,248.4,113.5,220.2,113.4z"/>
	<path class="st0" d="M265.4,33.8c0,3.8,0,7.3,0,10.9c-60.7,0-121.3,0-182.2,0c0-3.5,0-7.2,0-10.9C143.8,33.8,204.5,33.8,265.4,33.8
		z"/>
	<path class="st0" d="M265.4,56.6c0,3.8,0,7.3,0,11c-60.7,0-121.3,0-182.2,0c0-3.5,0-7.2,0-11C143.8,56.6,204.5,56.6,265.4,56.6z"/>
	<path class="st0" d="M83.2,79.3c60.8,0,121.3,0,182.1,0c0,3.6,0,7.3,0,11.2c-60.6,0-121.3,0-182.1,0C83.2,86.7,83.2,83,83.2,79.3z"
		/>
	<path class="st0" d="M193.2,174.4c2.7-2.7,5.1-5.1,7.6-7.6c5.4,5.4,10.7,10.8,16.7,16.8c6.9-17,13.3-33.1,19.8-49.5
		c3.5,1.4,6.9,2.7,10.6,4.2c-2.5,6.2-4.8,12.1-7.2,18c-5,12.5-10,25.1-15.1,37.6c-2.4,5.8-6.5,6.6-10.9,2.3
		c-6.5-6.5-13.1-13.1-19.6-19.6C194.5,176.1,194,175.3,193.2,174.4z"/>
</g>
</svg>
