<?xml version="1.0" encoding="utf-8"?>
<!-- Generator: Adobe Illustrator 23.1.0, SVG Export Plug-In . SVG Version: 6.00 Build 0)  -->
<svg version="1.1" id="Capa_1" xmlns="http://www.w3.org/2000/svg" xmlns:xlink="http://www.w3.org/1999/xlink" x="0px" y="0px"
	 viewBox="0 0 800 800" style="enable-background:new 0 0 800 800;" xml:space="preserve">
<style type="text/css">
	.st0{fill:#F2F2F2;}
	.st1{fill:#424242;}
	.st2{fill:#00916C;}
</style>
<circle class="st0" cx="392.8" cy="395.4" r="390"/>
<g>
	<path class="st1" d="M392.9,592c-33.5,0-67,0.1-100.5,0c-50.4-0.2-91.1-33.6-100.8-82.7c-1.3-6.5-1.7-13.2-1.7-19.9
		c-0.1-67-0.2-134,0-200.9c0.1-50.4,33.5-91.1,82.7-100.8c6-1.2,12.3-1.7,18.4-1.7c33.8-0.2,67.6-0.2,101.4,0
		c15.2,0.1,25.1,14.6,19.1,28.1c-3.8,8.6-10.8,12.4-20.1,12.4c-28.4-0.1-56.8-0.1-85.2,0c-8.7,0-17.6-0.3-26.1,1.2
		c-29,5.3-49.6,29.5-49.7,59c-0.3,68.3-0.4,136.5,0,204.8c0.2,33.7,26.9,59.9,60.7,60.1c67.9,0.3,135.9,0.4,203.8,0
		c34.3-0.2,60.3-27.2,60.6-61.7c0.2-20.2,0-40.3,0.1-60.5c0-8,3.9-14,10.9-17.7c6.9-3.6,13.8-3.2,20.3,1c5.2,3.3,8.9,8.2,8.9,14.4
		c0,26.2,1.3,52.5-1.2,78.5c-4.1,43.2-42,79.9-85,85.4c-6,0.8-12,1.1-18,1.1C458.7,592.1,425.8,592,392.9,592z"/>
	<path class="st2" d="M453.9,265.1c0-12.3,0.2-24.2,0-36c-0.2-9.2,2.9-16.6,11.4-20.8c8.7-4.3,16.5-2,23.8,3.9
		c32.6,26.2,65.4,52.4,98.1,78.5c11.4,9.1,12.2,22.1,1.9,32.5c-33.1,33.1-66.2,66.2-99.3,99.3c-7,7-15.4,9-23.4,5.4
		c-8.8-4-12.5-11.1-12.4-20.6c0.1-13.3,0-26.6,0-40.2c-10.1,0-19.9-0.5-29.6,0.1c-17.2,1-33.9,4.4-49.9,11.2
		c-19.3,8.2-34.5,20.9-44.5,39.7c-7.3,13.8-24.9,15.8-33.9,3.9c-2.6-3.4-4.3-8.3-4.7-12.6c-3.2-37.2,6.7-70.7,30.4-99.7
		c15.5-18.9,36.3-29.9,59.4-36.7c20.7-6.2,42-8.1,63.5-7.7C447.5,265.1,450.4,265.1,453.9,265.1z"/>
</g>
</svg>
