<?xml version="1.0" encoding="utf-8"?>
<!-- Generator: Adobe Illustrator 23.1.0, SVG Export Plug-In . SVG Version: 6.00 Build 0)  -->
<svg version="1.1" id="Layer_1" xmlns="http://www.w3.org/2000/svg" xmlns:xlink="http://www.w3.org/1999/xlink" x="0px" y="0px"
	 viewBox="0 0 200 200" style="enable-background:new 0 0 200 200;" xml:space="preserve">
<style type="text/css">
	.st0{fill:#00936C;}
</style>
<g>
	<path class="st0" d="M478.6,190.8c-1.8-0.7-3.7-1.2-5.3-2.1c-7.2-4.2-9.7-13.5-5.4-20.7c0.8-1.3,0.5-1.9-0.4-2.8
		c-10.1-10.6-20.1-21.3-30.2-31.9c-0.2-0.2-0.4-0.4-0.6-0.7c-1.6-1.7-1.8-3.2-0.5-4.4c1.3-1.2,2.6-1,4.3,0.8
		c9.7,10.2,19.3,20.5,29,30.7c1,1,2,2.1,2.5,2.7c3.3-0.7,6.2-1.8,9.1-1.8c7.8-0.1,14,5.8,14.8,13.6c0.8,7.3-4.3,14.3-11.5,16.1
		c-0.5,0.1-0.9,0.3-1.4,0.4C481.6,190.8,480.1,190.8,478.6,190.8z M481,185.6c5.4,0,9.9-4.5,9.9-10c0-5.4-4.4-9.8-9.8-9.9
		c-5.7,0-10.1,4.4-10.1,9.9C471,181.2,475.4,185.6,481,185.6z"/>
	<path class="st0" d="M400.7,116.8c-1.5,0-2.8,0.1-4.1,0c-6.3-0.4-11.1-4.9-11.3-11.2c-0.2-9.2-0.2-18.5,0-27.7
		c0.2-6.2,5.3-11,11.6-11.1c9.2-0.1,18.4,0,27.6,0c2.8,0,4.8,1.4,6.4,3.8c3.4-1.8,6.7-3.6,10-5.3c7.4-4,14.8-7.9,22.1-11.9
		c0.7-0.4,1.4-1.2,1.7-1.9c1.3-3.1,4.1-4.8,7.4-4.3c3,0.4,5.3,3,5.4,6.2c0.1,7,0.1,13.9,0,20.9c0,1.3,0.3,2.1,1.4,2.9
		c10.1,7.2,10.1,22.2,0.1,29.5c-1.1,0.8-1.5,1.6-1.5,2.9c0.1,6.8,0.1,13.7,0,20.5c-0.1,4.7-4,7.7-8.3,6.5c-2.2-0.6-3.6-2.1-4.5-4.1
		c-0.3-0.6-0.7-1.4-1.2-1.7c-2.1-1.2-4.2-2.3-6.4-3.5c-8.7-4.7-17.4-9.3-26.2-14c-1.4,2-3.1,3.5-5.7,3.8c-0.3,0-0.6,1-0.7,1.5
		c-0.3,3-0.6,5.9-0.9,8.9c-0.3,2.9-1,3.5-3.9,3.5c-1.1,0-2.2,0-3.5,0c0.1,1.2,0.2,2.2,0.2,3.2c0.1,2,0.3,4.1,0.2,6.1
		c-0.1,3.5-2.1,5.8-5.5,6.2c-2.8,0.3-5.7,0.4-8.5,0.1c-3.8-0.4-5.3-2.5-4.9-6.3c0.7-6.2,1.6-12.3,2.3-18.5
		C400.3,120.2,400.5,118.6,400.7,116.8z M464.4,58.7c-0.3,0.1-0.5,0.1-0.6,0.2c-10.4,5.6-20.8,11.1-31.1,16.7c-0.6,0.3-1,1.4-1,2.1
		c-0.1,9.4,0,18.9-0.1,28.3c0,1.2,0.4,1.9,1.4,2.4c10,5.3,19.9,10.6,29.9,15.9c0.4,0.2,0.9,0.4,1.5,0.7
		C464.4,102.7,464.4,80.8,464.4,58.7z M426.4,92c0-5.8,0-11.5,0-17.3c0-2.3-0.4-2.7-2.7-2.7c-8.5,0-17,0-25.5,0
		c-5.1,0-7.7,2.6-7.7,7.7c0,8.1,0,16.3,0,24.4c0,5,2.6,7.6,7.5,7.7c8.6,0,17.1,0,25.7,0c2.2,0,2.7-0.5,2.7-2.8
		C426.4,103.3,426.4,97.6,426.4,92z M472.4,91.7c0-12.1,0-24.2,0-36.3c0-0.6,0.2-1.2-0.1-1.7c-0.3-0.6-0.9-1.1-1.4-1.6
		c-0.4,0.5-1,1-1.3,1.5c-0.2,0.3,0,0.9,0,1.3c0,24.6,0,49.1,0,73.7c0,0.5-0.2,1.1,0.1,1.5c0.3,0.5,0.9,1.2,1.3,1.2
		c0.5,0,1.1-0.7,1.3-1.2c0.2-0.5,0.1-1.2,0.1-1.8C472.4,116.1,472.4,103.9,472.4,91.7z M406,116.9c-1,7.8-2,15.5-3,23.3
		c0,0.4,0.4,1.2,0.7,1.2c2.2,0,4.4-0.1,6.6-0.5c0.6-0.1,1.2-1.4,1.2-2.2c0.1-1.5,0-3-0.2-4.4c-0.8-5.8-1-11.5,1.3-17
		c0-0.1-0.1-0.2-0.1-0.4C410.4,116.9,408.2,116.9,406,116.9z M477.7,100.5c5.2-4.3,4.4-14.5,0-17.3C477.7,89,477.7,94.7,477.7,100.5
		z M419.5,117.1c-0.2,0-0.3-0.1-0.5-0.1c-1.9,2.5-2.7,5.3-2.9,8.5c0.9,0,1.7,0,2.6,0C418.9,122.7,419.2,119.9,419.5,117.1z"/>
	<path class="st0" d="M434.6,30.3c-2-0.8-2.7,0.6-3.5,2.5c-3.8,9.4-7.7,18.8-11.6,28.2c-0.3,0.8-0.7,1.8-1.4,2.1
		c-0.8,0.4-2.1,0.5-2.7,0.1c-0.7-0.5-1.1-1.7-1.2-2.6c-0.1-0.7,0.5-1.5,0.8-2.2c3.9-9.4,7.7-18.8,11.7-28.2c0.5-1.3,0.5-2-0.8-2.9
		c-5.8-4.3-7.6-12.1-4.5-18.5c3.1-6.5,10.2-9.8,17.2-8.2c6.8,1.6,11.7,8,11.6,15C450.1,23.8,443.3,30.4,434.6,30.3z M434.9,25.1
		c5.5,0.1,10-4.2,10.1-9.7c0.1-5.4-4.2-10-9.6-10.1c-5.6-0.1-10.2,4.2-10.3,9.7C425.1,20.6,429.4,25,434.9,25.1z"/>
	<path class="st0" d="M371.6,153.8c4.6,8.2,3.4,16.2-3.1,21.2c-5.9,4.5-14.3,4-19.6-1.1c-5.4-5.2-6.2-13.6-1.9-19.7
		c3.7-5.2,12-9.1,21.1-3.7c0.3-0.4,0.6-1.1,1-1.6c6.7-7.2,13.5-14.4,20.3-21.6c0.4-0.4,0.8-0.9,1.3-1.3c1.1-0.7,2.5-0.7,3.2,0.3
		c0.5,0.8,0.5,2,0.4,3c-0.1,0.6-0.8,1.1-1.3,1.6c-6.7,7.1-13.3,14.2-20,21.3C372.5,152.7,372.1,153.2,371.6,153.8z M359.3,172.8
		c5.4,0.1,9.9-4.5,9.9-10c0-5.4-4.4-9.9-9.8-10c-5.4-0.1-10,4.3-10.1,9.8C349.2,168.2,353.8,172.8,359.3,172.8z"/>
	<path class="st0" d="M352.1,59.4c-8.4,5.9-16,5.9-21.8-0.1c-5.1-5.3-5.7-13.5-1.4-19.5c4.4-6,12.5-7.9,19.1-4.6
		c5.3,2.7,10.7,10,7,19.8c0.5,0.3,1.1,0.7,1.6,1c7.4,4.5,14.8,9,22.3,13.5c0.5,0.3,1,0.5,1.4,0.9c1.1,0.9,1.4,2,0.7,3.3
		c-0.7,1.2-1.8,1.5-3,1.1c-0.6-0.2-1.1-0.5-1.6-0.9C368.2,69.2,360.2,64.3,352.1,59.4z M341.1,58.6c5.5,0.1,10-4.4,10-9.9
		c0-5.4-4.4-9.9-9.7-10c-5.6-0.1-10.2,4.3-10.2,9.9C331.2,54.2,335.5,58.6,341.1,58.6z"/>
	<path class="st0" d="M496.8,61.8c0.4,0.4,1.5,0.9,1.7,1.6c0.3,0.8,0.1,2.4-0.5,2.8c-3.1,2.4-6.3,4.6-9.6,6.6
		c-0.6,0.4-2.3-0.1-2.8-0.7c-0.5-0.6-0.6-2.5-0.1-2.9c3.2-2.5,6.7-4.8,10.1-7.2C495.8,61.8,496.1,61.9,496.8,61.8z"/>
	<path class="st0" d="M497.5,117.7c0,2.4-2.1,3.7-3.8,2.7c-2.7-1.7-5.3-3.5-7.8-5.4c-1.2-0.9-1.4-2.2-0.5-3.5
		c0.9-1.2,2.2-1.5,3.4-0.7c2.5,1.7,5,3.4,7.5,5.2C497,116.5,497.3,117.4,497.5,117.7z"/>
	<path class="st0" d="M498.3,94.4c-1.4,0-2.9,0.1-4.3,0c-1.6-0.1-2.7-1.2-2.6-2.6c0.1-1.5,1-2.5,2.5-2.5c3-0.1,5.9-0.1,8.9,0
		c1.5,0.1,2.4,1,2.4,2.6c0,1.6-1,2.5-2.6,2.5C501.1,94.4,499.7,94.4,498.3,94.4z"/>
	<path class="st0" d="M397.9,103.2c-1.1,0-2.1,0-3.2,0c-1.7-0.1-2.8-1.2-2.7-2.7c0.1-1.6,1.1-2.5,2.7-2.5c2.2,0,4.3-0.1,6.5,0
		c1.6,0,2.6,0.9,2.6,2.5c0,1.6-1,2.5-2.5,2.6C400.1,103.3,399,103.2,397.9,103.2C397.9,103.2,397.9,103.2,397.9,103.2z"/>
	<path class="st0" d="M397.8,94.3c-1.1,0-2.2,0-3.3,0c-1.5-0.1-2.4-1-2.5-2.5c-0.1-1.4,0.8-2.5,2.2-2.6c2.5-0.2,5-0.2,7.4,0
		c1.5,0.1,2.3,1.2,2.2,2.7c-0.1,1.4-1,2.2-2.4,2.3C400.2,94.4,399,94.3,397.8,94.3z"/>
	<path class="st0" d="M398,80.4c1.1,0,2.2-0.1,3.3,0c1.5,0.1,2.4,0.9,2.4,2.5c0,1.5-0.8,2.5-2.4,2.5c-2.3,0.1-4.7,0.1-7.1,0
		c-1.5-0.1-2.4-1.1-2.4-2.6c0-1.5,0.9-2.4,2.5-2.5C395.6,80.4,396.8,80.4,398,80.4z"/>
</g>
<g>
	<path class="st0" d="M191.4,130.5c0,2.2,0,4.5,0,6.7c-0.1,0.4-0.3,0.8-0.3,1.2c-2.4,13.9-10.4,23-23.9,27.1c-2.8,0.8-5.7,1-8.9,1.6
		c0,1.8,0,3.7,0,5.7c-0.3,9.9-7.2,16.8-17.1,16.8c-26.3,0-52.5,0-78.8,0c-9.9,0-16.9-7.1-17-17.1c0-1.9,0-3.7,0-5.6
		c-19.4,1.2-34.2-14.5-34.9-31.3c-0.3-8.2,1.9-15.6,7.1-22c7.1-8.8,16.4-12.8,27.7-12.5c0-2,0-3.7,0-5.5c-1.8-0.2-3.4-0.2-5-0.5
		C21.6,91.9,9.8,75.1,13,56.5c0.8-4.3,2.4-8.3,4.9-12c0.9-1.4,2.5-1.7,3.7-0.9c1.2,0.8,1.5,2.2,0.8,3.6c-0.2,0.4-0.4,0.7-0.6,1.1
		c-11,18,1.5,41.2,22.5,42c12,0.4,23-7.1,27-18.4c4-11.4,0.2-24.1-9.4-31.3c-9-6.7-20.9-7.4-30.7-1.7c-2.1,1.2-3.6,1.1-4.5-0.3
		c-0.9-1.5-0.3-2.9,1.9-4.2c3.7-2.2,7.6-3.6,11.9-4.2c1.7-0.2,3.3-0.4,5-0.5c0.1-1.7,0-3.2,0.3-4.7c1.4-8.5,8.1-14.2,16.9-14.2
		c15.6,0,31.2,0,46.8,0c11,0,22-0.1,33,0.1c8.6,0.1,15.3,6.9,15.9,15.4c0.1,1.2,0.1,2.3,0.2,3.5c0.6,0,1,0.1,1.4,0.1
		c14.8,0.6,27.3,10.9,30.7,25.4c0.3,1.3,0.6,2.6,0.8,3.9c0,2.2,0,4.5,0,6.7c-0.1,0.4-0.3,0.8-0.3,1.2c-2,13.7-11.8,24.4-25.3,27.5
		c-2.4,0.5-4.8,0.7-7.3,1.1c0,1.8,0,3.5,0,5.3c0.6,0.1,1,0.1,1.5,0.1c14.9,0.7,27.3,11,30.6,25.5
		C190.9,127.9,191.1,129.2,191.4,130.5z M130.4,26.4c-0.1,0.4-0.2,0.7-0.2,1c-0.9,4.3-3.5,6.5-7.9,6.5c-13.6,0-27.2,0-40.8,0
		c-4.3,0-7-2.2-7.8-6.4c-0.2-0.9-0.5-1.2-1.4-1.2c-2.8,0-5.5,0-8.3,0c-1.8,0-2.8,1-2.9,2.9c-0.1,1.1-0.2,2.3,0,3.3
		c0.1,0.7,0.6,1.5,1.1,1.9C83.4,48,83.4,77.2,62.2,90.8c-0.5,0.4-1,1.3-1,1.9c-0.1,4.1-0.1,8.2,0,12.4c0,0.7,0.5,1.6,1,2
		c18.7,13.8,18.7,40.1,0,53.8c-0.5,0.4-1,1.3-1,2c-0.1,2.3-0.1,4.7,0,7.1c0,3.3,0.7,4.1,4,4.1c14.9,0,29.8,0,44.7,0
		c9.8,0,19.5,0,29.3,0c2.5,0,3.4-0.9,3.4-3.4c0-2.2-0.1-4.4,0-6.5c0-1-0.3-1.6-1.2-2.1c-4.5-2.7-8.1-6.3-10.8-10.7
		c-4.8-7.8-6.1-16.2-4-25.1c0.5-1.9,1.7-2.7,3.3-2.3c1.5,0.4,2.1,1.6,1.8,3.5c0,0.2-0.1,0.5-0.1,0.7c-0.1,3.4-0.7,6.8-0.2,10.2
		c2.1,15.6,17.3,26,33,22.8c15.2-3.1,25-19,20.8-34.1c-3-10.6-10-17.4-20.7-19.8c-10.8-2.4-20,0.9-27.2,9.3c-1.6,1.9-3,2.2-4.3,1.1
		c-1.3-1.1-1.3-2.8,0.4-4.4c2.6-2.5,5.4-4.9,8.2-7.1c0.8-0.6,1.2-1.1,1.2-2.1c-0.1-3.5-0.1-6.9,0-10.4c0.1-1.5-0.4-2.3-1.7-3.1
		c-19.7-12.3-20.5-41-1.5-54.3c2.5-1.8,3.6-3.5,3.1-6.4c0-0.2,0-0.4,0-0.5c-0.1-1.6-1-2.6-2.5-2.7C136.9,26.3,133.6,26.4,130.4,26.4
		z M186.1,62.6c0-15.3-12.4-27.6-27.7-27.5c-15.3,0.1-27.5,12.4-27.5,27.7c0,15.1,12.4,27.5,27.6,27.5
		C173.7,90.2,186.1,77.8,186.1,62.6z M43.3,106.3c-15.3,0.1-27.5,12.4-27.5,27.7c0,15.2,12.5,27.6,27.7,27.5
		C59,161.5,71,149.3,71,133.7C70.9,118.6,58.5,106.3,43.3,106.3z M153,30.2c1.2-8.7-4.8-14.4-12.5-14.3c-15.1,0.2-30.2,0.1-45.4,0.1
		c-10.9,0-21.8,0-32.6,0c-7.8,0-13.1,6.6-11.5,14.3c1.6,0.4,3.1,0.8,4.9,1.2c0.1-0.7,0.1-1.2,0.1-1.7c0.1-5.5,3.2-8.5,8.8-8.6
		c2.7,0,5.4,0,8.1,0c3.6,0.1,5.5,1.7,6,5.2c0.2,1.6,1.1,2.4,2.7,2.4c13.6,0,27.2,0,40.8,0c1.7,0,2.6-0.7,2.7-2.5
		c0.3-2.9,2.3-4.9,5.2-5c3.4-0.1,6.8-0.2,10.2,0c4.5,0.3,7.4,3.6,7.5,8.1c0,0.7,0,1.4,0,2.1C149.7,31,151.3,30.6,153,30.2z
		 M50.9,166c0,3.1-0.3,6.1,0.1,9c0.7,5.5,5.6,9.3,11.5,9.3c26.3,0,52.6,0,78.9,0c0.4,0,0.8,0,1.2-0.1c4.9-0.4,9.1-3.7,10-8.5
		c0.6-3.1,0.4-6.3,0.6-9.4c-2-0.5-3.6-0.9-5.4-1.3c0,1.9,0,3.6,0,5.3c0,5.5-3.2,8.8-8.8,8.8c-24.8,0-49.6,0-74.3,0
		c-5.7,0-8.8-3.2-8.8-8.9c0-1.9,0-3.8,0-5.9C54.1,165,52.5,165.5,50.9,166z M55.8,93.8c-1.8,0.4-3.4,0.9-5,1.3c0,2.3,0,4.5,0,6.8
		c1.7,0.5,3.3,1,5,1.5C55.8,100.1,55.8,97,55.8,93.8z M148,93.8c0,3,0,5.9,0,8.9c1.8-0.4,3.4-0.8,5.1-1.3c0-1.9,0-3.7,0-5.5
		c0-0.4-0.4-1-0.8-1.1C150.9,94.5,149.5,94.2,148,93.8z"/>
	<path class="st0" d="M63.6,62.6c0,3.4,0,6.8,0,10.2c-0.1,4.7-3.1,8-7.8,8.1c-7.1,0.2-14.1,0.2-21.2,0c-4.6-0.1-7.7-3.4-7.7-8
		c-0.1-6.9-0.1-13.8,0-20.6c0.1-4.8,3.4-8,8.2-8c6.7,0,13.4,0,20.1,0c5.2,0,8.3,3.2,8.3,8.4C63.6,56,63.6,59.3,63.6,62.6z
		 M45.3,49.5c-3.3,0-6.6,0-9.9,0c-2.4,0-3.3,0.9-3.3,3.3c0,6.5,0,13.1,0,19.6c0,2.4,1,3.3,3.4,3.3c6.5,0,13.1,0,19.6,0
		c2.3,0,3.3-0.9,3.3-3.2c0-6.6,0-13.3,0-19.9c0-2.2-0.9-3.1-3.1-3.1C51.9,49.5,48.6,49.5,45.3,49.5z"/>
	<path class="st0" d="M101.9,76.5c10.3,0,19.2,6.5,22.5,16.2c3.3,9.7-0.1,20.3-8.4,26.6c-8.1,6.1-19.1,6.3-27.5,0.5
		c-0.9-0.6-1.6-0.8-2.6-0.4c-1.4,0.6-2.8,1-4.1,1.5c-1.5,0.5-2.9,0.2-4.1-0.9c-1.2-1.2-1.5-2.6-1.1-4.2c0.1-0.3,0.2-0.7,0.3-1
		c1.4-3.8,2.1-7.4,1.6-11.7C76.7,88.6,87.7,76.5,101.9,76.5z M82.3,114.6c0.2,0.1,0.3,0.2,0.5,0.2c0.6-0.2,1.2-0.3,1.8-0.6
		c2.3-1.1,4.4-0.6,6.4,0.8c6.3,4.5,14.3,4.8,20.7,0.7c6.5-4.1,9.7-11.5,8.3-19.2c-1.7-9.5-11-16.1-20.8-14.7
		c-9.7,1.4-17.1,10.6-15.6,20.1C84.3,106.4,84.9,110.5,82.3,114.6z"/>
	<path class="st0" d="M148.5,134.2c0-3.4,0-6.7,0-10.1c0-3.6,2.8-5.2,5.9-3.4c5.9,3.4,11.7,6.7,17.5,10.1c3,1.7,2.9,5,0,6.7
		c-5.8,3.4-11.7,6.8-17.5,10.1c-3,1.7-5.8,0.1-5.8-3.3C148.5,141.1,148.5,137.7,148.5,134.2z M167.3,134.3
		c-4.6-2.6-8.9-5.2-13.5-7.8c0,5.3,0,10.3,0,15.5C158.4,139.4,162.7,136.9,167.3,134.3z"/>
	<path class="st0" d="M153.6,64.4c-1.5,0-2.7,0-3.9,0c-1.8-0.1-2.9-1.1-2.9-2.7c0-1.6,1.1-2.5,2.9-2.6c1.2,0,2.4,0,3.9,0
		c0-2.4,0-4.7,0-7c0-5.3,3.3-8.5,8.6-8.6c1.8,0,3.5,0,5.3,0c1.7,0,2.8,1,2.8,2.5c0,1.6-1,2.7-2.8,2.7c-1.9,0.1-3.8,0-5.6,0
		c-2,0-2.9,1-2.9,2.9c0,2.3,0,4.7,0,7.3c1.3,0,2.5,0,3.7,0c2,0,3.1,1,3.1,2.6c0,1.6-1.1,2.6-3.1,2.6c-1.2,0-2.3,0-3.7,0
		c0,2,0,3.8,0,5.6c0,3.5,0,7.1,0,10.6c0,1.9-1,3.1-2.7,3.1c-1.6,0-2.6-1.1-2.6-3.1C153.6,75.3,153.6,70,153.6,64.4z"/>
	<path class="st0" d="M29.7,140.6c-3.1-2.7-5.2-5.8-5.4-9.7c-0.2-2.7,0-5.5,0.5-8.2c0.6-3.1,3.9-3.8,6.1-1.6
		c2.2,2.2,4.6,3.8,7.7,4.3c0.1-0.4,0.3-0.8,0.4-1.2c2-6.4,9-8.9,14.4-5c1.1,0.8,2.1,0.6,3.1,0.2c1.8-0.8,3.5-0.7,4.9,0.7
		c1.5,1.3,1.6,3,1,4.9c-0.4,1.3-0.7,2.7-1.4,3.8c-1.6,2.3-2.4,4.9-3.4,7.5c-3.3,8.9-10.2,13.2-19.3,14.1c-3.2,0.3-6.3,0.2-9.4-1
		c-1.8-0.7-3.1-1.9-3.5-3.9c-0.5-2.2,0.4-3.7,2.6-4.3C28.5,141,29,140.8,29.7,140.6z M57.1,124.9c-0.9,0.1-1.5,0.3-2,0.2
		c-1.3-0.2-2.9-0.3-4-1c-1.6-1.1-3-1.8-4.9-1c-1.9,0.8-2.4,2.4-2.4,4.3c-0.1,2.8-0.9,3.5-3.6,3.5c-0.8,0-1.7,0-2.4-0.3
		c-2.8-1-5.7-2-8.5-3.1c-0.4,2.9,0.4,5.7,2.7,8c1.1,1.1,2.6,1.8,3.8,2.8c0.8,0.7,1.9,1.7,1.9,2.6c0,0.9-1.1,1.9-1.8,2.7
		c-0.5,0.5-1.3,0.8-2.1,1.3c8.3,1.9,17.1-3.6,19.4-12c0.6-2.1,1.1-4,2.6-5.7C56.4,126.6,56.6,125.8,57.1,124.9z"/>
	<path class="st0" d="M101.9,24.9c-1.4,0-2.6-1.2-2.6-2.6c0-1.4,1.3-2.7,2.7-2.6c1.4,0.1,2.5,1.3,2.5,2.7
		C104.5,23.8,103.3,24.9,101.9,24.9z"/>
	<path class="st0" d="M45.2,70.5c-4.3,0-7.8-3.6-7.8-7.9c0-4.3,3.6-7.8,7.9-7.8c4.3,0,7.9,3.6,7.8,7.9C53.1,67,49.5,70.5,45.2,70.5z
		 M47.9,62.6c0-1.4-1.2-2.6-2.5-2.7c-1.4,0-2.6,1.1-2.7,2.5c-0.1,1.5,1.1,2.7,2.6,2.7C46.7,65.2,47.9,64,47.9,62.6z"/>
	<path class="st0" d="M103.7,107.7c-3.3-0.9-7-2.6-9.4-6.1c-1.8-2.6-1.4-7.1,0.7-9.7c0.8-1,1.9-1.4,3.1-0.8c1.3,0.6,1.7,1.7,1.4,3.1
		c-0.1,0.5-0.4,1-0.6,1.4c-0.9,2.2-0.5,3.3,1.5,4.6c0.8,0.5,1.5,0.9,2.3,1.4c2.1,1.2,3.2,1.1,4.7-0.7c0.3-0.4,0.5-0.8,0.9-1.1
		c1-1,2.2-1.2,3.4-0.5c1.2,0.8,1.4,2,0.9,3.3C111.4,105.4,107.4,107.9,103.7,107.7z"/>
</g>
</svg>
