<svg width="162" height="48" viewBox="0 0 162 48" fill="none" xmlns="http://www.w3.org/2000/svg">
<path d="M156 48H6C2.64 48 0 45.36 0 42V6C0 2.64 2.64 0 6 0H156C159.36 0 162 2.64 162 6V42C162 45.36 159.36 48 156 48Z" fill="black"/>
<path fill-rule="evenodd" clip-rule="evenodd" d="M6 0H156C159.36 0 162 2.76 162 6V42C162 45.36 159.36 48 156 48H6C2.64 48 0 45.36 0 42V6C0 2.76 2.64 0 6 0ZM161.04 6.00045C161.04 3.24045 158.76 0.960449 156 0.960449H6.00002C3.24002 0.960449 0.960022 3.24045 0.960022 6.00045V42.0005C0.960022 44.7605 3.24002 47.0405 6.00002 47.0405H156C158.76 47.0405 161.04 44.7605 161.04 42.0005V6.00045Z" fill="#A6A6A6"/>
<path fill-rule="evenodd" clip-rule="evenodd" d="M56.0402 14.6398C56.6402 14.0398 56.8802 13.1998 56.8802 12.2398V11.7598H53.4002V12.7198H56.0402C56.0402 13.3198 55.8002 13.7998 55.4402 14.1598C54.8402 14.7598 54.2402 14.9998 53.4002 14.9998C52.6802 14.9998 52.0802 14.6398 51.4802 14.1598C50.8802 13.6798 50.6402 12.9598 50.6402 12.1198C50.6402 11.2798 50.8802 10.5598 51.4802 10.0798C51.9602 9.47979 52.6802 9.23979 53.4002 9.23979C54.2402 9.23979 54.8402 9.47979 55.3202 10.0798L55.9202 9.47979C55.6802 9.11979 55.3202 8.87979 54.8402 8.63979C54.3602 8.39979 53.8802 8.27979 53.4002 8.27979C52.3202 8.27979 51.4802 8.63979 50.7602 9.35979C50.0402 10.0798 49.6802 10.9198 49.6802 11.9998C49.6802 13.0798 50.0402 13.9198 50.7602 14.6398C51.4802 15.3598 52.3202 15.7198 53.4002 15.7198C54.4802 15.7198 55.3202 15.3598 56.0402 14.6398ZM59.1603 9.23941H62.4003V8.39941H58.2003V15.5994H62.4003V14.6394H59.1603V12.3594H62.1603V11.5194H59.1603V9.23941ZM66.3602 15.5994H65.4002V9.23941H63.3602V8.39941H68.4002V9.23941H66.3602V15.5994ZM71.8803 8.39941V15.5994H72.8403V8.39941H71.8803ZM76.8 15.5994H75.96V9.23941H73.92V8.39941H78.84V9.23941H76.8V15.5994ZM85.6803 15.7198C86.7603 15.7198 87.6003 15.3598 88.3203 14.6398C89.0403 13.9198 89.4003 13.0798 89.4003 11.9998C89.4003 10.9198 89.0403 10.0798 88.3203 9.35979C87.6003 8.63979 86.7603 8.27979 85.6803 8.27979C84.6003 8.27979 83.7603 8.63979 83.0403 9.35979C82.3203 10.0798 81.9603 10.9198 81.9603 11.9998C81.9603 13.0798 82.3203 13.9198 83.0403 14.6398C83.7603 15.3598 84.6003 15.7198 85.6803 15.7198ZM83.7603 14.0406C84.2403 14.5206 84.9604 14.8806 85.6803 14.8806C86.4003 14.8806 87.1203 14.6406 87.6003 14.0406C88.0803 13.5606 88.4403 12.8406 88.4403 12.0006C88.4403 11.1606 88.2003 10.4406 87.6003 9.96061C87.1203 9.48061 86.4003 9.12061 85.6803 9.12061C84.9604 9.12061 84.2403 9.36061 83.7603 9.96061C83.2803 10.4406 82.9203 11.1606 82.9203 12.0006C82.9203 12.8406 83.1604 13.5606 83.7603 14.0406ZM90.7202 8.39941V15.5994H91.5602V9.71941L95.2802 15.5994H96.2402V8.39941H95.2802V14.0394L91.8002 8.39941H90.7202Z" fill="white"/>
<path d="M56.0402 14.6398L55.9164 14.516L56.0402 14.6398ZM56.8802 11.7598H57.0552V11.5848H56.8802V11.7598ZM53.4002 11.7598V11.5848H53.2252V11.7598H53.4002ZM53.4002 12.7198H53.2252V12.8948H53.4002V12.7198ZM56.0402 12.7198H56.2152V12.5448H56.0402V12.7198ZM51.4802 14.1598L51.3709 14.2964L51.4802 14.1598ZM51.4802 10.0798L51.5895 10.2164L51.6047 10.2043L51.6168 10.1891L51.4802 10.0798ZM55.3202 10.0798L55.1835 10.1891L55.3057 10.3418L55.4439 10.2035L55.3202 10.0798ZM55.9202 9.47979L56.0439 9.60353L56.1454 9.50208L56.0658 9.38271L55.9202 9.47979ZM54.8402 8.63979L54.9184 8.48326L54.8402 8.63979ZM50.7602 9.35979L50.6364 9.23604L50.6364 9.23604L50.7602 9.35979ZM50.7602 14.6398L50.6364 14.7635L50.7602 14.6398ZM62.4003 9.23941V9.41441H62.5753V9.23941H62.4003ZM59.1603 9.23941V9.06441H58.9853V9.23941H59.1603ZM62.4003 8.39941H62.5753V8.22441H62.4003V8.39941ZM58.2003 8.39941V8.22441H58.0253V8.39941H58.2003ZM58.2003 15.5994H58.0253V15.7744H58.2003V15.5994ZM62.4003 15.5994V15.7744H62.5753V15.5994H62.4003ZM62.4003 14.6394H62.5753V14.4644H62.4003V14.6394ZM59.1603 14.6394H58.9853V14.8144H59.1603V14.6394ZM59.1603 12.3594V12.1844H58.9853V12.3594H59.1603ZM62.1603 12.3594V12.5344H62.3353V12.3594H62.1603ZM62.1603 11.5194H62.3353V11.3444H62.1603V11.5194ZM59.1603 11.5194H58.9853V11.6944H59.1603V11.5194ZM65.4002 15.5994H65.2252V15.7744H65.4002V15.5994ZM66.3602 15.5994V15.7744H66.5352V15.5994H66.3602ZM65.4002 9.23941H65.5752V9.06441H65.4002V9.23941ZM63.3602 9.23941H63.1852V9.41441H63.3602V9.23941ZM63.3602 8.39941V8.22441H63.1852V8.39941H63.3602ZM68.4002 8.39941H68.5752V8.22441H68.4002V8.39941ZM68.4002 9.23941V9.41441H68.5752V9.23941H68.4002ZM66.3602 9.23941V9.06441H66.1852V9.23941H66.3602ZM71.8803 15.5994H71.7053V15.7744H71.8803V15.5994ZM71.8803 8.39941V8.22441H71.7053V8.39941H71.8803ZM72.8403 15.5994V15.7744H73.0153V15.5994H72.8403ZM72.8403 8.39941H73.0153V8.22441H72.8403V8.39941ZM75.96 15.5994H75.785V15.7744H75.96V15.5994ZM76.8 15.5994V15.7744H76.975V15.5994H76.8ZM75.96 9.23941H76.135V9.06441H75.96V9.23941ZM73.92 9.23941H73.745V9.41441H73.92V9.23941ZM73.92 8.39941V8.22441H73.745V8.39941H73.92ZM78.84 8.39941H79.015V8.22441H78.84V8.39941ZM78.84 9.23941V9.41441H79.015V9.23941H78.84ZM76.8 9.23941V9.06441H76.625V9.23941H76.8ZM88.3203 9.35979L88.4441 9.23604L88.3203 9.35979ZM83.0403 9.35979L82.9166 9.23604V9.23604L83.0403 9.35979ZM83.0403 14.6398L82.9166 14.7635L83.0403 14.6398ZM83.7603 14.0406L83.8841 13.9169L83.8772 13.91L83.8697 13.904L83.7603 14.0406ZM87.6003 14.0406L87.4766 13.9169L87.4698 13.9237L87.4637 13.9313L87.6003 14.0406ZM87.6003 9.96061L87.4766 10.0843L87.4835 10.0912L87.491 10.0973L87.6003 9.96061ZM83.7603 9.96061L83.8841 10.0843L83.8909 10.0775L83.897 10.0699L83.7603 9.96061ZM90.7202 15.5994H90.5452V15.7744H90.7202V15.5994ZM90.7202 8.39941V8.22441H90.5452V8.39941H90.7202ZM91.5602 15.5994V15.7744H91.7352V15.5994H91.5602ZM91.5602 9.71941L91.708 9.62585L91.3852 9.11548V9.71941H91.5602ZM95.2802 15.5994L95.1323 15.693L95.1838 15.7744H95.2802V15.5994ZM96.2402 15.5994V15.7744H96.4152V15.5994H96.2402ZM96.2402 8.39941H96.4152V8.22441H96.2402V8.39941ZM95.2802 8.39941V8.22441H95.1052V8.39941H95.2802ZM95.2802 14.0394L95.1312 14.1313L95.4552 14.6563V14.0394H95.2802ZM91.8002 8.39941L91.9491 8.30752L91.8978 8.22441H91.8002V8.39941ZM56.7052 12.2398C56.7052 13.1728 56.472 13.9604 55.9164 14.516L56.1639 14.7635C56.8083 14.1191 57.0552 13.2268 57.0552 12.2398H56.7052ZM56.7052 11.7598V12.2398H57.0552V11.7598H56.7052ZM53.4002 11.9348H56.8802V11.5848H53.4002V11.9348ZM53.5752 12.7198V11.7598H53.2252V12.7198H53.5752ZM56.0402 12.5448H53.4002V12.8948H56.0402V12.5448ZM55.5639 14.2835C55.9531 13.8943 56.2152 13.3711 56.2152 12.7198H55.8652C55.8652 13.2685 55.6472 13.7053 55.3164 14.036L55.5639 14.2835ZM53.4002 15.1748C53.8373 15.1748 54.2208 15.1123 54.5764 14.9668C54.9322 14.8212 55.2511 14.5963 55.5639 14.2835L55.3164 14.036C55.0292 14.3233 54.7481 14.5184 54.4439 14.6428C54.1396 14.7673 53.8031 14.8248 53.4002 14.8248V15.1748ZM51.3709 14.2964C51.9781 14.7822 52.6181 15.1748 53.4002 15.1748V14.8248C52.7423 14.8248 52.1822 14.4973 51.5895 14.0231L51.3709 14.2964ZM50.4652 12.1198C50.4652 12.992 50.7154 13.7721 51.3709 14.2964L51.5895 14.0231C51.045 13.5875 50.8152 12.9275 50.8152 12.1198H50.4652ZM51.3709 9.94313C50.7154 10.4675 50.4652 11.2475 50.4652 12.1198H50.8152C50.8152 11.312 51.045 10.6521 51.5895 10.2164L51.3709 9.94313ZM53.4002 9.06479C52.6434 9.06479 51.8658 9.31764 51.3435 9.97046L51.6168 10.1891C52.0546 9.64193 52.7169 9.41479 53.4002 9.41479V9.06479ZM55.4568 9.97046C54.937 9.32062 54.2817 9.06479 53.4002 9.06479V9.41479C54.1987 9.41479 54.7434 9.63895 55.1835 10.1891L55.4568 9.97046ZM55.7964 9.35604L55.1964 9.95604L55.4439 10.2035L56.0439 9.60353L55.7964 9.35604ZM54.7619 8.79631C55.2345 9.03258 55.5605 9.25579 55.7746 9.57686L56.0658 9.38271C55.7998 8.98378 55.4059 8.72699 54.9184 8.48326L54.7619 8.79631ZM53.4002 8.45479C53.8499 8.45479 54.3033 8.56701 54.7619 8.79631L54.9184 8.48326C54.417 8.23256 53.9104 8.10479 53.4002 8.10479V8.45479ZM50.8839 9.48353C51.571 8.79641 52.3665 8.45479 53.4002 8.45479V8.10479C52.2739 8.10479 51.3893 8.48316 50.6364 9.23604L50.8839 9.48353ZM49.8552 11.9998C49.8552 10.9661 50.1968 10.1706 50.8839 9.48353L50.6364 9.23604C49.8835 9.98892 49.5052 10.8735 49.5052 11.9998H49.8552ZM50.8839 14.516C50.1968 13.8289 49.8552 13.0335 49.8552 11.9998H49.5052C49.5052 13.1261 49.8835 14.0106 50.6364 14.7635L50.8839 14.516ZM53.4002 15.5448C52.3665 15.5448 51.571 15.2032 50.8839 14.516L50.6364 14.7635C51.3893 15.5164 52.2739 15.8948 53.4002 15.8948V15.5448ZM55.9164 14.516C55.2293 15.2032 54.4339 15.5448 53.4002 15.5448V15.8948C54.5265 15.8948 55.411 15.5164 56.1639 14.7635L55.9164 14.516ZM62.4003 9.06441H59.1603V9.41441H62.4003V9.06441ZM62.2253 8.39941V9.23941H62.5753V8.39941H62.2253ZM58.2003 8.57441H62.4003V8.22441H58.2003V8.57441ZM58.3753 15.5994V8.39941H58.0253V15.5994H58.3753ZM62.4003 15.4244H58.2003V15.7744H62.4003V15.4244ZM62.2253 14.6394V15.5994H62.5753V14.6394H62.2253ZM59.1603 14.8144H62.4003V14.4644H59.1603V14.8144ZM58.9853 12.3594V14.6394H59.3353V12.3594H58.9853ZM62.1603 12.1844H59.1603V12.5344H62.1603V12.1844ZM61.9853 11.5194V12.3594H62.3353V11.5194H61.9853ZM59.1603 11.6944H62.1603V11.3444H59.1603V11.6944ZM58.9853 9.23941V11.5194H59.3353V9.23941H58.9853ZM65.4002 15.7744H66.3602V15.4244H65.4002V15.7744ZM65.2252 9.23941V15.5994H65.5752V9.23941H65.2252ZM63.3602 9.41441H65.4002V9.06441H63.3602V9.41441ZM63.1852 8.39941V9.23941H63.5352V8.39941H63.1852ZM68.4002 8.22441H63.3602V8.57441H68.4002V8.22441ZM68.5752 9.23941V8.39941H68.2252V9.23941H68.5752ZM66.3602 9.41441H68.4002V9.06441H66.3602V9.41441ZM66.5352 15.5994V9.23941H66.1852V15.5994H66.5352ZM72.0553 15.5994V8.39941H71.7053V15.5994H72.0553ZM72.8403 15.4244H71.8803V15.7744H72.8403V15.4244ZM72.6653 8.39941V15.5994H73.0153V8.39941H72.6653ZM71.8803 8.57441H72.8403V8.22441H71.8803V8.57441ZM75.96 15.7744H76.8V15.4244H75.96V15.7744ZM75.785 9.23941V15.5994H76.135V9.23941H75.785ZM73.92 9.41441H75.96V9.06441H73.92V9.41441ZM73.745 8.39941V9.23941H74.095V8.39941H73.745ZM78.84 8.22441H73.92V8.57441H78.84V8.22441ZM79.015 9.23941V8.39941H78.665V9.23941H79.015ZM76.8 9.41441H78.84V9.06441H76.8V9.41441ZM76.975 15.5994V9.23941H76.625V15.5994H76.975ZM88.1966 14.516C87.5095 15.2032 86.714 15.5448 85.6803 15.5448V15.8948C86.8066 15.8948 87.6912 15.5164 88.4441 14.7635L88.1966 14.516ZM89.2253 11.9998C89.2253 13.0335 88.8837 13.8289 88.1966 14.516L88.4441 14.7635C89.197 14.0106 89.5753 13.1261 89.5753 11.9998H89.2253ZM88.1966 9.48353C88.8837 10.1706 89.2253 10.9661 89.2253 11.9998H89.5753C89.5753 10.8735 89.197 9.98892 88.4441 9.23604L88.1966 9.48353ZM85.6803 8.45479C86.714 8.45479 87.5095 8.79641 88.1966 9.48353L88.4441 9.23604C87.6912 8.48316 86.8066 8.10479 85.6803 8.10479V8.45479ZM83.1641 9.48353C83.8512 8.79641 84.6466 8.45479 85.6803 8.45479V8.10479C84.554 8.10479 83.6695 8.48316 82.9166 9.23604L83.1641 9.48353ZM82.1353 11.9998C82.1353 10.9661 82.477 10.1706 83.1641 9.48353L82.9166 9.23604C82.1637 9.98892 81.7853 10.8735 81.7853 11.9998H82.1353ZM83.1641 14.516C82.477 13.8289 82.1353 13.0335 82.1353 11.9998H81.7853C81.7853 13.1261 82.1637 14.0106 82.9166 14.7635L83.1641 14.516ZM85.6803 15.5448C84.6466 15.5448 83.8512 15.2032 83.1641 14.516L82.9166 14.7635C83.6695 15.5164 84.554 15.8948 85.6803 15.8948V15.5448ZM85.6803 14.7056C85.015 14.7056 84.3376 14.3703 83.8841 13.9169L83.6366 14.1643C84.1431 14.6709 84.9057 15.0556 85.6803 15.0556V14.7056ZM87.4637 13.9313C87.026 14.4785 86.3636 14.7056 85.6803 14.7056V15.0556C86.4371 15.0556 87.2147 14.8028 87.737 14.1499L87.4637 13.9313ZM88.2654 12.0006C88.2654 12.7899 87.927 13.4665 87.4766 13.9169L87.7241 14.1643C88.2337 13.6547 88.6153 12.8913 88.6153 12.0006H88.2654ZM87.491 10.0973C88.0355 10.5329 88.2654 11.1928 88.2654 12.0006H88.6153C88.6153 11.1284 88.3652 10.3483 87.7097 9.82395L87.491 10.0973ZM85.6803 9.29561C86.3457 9.29561 87.0231 9.63086 87.4766 10.0843L87.7241 9.83686C87.2176 9.33035 86.455 8.94561 85.6803 8.94561V9.29561ZM83.897 10.0699C84.3347 9.52275 84.9971 9.29561 85.6803 9.29561V8.94561C84.9236 8.94561 84.146 9.19846 83.6237 9.85128L83.897 10.0699ZM83.0953 12.0006C83.0953 11.2113 83.4337 10.5347 83.8841 10.0843L83.6366 9.83686C83.127 10.3465 82.7453 11.1099 82.7453 12.0006H83.0953ZM83.8697 13.904C83.3252 13.4683 83.0953 12.8084 83.0953 12.0006H82.7453C82.7453 12.8728 82.9955 13.6529 83.651 14.1773L83.8697 13.904ZM90.8952 15.5994V8.39941H90.5452V15.5994H90.8952ZM91.5602 15.4244H90.7202V15.7744H91.5602V15.4244ZM91.3852 9.71941V15.5994H91.7352V9.71941H91.3852ZM95.428 15.5059L91.708 9.62585L91.4123 9.81298L95.1323 15.693L95.428 15.5059ZM96.2402 15.4244H95.2802V15.7744H96.2402V15.4244ZM96.0652 8.39941V15.5994H96.4152V8.39941H96.0652ZM95.2802 8.57441H96.2402V8.22441H95.2802V8.57441ZM95.4552 14.0394V8.39941H95.1052V14.0394H95.4552ZM91.6512 8.49131L95.1312 14.1313L95.4291 13.9475L91.9491 8.30752L91.6512 8.49131ZM90.7202 8.57441H91.8002V8.22441H90.7202V8.57441Z" fill="white"/>
<path fill-rule="evenodd" clip-rule="evenodd" d="M57.2398 27.72V29.88H62.3998C62.2798 31.08 61.7998 32.04 61.1998 32.64C60.4798 33.36 59.2798 34.2 57.2398 34.2C53.9998 34.2 51.5998 31.68 51.5998 28.44C51.5998 25.2 54.1198 22.68 57.2398 22.68C58.9198 22.68 60.2398 23.4 61.1998 24.24L62.7598 22.68C61.4398 21.48 59.7598 20.52 57.3598 20.52C53.0398 20.52 49.3198 24.12 49.3198 28.44C49.3198 32.76 53.0398 36.36 57.3598 36.36C59.7598 36.36 61.4398 35.64 62.8798 34.08C64.3198 32.64 64.7998 30.6 64.7998 29.04C64.7998 28.56 64.7998 28.08 64.6798 27.72H57.2398ZM70.5597 26.1597C67.6797 26.1597 65.3997 28.3197 65.3997 31.3197C65.3997 34.1997 67.6797 36.4797 70.5597 36.4797C73.4397 36.4797 75.7197 34.3197 75.7197 31.3197C75.7197 28.1997 73.4397 26.1597 70.5597 26.1597ZM76.5598 31.3197C76.5598 28.3197 78.8398 26.1597 81.7198 26.1597C84.5998 26.1597 86.8798 28.1997 86.8798 31.3197C86.8798 34.3197 84.5998 36.4797 81.7198 36.4797C78.8398 36.4797 76.5598 34.1997 76.5598 31.3197ZM78.84 31.2006C78.84 33.0006 80.16 34.3206 81.72 34.3206C83.28 34.3206 84.6 33.0006 84.6 31.2006C84.6 29.2806 83.28 28.0806 81.72 28.0806C80.16 28.0806 78.84 29.4006 78.84 31.2006ZM67.6799 31.2006C67.6799 33.0006 68.9999 34.3206 70.5599 34.3206C72.1199 34.3206 73.4399 33.0006 73.4399 31.2006C73.4399 29.2806 72.1199 28.0806 70.5599 28.0806C68.9999 28.0806 67.6799 29.4006 67.6799 31.2006ZM107.4 26.1597C110.04 26.1597 111.24 28.1997 111.72 29.3997L111.96 29.9997L105.12 32.8797C105.72 33.9597 106.44 34.4397 107.64 34.4397C108.84 34.4397 109.56 33.8397 110.16 32.9997L111.84 34.1997C111.36 35.0397 109.92 36.4797 107.64 36.4797C104.76 36.4797 102.6 34.1997 102.6 31.3197C102.6 28.1997 104.76 26.1597 107.4 26.1597ZM104.76 31.0806C104.76 29.1606 106.32 28.0806 107.4 28.0806C108.24 28.0806 109.08 28.5606 109.32 29.1606L104.76 31.0806ZM101.4 36.0002H99.1196V21.0002H101.4V36.0002ZM95.5199 27.24C94.9199 26.64 93.9599 26.04 92.7599 26.04C90.2399 26.04 87.8399 28.32 87.8399 31.2C87.8399 34.08 90.1199 36.24 92.7599 36.24C93.9599 36.24 94.9199 35.64 95.3999 35.04H95.5199V35.76C95.5199 37.68 94.4399 38.76 92.7599 38.76C91.4399 38.76 90.4799 37.8 90.2399 36.96L88.3199 37.8C88.9199 39.12 90.3599 40.8 92.8799 40.8C95.5199 40.8 97.6799 39.24 97.6799 35.52V26.4H95.5199V27.24ZM89.9996 31.2006C89.9996 33.0006 91.3196 34.3206 92.8796 34.3206C94.4396 34.3206 95.6396 33.0006 95.6396 31.2006C95.6396 29.4006 94.4396 28.0806 92.8796 28.0806C91.3196 28.0806 89.9996 29.4006 89.9996 31.2006ZM122.16 21.0002H116.76V36.0002H119.04V30.3602H122.16C124.68 30.3602 127.08 28.5602 127.08 25.6802C127.08 22.8002 124.68 21.0002 122.16 21.0002ZM119.04 28.2008H122.28C123.84 28.2008 124.8 26.8808 124.92 25.5608C124.92 24.4808 123.96 23.0408 122.28 23.0408H119.04V28.2008ZM136.08 26.04C134.4 26.04 132.72 26.76 132.12 28.32L134.16 29.16C134.64 28.32 135.36 28.08 136.2 28.08C137.4 28.08 138.48 28.8 138.6 30V30.12C138.24 29.88 137.28 29.52 136.32 29.52C134.16 29.52 132 30.72 132 32.88C132 34.92 133.8 36.24 135.72 36.24C137.28 36.24 138 35.52 138.6 34.8H138.72V36H140.88V30.24C140.64 27.6 138.6 26.04 136.08 26.04ZM134.04 33.0004C134.04 33.9604 135.12 34.3204 135.84 34.3204C137.04 34.3204 138.24 33.3604 138.48 31.9204C138.419 31.8962 138.36 31.8719 138.301 31.8479C137.778 31.6344 137.303 31.4404 136.44 31.4404C135.36 31.4404 134.04 31.8004 134.04 33.0004ZM148.44 26.4006L145.92 32.8806H145.8L143.16 26.4006H140.76L144.72 35.5206L142.44 40.5606H144.72L150.84 26.4006H148.44ZM130.56 36.0002H128.28V21.0002H130.56V36.0002Z" fill="white"/>
<path d="M12.48 9C12.12 9.36 12 9.96 12 10.68V37.2C12 37.92 12.24 38.52 12.6 38.88L12.72 39L27.6 24.12V23.88L12.48 9Z" fill="url(#paint0_linear_1066_942)"/>
<path d="M32.4 29.16L27.48 24.24V23.88L32.4 18.96L32.52 19.08L38.4 22.44C40.08 23.4 40.08 24.96 38.4 25.92L32.4 29.16Z" fill="url(#paint1_linear_1066_942)"/>
<path d="M32.5197 29.0395L27.4797 23.9995L12.4797 38.9995C13.0797 39.5995 13.9197 39.5995 14.9997 39.1195L32.5197 29.0395Z" fill="url(#paint2_linear_1066_942)"/>
<path d="M32.5197 18.9595L14.9997 8.99945C13.9197 8.39945 13.0797 8.51945 12.4797 9.11945L27.4797 23.9995L32.5197 18.9595Z" fill="url(#paint3_linear_1066_942)"/>
<path opacity="0.2" d="M32.3997 28.9199L14.9997 38.7599C14.0397 39.3599 13.1997 39.2399 12.5997 38.7599L12.4797 38.8799L12.5997 38.9999C13.1997 39.4799 14.0397 39.5999 14.9997 38.9999L32.3997 28.9199Z" fill="black"/>
<path opacity="0.12" fill-rule="evenodd" clip-rule="evenodd" d="M32.4001 28.92L38.4001 25.56C39.1201 25.08 39.6001 24.6 39.6001 24C39.6001 24.6 39.2401 25.2 38.4001 25.68L32.5201 29.04L32.4001 28.92ZM12.0217 37.569C12.0701 38.0705 12.205 38.4856 12.48 38.7606H12.4917C12.5264 38.8031 12.5626 38.8431 12.6 38.8806V38.7606H12.4917C12.2514 38.4664 12.0798 38.0542 12.0217 37.569ZM12.0217 37.569C12.0067 37.4139 12 37.2506 12 37.0806V37.2006C12 37.3273 12.0074 37.4503 12.0217 37.569Z" fill="black"/>
<path opacity="0.25" d="M15 9.12101L38.4 22.441C39.12 22.921 39.6 23.401 39.6 24.001C39.6 23.401 39.24 22.801 38.4 22.321L15 9.00101C13.32 8.04101 12 8.76101 12 10.681V10.801C12 9.00101 13.32 8.16101 15 9.12101Z" fill="white"/>
<defs>
<linearGradient id="paint0_linear_1066_942" x1="20.924" y1="-8.913" x2="-2.91768" y2="-2.46659" gradientUnits="userSpaceOnUse">
<stop stop-color="#00A0FF"/>
<stop offset="0.007" stop-color="#00A1FF"/>
<stop offset="0.26" stop-color="#00BEFF"/>
<stop offset="0.512" stop-color="#00D2FF"/>
<stop offset="0.76" stop-color="#00DFFF"/>
<stop offset="1" stop-color="#00E3FF"/>
</linearGradient>
<linearGradient id="paint1_linear_1066_942" x1="40.6008" y1="11.8431" x2="11.5644" y2="11.8431" gradientUnits="userSpaceOnUse">
<stop stop-color="#FFE000"/>
<stop offset="0.409" stop-color="#FFBD00"/>
<stop offset="0.775" stop-color="#FFA500"/>
<stop offset="1" stop-color="#FF9C00"/>
</linearGradient>
<linearGradient id="paint2_linear_1066_942" x1="12.0993" y1="16.2164" x2="-7.05895" y2="48.3811" gradientUnits="userSpaceOnUse">
<stop stop-color="#FF3A44"/>
<stop offset="1" stop-color="#C31162"/>
</linearGradient>
<linearGradient id="paint3_linear_1066_942" x1="0.818227" y1="4.8949" x2="9.30613" y2="19.2785" gradientUnits="userSpaceOnUse">
<stop stop-color="#32A071"/>
<stop offset="0.069" stop-color="#2DA771"/>
<stop offset="0.476" stop-color="#15CF74"/>
<stop offset="0.801" stop-color="#06E775"/>
<stop offset="1" stop-color="#00F076"/>
</linearGradient>
</defs>
</svg>
