<svg width="144" height="48" viewBox="0 0 144 48" fill="none" xmlns="http://www.w3.org/2000/svg">
<path d="M132.162 0.000156H11.4416C11.0016 0.000156 10.5668 0.000156 10.1279 0.002556C9.76056 0.004956 9.39611 0.011928 9.0252 0.017796C8.21942 0.0272782 7.41553 0.0981675 6.62052 0.229848C5.82663 0.364395 5.05761 0.618055 4.33946 0.982248C3.6222 1.34952 2.96681 1.82676 2.39708 2.39664C1.82436 2.96492 1.34696 3.62178 0.98322 4.34195C0.61848 5.06069 0.365569 5.83088 0.23322 6.62593C0.0996131 7.41998 0.0277181 8.22318 0.01818 9.02833C0.007044 9.39625 0.005868 9.7654 0 10.1334V37.8705C0.005868 38.2431 0.007044 38.604 0.01818 38.9768C0.027721 39.7819 0.0996161 40.585 0.23322 41.379C0.365203 42.1745 0.61813 42.9452 0.98322 43.6642C1.34679 44.382 1.82426 45.0362 2.39708 45.6014C2.96465 46.1738 3.62046 46.6513 4.33946 47.0158C5.0576 47.381 5.82654 47.6361 6.62052 47.7728C7.41566 47.9034 8.21947 47.9743 9.0252 47.9849C9.39611 47.9931 9.76056 47.9978 10.1279 47.9978C10.5668 48.0002 11.0016 48.0002 11.4416 48.0002H132.162C132.593 48.0002 133.031 48.0002 133.463 47.9978C133.828 47.9978 134.203 47.9931 134.569 47.9849C135.373 47.9749 136.175 47.9039 136.969 47.7728C137.765 47.6352 138.537 47.3801 139.259 47.0158C139.977 46.6511 140.632 46.1736 141.199 45.6014C141.771 45.034 142.249 44.3803 142.617 43.6642C142.98 42.9447 143.23 42.1741 143.36 41.379C143.494 40.5849 143.568 39.7819 143.583 38.9768C143.588 38.604 143.588 38.2431 143.588 37.8705C143.597 37.4345 143.597 37.001 143.597 36.5579V11.4435C143.597 11.0041 143.597 10.5681 143.588 10.1334C143.588 9.7654 143.588 9.39625 143.583 9.02828C143.568 8.22306 143.494 7.42004 143.36 6.62588C143.23 5.83129 142.979 5.06116 142.617 4.3419C141.876 2.89839 140.702 1.72339 139.259 0.98214C138.537 0.618837 137.765 0.365245 136.969 0.22974C136.175 0.0974793 135.373 0.0265653 134.569 0.017628C134.203 0.011772 133.828 0.00474 133.463 0.0024C133.031 0 132.593 0 132.162 0V0.000156Z" fill="#A6A6A6"/>
<path d="M10.1338 46.9508C9.76818 46.9508 9.41139 46.9461 9.04864 46.9379C8.29718 46.9282 7.54748 46.8627 6.80568 46.7422C6.11398 46.6231 5.44392 46.4015 4.81759 46.0847C4.197 45.7706 3.63097 45.3587 3.14119 44.8648C2.64432 44.3768 2.23065 43.8107 1.91658 43.189C1.59904 42.5633 1.37929 41.8927 1.26498 41.2004C1.14152 40.4565 1.07473 39.7044 1.06518 38.9504C1.05757 38.6973 1.04761 37.8547 1.04761 37.8547V10.134C1.04761 10.134 1.05822 9.3043 1.06524 9.06054C1.07439 8.30776 1.14079 7.55677 1.26387 6.81406C1.3784 6.11988 1.59832 5.44728 1.91602 4.81954C2.22894 4.19831 2.64031 3.63181 3.13419 3.142C3.62751 2.64753 4.19535 2.23351 4.817 1.91503C5.44189 1.59929 6.11069 1.37926 6.80098 1.26231C7.54522 1.14058 8.29753 1.07478 9.0516 1.06543L10.1344 1.05078H133.457L134.552 1.06602C135.3 1.0749 136.045 1.14012 136.782 1.26113C137.48 1.37955 138.155 1.60112 138.788 1.91855C140.033 2.56036 141.046 3.57578 141.686 4.82247C141.998 5.44587 142.215 6.11299 142.328 6.80117C142.452 7.54997 142.522 8.30687 142.536 9.06582C142.54 9.40566 142.54 9.7707 142.54 10.134C142.549 10.584 142.549 11.0123 142.549 11.4441V36.5585C142.549 36.9945 142.549 37.4199 142.54 37.8488C142.54 38.239 142.54 38.5965 142.535 38.9644C142.521 39.7098 142.453 40.4532 142.33 41.1886C142.218 41.8859 142 42.5618 141.682 43.1926C141.366 43.8075 140.954 44.3687 140.463 44.8555C139.973 45.352 139.406 45.7663 138.784 46.0825C138.154 46.4017 137.479 46.6241 136.782 46.7422C136.041 46.8634 135.291 46.9288 134.539 46.9379C134.188 46.9461 133.82 46.9508 133.463 46.9508L132.162 46.9532L10.1338 46.9508Z" fill="black"/>
<path d="M29.7226 24.3618C29.7488 22.326 30.8161 20.4456 32.5505 19.3793C31.4514 17.8096 29.6764 16.85 27.7611 16.7901C25.746 16.5786 23.7924 17.9959 22.7656 17.9959C21.7189 17.9959 20.1379 16.8111 18.4354 16.8461C16.1954 16.9185 14.1577 18.1612 13.0679 20.1195C10.7471 24.1377 12.4782 30.0429 14.7013 33.2908C15.8136 34.8813 17.1135 36.6578 18.8145 36.5948C20.479 36.5258 21.1006 35.5334 23.1098 35.5334C25.1003 35.5334 25.6835 36.5948 27.419 36.5547C29.205 36.5258 30.3303 34.9573 31.4036 33.3518C32.2027 32.2185 32.8177 30.9661 33.2257 29.6408C31.1044 28.7436 29.7251 26.665 29.7226 24.3618Z" fill="white"/>
<path d="M26.4447 14.6526C27.4185 13.4836 27.8983 11.9809 27.7821 10.4639C26.2943 10.6201 24.92 11.3312 23.933 12.4554C22.9584 13.5646 22.4647 15.0157 22.5606 16.4891C24.0683 16.5046 25.4999 15.8277 26.4447 14.6526Z" fill="white"/>
<path fill-rule="evenodd" clip-rule="evenodd" d="M45.0824 32.5682H50.7625L52.1254 36.5959H54.5723L49.1922 21.6943H46.6926L41.3125 36.5959H43.7184L45.0824 32.5682ZM50.1732 30.7091H45.6708L47.8916 24.1724H47.9537L50.1732 30.7091Z" fill="white"/>
<path fill-rule="evenodd" clip-rule="evenodd" d="M61.6571 36.7091C64.384 36.7091 66.1911 34.5399 66.1911 31.1637C66.1911 27.7969 64.3734 25.6173 61.6161 25.6172C60.1972 25.5715 58.868 26.3095 58.1567 27.538H58.1157V25.7309H55.957V40.1895H58.1871V34.8083H58.2387C58.9198 36.0445 60.2475 36.7828 61.6571 36.7091ZM61.0279 27.5173C62.7622 27.5173 63.8989 28.9634 63.8989 31.163C63.8989 33.3826 62.7622 34.8181 61.0279 34.8181C59.324 34.8181 58.1779 33.3521 58.1779 31.163C58.1779 28.9939 59.324 27.5173 61.0279 27.5173Z" fill="white"/>
<path fill-rule="evenodd" clip-rule="evenodd" d="M73.6153 36.709C76.3423 36.709 78.1493 34.5399 78.1493 31.1637C78.1493 27.7969 76.3317 25.6172 73.5743 25.6172C72.1554 25.5715 70.8263 26.3094 70.1149 27.5379H70.0739V25.7309H67.9153V40.1895H70.1454V34.8082H70.197C70.8781 36.0445 72.2058 36.7828 73.6153 36.709ZM72.9861 27.5173C74.7205 27.5173 75.8572 28.9634 75.8572 31.163H75.8572C75.8572 33.3826 74.7205 34.8181 72.9861 34.8181C71.2822 34.8181 70.1361 33.3521 70.1361 31.163C70.1361 28.9939 71.2822 27.5173 72.9861 27.5173Z" fill="white"/>
<path d="M86.0524 32.4439C86.2176 33.9216 87.6532 34.8919 89.6149 34.8919C91.4946 34.8919 92.8469 33.9216 92.8469 32.5892C92.8469 31.4325 92.0313 30.74 90.1 30.2653L88.1688 29.8001C85.4325 29.1392 84.1621 27.8595 84.1621 25.7829C84.1621 23.2118 86.4028 21.4458 89.5844 21.4458C92.7332 21.4458 94.8918 23.2118 94.9645 25.7829H92.7133C92.5785 24.2958 91.3492 23.3982 89.5527 23.3982C87.7563 23.3982 86.527 24.3064 86.527 25.6282C86.527 26.6817 87.3121 27.3017 89.2328 27.7762L90.8746 28.1794C93.932 28.9024 95.2023 30.1306 95.2023 32.3102C95.2023 35.0981 92.9816 36.8442 89.4496 36.8442C86.1449 36.8442 83.9137 35.1391 83.7695 32.4438L86.0524 32.4439Z" fill="white"/>
<path d="M100.015 23.1602V25.7313H102.081V27.4973H100.015V33.4867C100.015 34.4172 100.429 34.8508 101.337 34.8508C101.582 34.8465 101.827 34.8293 102.071 34.7992V36.5547C101.662 36.6309 101.247 36.6655 100.832 36.6578C98.6323 36.6578 97.7745 35.8316 97.7745 33.7246V27.4973H96.1948V25.7313H97.7745V23.1602H100.015Z" fill="white"/>
<path fill-rule="evenodd" clip-rule="evenodd" d="M108.43 25.5967C105.291 25.5967 103.278 27.7447 103.278 31.1631C103.278 34.5908 105.271 36.7295 108.43 36.7295C111.591 36.7295 113.584 34.5908 113.584 31.1631C113.584 27.7447 111.58 25.5967 108.43 25.5967ZM108.43 27.4338C110.237 27.4338 111.312 28.8178 111.312 31.1627H111.312C111.312 33.517 110.237 34.8905 108.43 34.8905C106.623 34.8905 105.55 33.517 105.55 31.1627C105.55 28.8284 106.623 27.4338 108.43 27.4338Z" fill="white"/>
<path d="M115.423 25.7313H117.55V27.5805H117.601C117.898 26.3901 118.989 25.5708 120.215 25.6176C120.472 25.6167 120.728 25.6446 120.979 25.7008V27.7868C120.654 27.6876 120.316 27.6421 119.977 27.652C119.321 27.6254 118.687 27.8867 118.24 28.3673C117.793 28.8478 117.579 29.4997 117.653 30.1516V36.5958H115.423L115.423 25.7313Z" fill="white"/>
<path fill-rule="evenodd" clip-rule="evenodd" d="M126.583 36.7295C129.04 36.7295 130.961 35.376 131.261 33.4037L129.143 33.4037C128.737 34.4118 127.716 35.0332 126.634 34.9318C125.823 34.9617 125.038 34.6415 124.478 34.0527C123.919 33.464 123.64 32.6633 123.712 31.8545V31.7197H131.385V30.9557C131.385 27.6615 129.495 25.5967 126.489 25.5967C123.433 25.5967 121.46 27.8068 121.46 31.2146C121.46 34.6119 123.422 36.7295 126.583 36.7295ZM129.154 30.1611L123.722 30.1611C123.72 29.4276 124.012 28.7237 124.531 28.2059C125.051 27.6881 125.756 27.3993 126.489 27.4037C127.217 27.388 127.918 27.6767 128.424 28.2001C128.93 28.7236 129.194 29.4343 129.154 30.1611Z" fill="white"/>
<path fill-rule="evenodd" clip-rule="evenodd" d="M47.9182 11.4593C47.2655 10.7701 46.3382 10.4099 45.3915 10.4779H42.8052V17.6381H45.3915C47.5243 17.6381 48.7606 16.3232 48.7606 14.0357C48.88 13.094 48.5708 12.1485 47.9182 11.4593ZM45.2673 16.6258H43.9173V11.49H45.2673C45.9403 11.4527 46.5948 11.7181 47.0517 12.2136C47.5086 12.709 47.7202 13.3828 47.6286 14.0506C47.7274 14.7211 47.5188 15.4005 47.0608 15.9001C46.6027 16.3997 45.9439 16.6662 45.2673 16.6258Z" fill="white"/>
<path fill-rule="evenodd" clip-rule="evenodd" d="M51.2155 12.5146C50.3887 13.0277 49.9243 13.965 50.017 14.9335C49.9226 15.9031 50.3866 16.8423 51.214 17.3564C52.0415 17.8705 53.089 17.8705 53.9164 17.3564C54.7439 16.8423 55.2079 15.9031 55.1135 14.9335C55.2061 13.965 54.7417 13.0277 53.915 12.5146C53.0883 12.0016 52.0422 12.0016 51.2155 12.5146ZM52.5671 13.0767C53.4905 13.0767 54.0167 13.7616 54.0167 14.9329H54.0167C54.0167 16.1089 53.4906 16.7933 52.5671 16.7933C51.6402 16.7933 51.1187 16.1136 51.1187 14.9329C51.1187 13.7616 51.6402 13.0767 52.5671 13.0767Z" fill="white"/>
<path d="M61.888 17.6379H60.7817L59.6649 13.6582H59.5806L58.4685 17.6379H57.3728L55.8833 12.2344H56.9649L57.9329 16.3576H58.0126L59.1235 12.2344H60.1466L61.2575 16.3576H61.3419L62.3052 12.2344H63.3716L61.888 17.6379Z" fill="white"/>
<path d="M64.6243 12.2347H65.6508V13.093H65.7305C66.0076 12.461 66.6552 12.0744 67.343 12.1303C67.8756 12.0903 68.3975 12.2946 68.7613 12.6856C69.1252 13.0766 69.2915 13.6118 69.2133 14.1401V17.6381H68.1469V14.4079C68.1469 13.5395 67.7696 13.1077 66.9809 13.1077C66.6197 13.0909 66.2691 13.2326 66.0211 13.4958C65.7731 13.759 65.6524 14.1174 65.6907 14.477V17.6382H64.6243L64.6243 12.2347Z" fill="white"/>
<path d="M70.9124 10.126H71.9788V17.6389H70.9124V10.126Z" fill="white"/>
<path fill-rule="evenodd" clip-rule="evenodd" d="M74.66 12.5147C73.8332 13.0277 73.3687 13.965 73.4613 14.9336C73.367 15.9033 73.8311 16.8424 74.6586 17.3565C75.4861 17.8706 76.5336 17.8706 77.3611 17.3565C78.1886 16.8424 78.6527 15.9033 78.5584 14.9336C78.6509 13.965 78.1864 13.0277 77.3597 12.5147C76.5329 12.0016 75.4868 12.0016 74.66 12.5147ZM76.0114 13.0767C76.9349 13.0767 77.461 13.7616 77.461 14.9329H77.4611C77.4611 16.1089 76.9349 16.7933 76.0114 16.7933C75.0845 16.7933 74.563 16.1136 74.563 14.9329C74.563 13.7616 75.0845 13.0767 76.0114 13.0767Z" fill="white"/>
<path fill-rule="evenodd" clip-rule="evenodd" d="M81.6909 14.4965C80.4054 14.5762 79.6812 15.1369 79.6812 16.1096C79.683 16.5708 79.8798 17.0097 80.2229 17.3178C80.5661 17.6259 81.0236 17.7744 81.4823 17.7267C82.1367 17.757 82.7567 17.4329 83.1054 16.8783H83.1898V17.6377H84.2163V13.9457C84.2163 12.8043 83.4523 12.1299 82.0976 12.1299C80.8718 12.1299 79.9987 12.7252 79.8897 13.6533H80.9222C81.0405 13.2713 81.453 13.0527 82.0483 13.0527C82.7773 13.0527 83.1546 13.375 83.1546 13.9457V14.4121L81.6909 14.4965ZM83.1547 15.1958V15.6476C83.1314 15.9919 82.9693 16.3121 82.7055 16.5348C82.4418 16.7575 82.099 16.8636 81.7555 16.8288C81.1754 16.8288 80.7535 16.5458 80.7535 16.0595C80.7535 15.5831 81.091 15.33 81.8352 15.2802L83.1547 15.1958Z" fill="white"/>
<path fill-rule="evenodd" clip-rule="evenodd" d="M87.8606 12.1452C86.4954 12.1452 85.6177 13.2269 85.6177 14.9343C85.6177 16.6458 86.486 17.7275 87.8607 17.7274C88.5576 17.7531 89.2112 17.39 89.5575 16.7847H89.6419V17.6384H90.6638V10.1255H89.5974V13.0932H89.5177C89.1957 12.4829 88.55 12.1135 87.8606 12.1452ZM88.1629 16.7693C87.2594 16.7693 86.7192 16.0797 86.7192 14.9336H86.7191C86.7191 13.7969 87.2652 13.1025 88.1629 13.1025C89.0559 13.1025 89.6172 13.8121 89.6172 14.9383C89.6172 16.0697 89.0617 16.7693 88.1629 16.7693Z" fill="white"/>
<path fill-rule="evenodd" clip-rule="evenodd" d="M96.2745 12.5146C95.4478 13.0277 94.9834 13.965 95.0761 14.9335C94.9816 15.9031 95.4456 16.8423 96.2731 17.3564C97.1005 17.8705 98.1481 17.8705 98.9755 17.3564C99.803 16.8423 100.267 15.9031 100.173 14.9335C100.265 13.965 99.8008 13.0277 98.9741 12.5146C98.1473 12.0016 97.1013 12.0016 96.2745 12.5146ZM97.6262 13.0767C98.5496 13.0767 99.0758 13.7616 99.0758 14.9329C99.0758 16.1089 98.5496 16.7933 97.6262 16.7933C96.6993 16.7933 96.1778 16.1136 96.1778 14.9329C96.1778 13.7616 96.6992 13.0767 97.6262 13.0767Z" fill="white"/>
<path d="M101.603 12.2347H102.63V13.093H102.71C102.987 12.461 103.634 12.0744 104.322 12.1303C104.855 12.0903 105.376 12.2946 105.74 12.6856C106.104 13.0766 106.271 13.6118 106.192 14.1401V17.6381H105.126V14.4079C105.126 13.5395 104.749 13.1077 103.96 13.1077C103.599 13.0909 103.248 13.2326 103 13.4958C102.752 13.759 102.631 14.1174 102.67 14.477V17.6382H101.603V12.2347Z" fill="white"/>
<path d="M112.218 10.8896V12.2596H113.389V13.1578H112.218V15.9363C112.218 16.5023 112.452 16.7502 112.982 16.7502C113.118 16.7498 113.254 16.7415 113.389 16.7256V17.6139C113.198 17.6481 113.004 17.6663 112.809 17.6684C111.623 17.6684 111.151 17.2512 111.151 16.2094V13.1578H110.293V12.2595H111.151V10.8896H112.218Z" fill="white"/>
<path d="M114.846 10.126H115.903V13.1037H115.987C116.278 12.4662 116.936 12.0791 117.635 12.1357C118.164 12.1069 118.679 12.3157 119.039 12.7053C119.399 13.0949 119.566 13.6246 119.496 14.1502V17.6389H118.428V14.4133C118.428 13.5502 118.026 13.1131 117.273 13.1131C116.902 13.0826 116.536 13.2175 116.274 13.4816C116.012 13.7458 115.879 14.1122 115.912 14.483V17.6389H114.846L114.846 10.126Z" fill="white"/>
<path fill-rule="evenodd" clip-rule="evenodd" d="M123.372 17.7421C124.428 17.8566 125.414 17.1981 125.713 16.1788L124.687 16.1788C124.431 16.6377 123.923 16.8965 123.401 16.8338C122.999 16.8383 122.613 16.6728 122.339 16.3781C122.065 16.0834 121.928 15.6868 121.962 15.2858V15.2261H125.778V14.854C125.778 13.1572 124.871 12.13 123.367 12.13C122.645 12.1238 121.955 12.4314 121.477 12.973C120.999 13.5146 120.78 14.237 120.876 14.953C120.777 15.667 120.998 16.3883 121.478 16.9253C121.959 17.4624 122.651 17.7611 123.372 17.7421ZM124.691 14.4375H121.962C121.957 14.0649 122.103 13.7061 122.366 13.4426C122.63 13.179 122.989 13.033 123.361 13.0377C123.729 13.0293 124.083 13.1765 124.336 13.4431C124.59 13.7096 124.718 14.0708 124.691 14.4375Z" fill="white"/>
</svg>
