<?xml version="1.0" encoding="utf-8"?>
<!-- Generator: Adobe Illustrator 23.1.0, SVG Export Plug-In . SVG Version: 6.00 Build 0)  -->
<svg version="1.1" id="Layer_1" xmlns="http://www.w3.org/2000/svg" xmlns:xlink="http://www.w3.org/1999/xlink" x="0px" y="0px"
	 viewBox="0 0 200 200" style="enable-background:new 0 0 200 200;" xml:space="preserve">
<style type="text/css">
	.st0{fill:#00936C;}
</style>
<g>
	<path class="st0" d="M192.1,147.9c-0.5,1.4-0.9,2.9-1.6,4.2c-2,3.9-5.3,6.3-9.7,7.5c0,2.3,0,4.6,0,7c0,4.2,0,8.4,0,12.6
		c-0.1,8.2-6.1,14.3-14.3,14.3c-18.5,0-37.1,0-55.6,0c-8.2,0-14.3-6.1-14.3-14.3c0-37.2,0-74.4,0-111.6c0-8.4,6.1-14.4,14.6-14.4
		c18.4,0,36.7,0,55.1,0c8.5,0,14.6,6,14.6,14.6c0,27.8,0,55.7,0,83.5c0,0.7,0,1.4,0,2.1c2.7-0.3,5.3-3.4,5.6-6.8
		c0.1-0.6,0-1.2,0-1.8c0-38.7,0-77.3,0-116c0-6.1-3.4-9.4-9.4-9.4c-41.9,0-83.8,0-125.7,0c-0.8,0-1.5,0-2.5,0c0-1.9,0-3.8,0-5.6
		c43.8,0,87.5,0,131.3,0c0.4,0.1,0.7,0.3,1.1,0.4c4.5,1.2,7.7,3.9,9.6,8.1c0.5,1.1,0.8,2.3,1.2,3.4
		C192.1,66.4,192.1,107.1,192.1,147.9z M102.4,72.8c0,32.8,0,65.5,0,98.1c24.4,0,48.6,0,72.8,0c0-32.8,0-65.4,0-98.1
		c-4.8,0-9.5,0-14.2,0c-0.1,0.4-0.2,0.8-0.3,1.1c-1.6,5.5-3.9,7.2-9.6,7.2c-8.5,0-17,0-25.4,0c-4.5,0-6.9-1.8-8.4-6
		c-0.3-0.8-0.5-1.5-0.7-2.4C111.8,72.8,107.2,72.8,102.4,72.8z M175.2,67.1c-0.2-5-3.7-8.4-8.7-8.4c-13.9,0-27.7,0-41.6,0
		c-4.8,0-9.6-0.1-14.4,0c-4.6,0.1-8.4,4-8.1,8.4c0.6,0,1.3,0,1.9,0c4.7,0,9.5,0,14.2,0c2.3,0,3.2,0.9,3.4,3.1
		c0.1,0.9,0.2,1.7,0.4,2.6c0.6,2.2,1.3,2.7,3.6,2.7c8.6,0,17.2,0,25.8,0c1.9,0,2.9-0.7,3.3-2.4c0.2-0.8,0.4-1.7,0.5-2.6
		c0.3-2.7,1.1-3.5,3.8-3.5C164.6,67.1,169.9,67.1,175.2,67.1z M175.2,176.8c-24.3,0-48.6,0-72.8,0c-1.1,7.4,3.8,11.3,10,11.2
		c17.8-0.2,35.5-0.1,53.3-0.1c0.9,0,1.9,0,2.8-0.2C173.4,186.7,175.8,182.7,175.2,176.8z"/>
	<path class="st0" d="M32,13.7c0,1.8,0,3.6,0,5.6c-1.9,0-3.7,0-5.5,0C21.6,19.4,18,23,18,28c0,34.2,0,68.3,0,102.5
		c0,0.3,0,0.7,0.1,1.2c24.3,0,48.5,0,72.9,0c0,1.9,0,3.7,0,5.6c-24.2,0-48.5,0-72.8,0c0,3.4-0.3,6.7,0.1,9.9c0.5,4.3,4.2,7,8.7,7
		c20.6,0,41.2,0,61.8,0c0.7,0,1.4,0,2.2,0c0,1.9,0,3.7,0,5.6c-5.8,0-11.5,0-17.3,0c-0.5,1.9-0.9,3.7-1.4,5.6c6.3,0,12.4,0,18.7,0
		c0,1.9,0,3.7,0,5.7c-0.6,0-1.2,0-1.8,0c-6.2,0-12.4,0.1-18.6,0c-4.6-0.1-5.1,1.8-4.5,5.6c8.3,0,16.6,0,25,0c0,1.9,0,3.7,0,5.6
		c-0.5,0-1.1,0.1-1.7,0.1c-8.4,0-16.9,0-25.3,0c-2.9,0-3.8-0.9-3.8-3.7c0-1.6,0-3.2,0-4.7c0.1-3.4,1.6-6,4.7-7.4
		c1.3-0.6,1.7-1.4,2-2.6c0.3-1.3,0.6-2.5,1-4c-0.7,0-1.4,0-2,0c-12.8,0-25.6,0-38.4,0c-9,0-15-5.9-15-14.9c0-38.6,0-77.1,0-115.7
		c0-8.3,3.7-13.1,11.7-15.2c0.1,0,0.2-0.1,0.3-0.2C26.9,13.7,29.5,13.7,32,13.7z"/>
	<path class="st0" d="M43.3,13.7c0,1.8,0,3.6,0,5.5c-1.9,0-3.6,0-5.6,0c0-1.8,0-3.7,0-5.5C39.5,13.7,41.4,13.7,43.3,13.7z"/>
	<path class="st0" d="M84.2,50.3c1.3,0,2.6,0,3.9,0c1.9,0.1,2.9,1.1,3,3c0,3.6,0,7.3,0,10.9c0,1.9-1.1,2.9-3,3c-1.3,0-2.6,0-3.8,0
		c-0.5,1.3-1.1,2.4-1.5,3.7c-0.1,0.5,0,1.2,0.3,1.6c0.6,0.8,1.4,1.4,2.1,2.1c1.2,1.3,1.2,2.8,0,4.1c-2.6,2.6-5.2,5.3-7.8,7.8
		c-1.3,1.2-3,1.4-4,0c-2-2.8-4.2-2.7-6.7-1.1c-0.2,0.1-0.4,0.2-0.7,0.3c0,1.3,0,2.6,0,3.8c-0.1,1.9-1.1,3-3,3c-3.6,0-7.3,0-10.9,0
		c-1.9,0-2.9-1.1-3-2.9c0-1.3,0-2.6,0-3.9c-0.3-0.1-0.5-0.2-0.7-0.3c-2.6-1.6-4.7-1.7-6.7,1.1c-1.1,1.5-2.8,1.3-4.1,0
		c-2.6-2.5-5.2-5.1-7.7-7.7c-1.2-1.3-1.4-3,0-4c2.8-2,2.7-4.3,1.1-6.9c-0.1-0.1-0.1-0.3-0.3-0.6c-1.2,0-2.5,0-3.8,0
		c-2-0.1-3-1.1-3-3.1c0-3.6,0-7.1,0-10.7c0-2,1.1-3,3.1-3c0.1,0,0.1,0,0.2,0c3.9-0.1,3.9-0.1,5.2-3.9c0.1-0.3-0.1-0.8-0.2-1.2
		c-0.1-0.2-0.3-0.3-0.5-0.5c-3.7-3.7-3.7-4,0-7.7c1.9-1.9,3.8-3.8,5.7-5.7c1.6-1.6,3.1-1.6,4.7,0c2.9,2.7,2.9,2.8,6.4,0.8
		c0.3-0.2,0.6-0.8,0.6-1.2c0.1-1,0-2,0-3C49,26.1,50,25,51.8,25c3.7-0.1,7.4-0.1,11.1,0c1.8,0,2.8,1.1,2.9,3c0,0.6,0,1.3,0,1.9
		c0,0.6,0,1.2,0,1.8c1.3,0.6,2.7,1.2,4,1.7c0.3,0.1,0.9-0.1,1.2-0.3c0.8-0.6,1.4-1.4,2.1-2.1c1.4-1.3,2.9-1.3,4.3,0
		c2.5,2.5,5,4.9,7.4,7.4c1.5,1.5,1.6,3.2,0,4.4c-2.5,1.9-2.7,3.8-1.1,6.3C83.9,49.5,84,49.9,84.2,50.3z M74.8,36.7
		c-0.5,0.7-1,1.4-1.6,2c-1.6,1.6-2.5,1.6-4.5,0.6c-1.9-0.9-3.9-1.8-6-2.5c-2-0.7-2.6-1.4-2.6-3.6c0-0.9,0-1.8,0-2.7
		c-2,0-3.7,0-5.6,0c0,0.9,0,1.7,0,2.5c0,2.4-0.6,3-2.8,3.8c-2.1,0.7-4.1,1.6-6.1,2.6c-1.5,0.7-2.8,0.7-4-0.6
		c-0.7-0.7-1.3-1.5-1.8-2.2c-1.6,1.6-2.8,2.8-4.3,4.2c0.6,0.5,1.2,1.1,1.8,1.7c1.6,1.6,1.6,2.5,0.6,4.5c-0.9,1.9-1.7,3.8-2.4,5.8
		c-0.8,2.2-1.4,2.8-3.8,2.8c-0.8,0-1.7,0-2.5,0c0,2,0,3.7,0,5.6c1.1,0,2.1,0,3,0c1.6,0,2.6,0.8,3.1,2.3c0.9,2.3,1.8,4.5,2.8,6.8
		c0.6,1.4,0.6,2.6-0.5,3.7c-0.8,0.7-1.6,1.3-2.4,2c1.6,1.6,2.8,2.9,4.3,4.3c0.7-0.8,1.4-1.6,2.1-2.3c1.1-1.1,2.3-1.1,3.7-0.5
		c2.2,1,4.5,1.9,6.8,2.8c1.5,0.6,2.3,1.5,2.3,3.1c0,1,0,2,0,3c2,0,3.8,0,5.6,0c0-1.1,0-2.1,0-3c0-1.6,0.8-2.5,2.3-3.1
		c2.3-0.9,4.5-1.8,6.8-2.8c1.4-0.6,2.6-0.6,3.7,0.5c0.7,0.8,1.3,1.6,2,2.4c1.6-1.6,2.8-2.9,4.4-4.4c-0.8-0.7-1.6-1.3-2.4-2
		c-1.1-1.1-1.1-2.3-0.5-3.7c1-2.2,1.9-4.5,2.8-6.8c0.6-1.5,1.5-2.3,3.1-2.3c1,0,2,0,3,0c0-2,0-3.7,0-5.6c-1.1,0-2.1,0-3,0
		c-1.6,0-2.6-0.8-3.1-2.3c-0.9-2.3-1.8-4.5-2.8-6.8c-0.6-1.4-0.6-2.6,0.5-3.7c0.8-0.7,1.6-1.3,2.4-2C77.7,39.6,76.4,38.3,74.8,36.7z
		"/>
	<path class="st0" d="M61.3,114.9c0.1-0.3,0.2-0.5,0.3-0.7c1.6-2.6,1.7-4.7-1.1-6.7c-1.5-1-1.3-2.8,0-4.1c2.5-2.6,5-5.1,7.6-7.6
		c1.4-1.4,3.1-1.6,4.3,0c1.9,2.6,3.9,2.8,6.4,1.1c0.2-0.2,0.5-0.2,0.9-0.4c0-1.2,0-2.5,0-3.8c0.1-1.9,1.1-3,2.9-3
		c3.6-0.1,7.2,0,11,0c0,1.8,0,3.6,0,5.6c-2.7,0-5.4,0-8.3,0c0,1.1,0,2,0,2.9c0.1,1.9-0.9,2.8-2.6,3.4c-2.1,0.7-4.1,1.6-6.1,2.5
		c-1.9,0.9-2.8,0.9-4.4-0.7c-0.6-0.6-1.2-1.3-1.8-1.9c-1.4,1.4-2.6,2.7-4.2,4.4c0.5,0.4,1.3,0.9,1.9,1.5c1.7,1.6,1.7,2.5,0.7,4.5
		c-0.9,1.9-1.8,3.8-2.4,5.8c-0.8,2.2-1.4,2.8-3.8,2.8c-0.8,0-1.6,0-2.6,0c0,2.8,0,5.5,0,8.3c-1.9,0-3.7,0-5.6,0
		c0-3.9-0.1-7.8,0.1-11.7c0.1-1.4,1.2-2.2,2.7-2.3C58.7,114.8,60,114.9,61.3,114.9z"/>
	<path class="st0" d="M130.4,30.5c0-1.9,0-3.6,0-5.4c12.1,0,24.1,0,36.3,0c0,1.7,0,3.5,0,5.4C154.7,30.5,142.6,30.5,130.4,30.5z"/>
	<path class="st0" d="M88.1,109.4c0,1.8,0,3.6,0,5.3c-5.4,1.1-7.7,3.3-8.4,8.5c-1.8,0-3.5,0-5.3,0C73.6,117,79.9,109.1,88.1,109.4z"
		/>
	<path class="st0" d="M34.9,148.4c0-1.9,0-3.6,0-5.4c5.6,0,11,0,16.6,0c0,1.8,0,3.5,0,5.4C46.1,148.4,40.6,148.4,34.9,148.4z"/>
	<path class="st0" d="M178,30.5c-1.8,0-3.5,0-5.4,0c0-1.8,0-3.5,0-5.4c1.8,0,3.5,0,5.4,0C178,26.9,178,28.6,178,30.5z"/>
	<path class="st0" d="M23.7,143c1.8,0,3.6,0,5.4,0c0,1.8,0,3.6,0,5.5c-1.8,0-3.6,0-5.4,0C23.7,146.7,23.7,144.9,23.7,143z"/>
	<path class="st0" d="M107.9,123.4c0-17.3,13.8-31,31.2-31c16.9,0,30.6,14,30.6,31c0,16.9-14,30.8-30.9,30.8
		C121.7,154.1,107.9,140.3,107.9,123.4z M138.8,148.6c13.9,0,25.2-11.4,25.2-25.4c0-13.8-11.4-25.1-25.2-25.1
		c-14,0-25.4,11.3-25.4,25.3C113.5,137.3,124.8,148.6,138.8,148.6z"/>
	<path class="st0" d="M150,64.4c0,1.8,0,3.5,0,5.3c-7.4,0-14.8,0-22.3,0c0-1.7,0-3.5,0-5.3C135.1,64.4,142.5,64.4,150,64.4z"/>
	<path class="st0" d="M149.9,179.6c0,1.9,0,3.6,0,5.4c-7.4,0-14.8,0-22.2,0c0-1.7,0-3.5,0-5.4C135,179.6,142.4,179.6,149.9,179.6z"
		/>
	<path class="st0" d="M57.3,44.6c7.7,0,14,6.2,14.1,13.9c0.1,7.9-6.3,14.2-14.1,14.2c-7.7,0-13.9-6.3-14-14
		C43.2,51,49.5,44.7,57.3,44.6z M57.3,67.1c4.7,0,8.5-3.8,8.5-8.5c0-4.6-3.8-8.4-8.4-8.4c-4.6,0-8.4,3.7-8.5,8.3
		C48.8,63.2,52.6,67.1,57.3,67.1z"/>
	<path class="st0" d="M133.4,119.1c4.6-4.6,9.2-9.3,13.9-13.9c2.2-2.2,3.4-2.2,5.6,0c2.3,2.3,4.6,4.6,6.9,6.9c2,2,2,3.3,0.1,5.2
		c-8.1,8.1-16.1,16.1-24.2,24.2c-1.8,1.8-3.2,1.8-5,0c-4.4-4.4-8.8-8.7-13.1-13.1c-1.7-1.7-1.7-3.1,0-4.8c2.5-2.5,5-5.1,7.6-7.6
		c1.7-1.7,3.1-1.7,4.8,0c1,1,2,2,3,2.9C133,119.1,133.1,119.1,133.4,119.1z M128,121.7c-1.8,1.7-3.3,3.1-4.5,4.2
		c3.3,3.3,6.6,6.6,9.7,9.7c6.9-6.9,13.9-13.9,20.9-20.8c-1.3-1.3-2.8-2.7-4.2-4.2c-0.4,0.3-0.8,0.7-1.2,1.1
		c-3.9,3.9-7.8,7.8-11.7,11.7c-3.6,3.6-4,3.6-7.6,0C128.8,122.9,128.4,122.2,128,121.7z"/>
</g>
</svg>
