<?xml version="1.0" encoding="utf-8"?>
<!-- Generator: Adobe Illustrator 23.1.0, SVG Export Plug-In . SVG Version: 6.00 Build 0)  -->
<svg version="1.1" id="Layer_1" xmlns="http://www.w3.org/2000/svg" xmlns:xlink="http://www.w3.org/1999/xlink" x="0px" y="0px"
	 viewBox="0 0 200 200" style="enable-background:new 0 0 200 200;" xml:space="preserve">
<style type="text/css">
	.st0{fill:#424242;stroke:#424242;stroke-width:2;stroke-miterlimit:10;}
	.st1{fill:#11BC8B;}
</style>
<g>
	<path class="st0" d="M181.8,169.6c2.9,0,5.6,0,8.3,0c4.5,0,6.9,2.4,6.9,6.8c0,4.8,0,9.5,0,14.3c0,4.1-2.4,6.5-6.5,6.5
		c-60.3,0-120.7,0-181,0c-4.1,0-6.6-2.4-6.6-6.5c0-4.9,0-9.8,0-14.7c0-4,2.4-6.4,6.4-6.5c2.8,0,5.7,0,8.5,0c0.1,0,0.2-0.1,0.6-0.2
		c0-0.8,0-1.6,0-2.4c0-50.5,0-101,0-151.5c0-5.9,3.2-10.5,8.3-11.9C34,1.5,41,6.7,41.2,14.6c0.1,3,0,6,0,9.2c2.1,0,4,0,5.8,0
		c1.8-7.6,5.5-11.1,11.5-11.2c6.1-0.1,9.6,3.3,11.7,11.2c2.9,0,5.9,0,8.9,0c0.6-5.5,3.2-9.5,8.8-10.9c4.9-1.2,8.9,0.5,12.1,4.5
		c3.5-4.3,7.8-5.9,13-4.2c4.9,1.6,7.3,5.4,7.8,10.6c2.9,0,5.9,0,9.1,0c0.4-3.9,2-7.3,5.6-9.5c2.2-1.3,4.5-1.8,7-1.6
		c5.4,0.4,8.6,3.8,10.5,11.2c1.9,0,3.7,0,5.8,0c0-3.2-0.1-6.4,0-9.5c0.2-5.4,3.8-9.7,9-10.8c4.9-1.1,10.2,1.2,12.4,5.9
		c0.9,2,1.3,4.4,1.3,6.7c0.1,50.2,0.1,100.5,0.1,150.7C181.8,167.5,181.8,168.4,181.8,169.6z M87.9,134c1-11.8,14.4-15,21.1-6.5
		c2.4-3,5.4-4.8,9.3-4.8c4,0,7,1.9,9.5,4.8c3.5-4.2,7.7-5.9,12.8-4.3c5.2,1.6,7.5,5.6,8.1,10.7c3.5,0,6.9,0,10.2,0
		c0-14.4,0-28.7,0-43c-6.7,0-13.3,0-19.9,0c-1.7,7.2-5.1,10.8-10.5,11.2c-2.6,0.2-5-0.3-7.2-1.7c-3.5-2.2-5.1-5.5-5.4-9.5
		c-4.4,0-8.5,0-12.7,0c-0.6,5.3-3,9.1-8.1,10.7s-9.4-0.2-12.8-4.3c-3.4,4.2-7.7,5.8-12.8,4.3c-5.2-1.6-7.6-5.5-8.1-10.7
		c-6.8,0-13.3,0-20,0c0,14.4,0,28.7,0,43c3.5,0,6.8,0,10.1,0c1.7-7.4,5.3-11.1,11-11.3c6.4-0.2,9.8,2.9,12.2,11.3
		C79.1,134,83.5,134,87.9,134z M41.3,78.8c6.8,0,13.5,0,20.1,0c0.5-5.2,2.9-8.9,7.8-10.6c5.2-1.7,9.6,0,13,4.2
		c3.4-4.1,7.6-5.8,12.7-4.3c5.2,1.6,7.6,5.5,8.2,10.8c4,0,7.8,0,11.6,0c0.3,0,0.6-0.1,0.9-0.1c2.3-8.1,5.7-11.3,11.9-11.2
		c5.8,0.1,9.4,3.7,11.3,11.2c6.6,0,13.2,0,19.9,0c0-14.4,0-28.7,0-43c-2,0-3.8,0-5.6,0c-2.2,7.7-5.5,11-10.9,11.2
		c-2.5,0.1-4.8-0.4-7-1.8c-3.4-2.2-4.9-5.5-5.3-9.4c-3.2,0-6.1,0-9.1,0c-0.5,5.3-3,9.1-8,10.6c-5.1,1.6-9.4-0.1-12.8-4.2
		c-4.3,4.3-8,5.6-12.4,4.4c-5.4-1.5-8-5.5-8.6-10.8c-3.1,0-6,0-8.9,0C68,44,64.5,47.2,58.3,47.1C52.5,47,48.9,43.4,47,35.9
		c-1.9,0-3.7,0-5.7,0C41.3,50.2,41.3,64.5,41.3,78.8z M99.9,173.7c-30,0-59.9,0-89.9,0c-2.8,0-3.2,0.4-3.2,3.2c0,4.4,0,8.8,0,13.3
		c0,2.5,0.6,3,3,3c60.1,0,120.1,0,180.2,0c2.4,0,3-0.6,3-3.1c0-4.3,0-8.6,0-12.9c0-3.4-0.2-3.6-3.6-3.6
		C159.6,173.7,129.7,173.7,99.9,173.7z M37.2,169.5c0-0.9,0-1.5,0-2.2c0-50.5,0-101,0-151.5c0-0.9,0-1.9-0.2-2.8
		c-0.9-4.9-6.1-7.5-10.5-5.2c-3,1.6-4.2,4.2-4.2,7.5c0,50.8,0,101.5,0,152.3c0,0.6,0.1,1.2,0.1,1.8
		C27.4,169.5,32.2,169.5,37.2,169.5z M177.9,169.5c0-0.9,0-1.5,0-2.2c0-50.5,0-101,0-151.5c0-0.9,0-1.9-0.2-2.8
		c-0.9-4.9-6.1-7.5-10.5-5.2c-3,1.6-4.1,4.2-4.1,7.5c0,50.8,0,101.5,0,152.3c0,0.6,0.1,1.2,0.1,1.8
		C168,169.5,172.8,169.5,177.9,169.5z M158.9,169.5c0-7.9,0-15.6,0-23.4c-3.5,0-6.8,0-10.2,0c-0.6,5.5-3.3,9.4-8.7,10.8
		c-4.9,1.3-8.9-0.4-12.2-4.4c-2.4,3-5.4,4.8-9.3,4.8c-4,0-7-1.9-9.5-4.8c-3.2,4-7.2,5.6-11.9,4.5c-5.6-1.3-8.4-5.3-9-11
		c-2.4,0-4.6,0-6.8,0c-2.2,0-4.4,0-6.6,0c-1.6,7.4-5.2,11-11,11.3c-2.6,0.1-5-0.5-7.1-2c-3.2-2.2-4.6-5.4-5-9.1c-3.5,0-6.9,0-10.2,0
		c0,7.9,0,15.6,0,23.4C80.6,169.5,119.6,169.5,158.9,169.5z M149,29.7c0-1.8,0-3.7,0-5.5c-0.1-4.1-3-7.3-6.7-7.6
		c-4.3-0.3-7.7,2.2-8,6.6c-0.4,4.4-0.4,9,0,13.4c0.4,4.3,3.8,6.8,7.9,6.5c3.7-0.2,6.6-3.5,6.8-7.5C149.1,33.6,149,31.6,149,29.7z
		 M107.2,140.1L107.2,140.1c-0.1-2,0-4-0.1-5.9c-0.2-4-3.1-7.2-6.8-7.4c-4-0.3-7.5,2.3-7.8,6.4c-0.4,4.6-0.3,9.3,0,14
		c0.3,3.6,3.3,6.1,6.8,6.2c3.8,0.1,6.8-2.1,7.4-5.7C107.1,145.1,107,142.6,107.2,140.1z M129.7,139.8c0,2-0.1,4,0,5.9
		c0.1,4.1,3,7.2,6.7,7.5c4.2,0.3,7.6-2.2,7.9-6.5c0.4-4.5,0.4-9.1,0-13.6c-0.3-4.2-3.8-6.8-7.8-6.5c-3.8,0.3-6.7,3.4-6.9,7.4
		C129.6,136,129.7,137.9,129.7,139.8z M55.5,140L55.5,140c0.1,2,0,4,0.1,5.9c0.2,4.1,3.1,7.2,6.9,7.3c4.2,0.2,7.5-2.3,7.8-6.6
		c0.3-4.6,0.2-9.2-0.1-13.8c-0.2-3.5-3.4-6-6.9-6.1s-6.7,2.2-7.4,5.6C55.5,134.8,55.6,137.4,55.5,140z M99.2,85L99.2,85
		c-0.1-2,0-4-0.1-5.9c-0.2-4.2-3.3-7.4-7.2-7.4c-4.1-0.1-7.3,2.7-7.5,7s-0.2,8.6,0,12.8c0.1,3.7,3.1,6.5,6.5,6.7
		c4,0.2,7.1-1.9,7.8-5.7C99.2,90,99.1,87.5,99.2,85z M125.7,140.1c0-2.2,0.1-4.4,0-6.5c-0.1-3.9-3.3-6.9-7.2-6.9
		c-4-0.1-7.3,3-7.4,6.9c-0.1,4.2-0.1,8.4,0,12.7c0.1,4,3.3,7,7.3,7s7.2-3,7.3-7C125.8,144.2,125.7,142.2,125.7,140.1z M66,29.9
		c0-2,0-4.1,0-6.1c-0.1-4.1-3.1-7.2-7-7.3c-4.1-0.1-7.5,2.8-7.6,6.9c-0.2,4.2-0.2,8.4,0,12.7c0.1,4,3.6,7.1,7.6,7s7-3.2,7.1-7.3
		C66,33.9,66,31.9,66,29.9z M80.2,84.9c0-2,0-4,0-5.9c-0.1-4.2-3.1-7.3-7.2-7.3s-7.4,3-7.5,7.1c-0.1,4.2-0.1,8.3,0,12.5
		c0.1,4.1,3.4,7.1,7.5,7c4-0.1,7.1-3.1,7.2-7.2C80.2,89,80.2,86.9,80.2,84.9z M120,84.8c0,2,0,4.1,0,6.1c0.1,4,3,7.1,6.9,7.2
		c4.2,0.1,7.6-2.8,7.8-7s0.2-8.4,0-12.7c-0.2-4-3.6-7.1-7.7-7c-4,0.1-6.9,3.2-7,7.3C120,80.9,120,82.9,120,84.8z M98,29.8
		c0-2,0-4,0-5.9c-0.1-4.2-3.1-7.3-7.2-7.4c-4.1-0.1-7.4,2.9-7.5,7.1c-0.1,4.1-0.1,8.3,0,12.5c0.1,4.1,3.4,7.1,7.5,7.1
		c4-0.1,7.1-3.1,7.2-7.2C98.1,33.9,98,31.9,98,29.8z M102.2,29.7c0,1.9,0,3.8,0,5.7c0.1,4.4,3,7.6,7.1,7.7c4.1,0.1,7.5-2.9,7.6-7.2
		c0.2-4.1,0.2-8.3,0-12.5c-0.2-4.1-3.5-7-7.6-6.9c-4,0.1-6.9,3.1-7,7.3C102.2,25.8,102.2,27.7,102.2,29.7z M61.4,83
		c-6.8,0-13.5,0-20.1,0c0,1.3,0,2.5,0,3.8c6.8,0,13.4,0,20.1,0C61.4,85.5,61.4,84.3,61.4,83z M138.8,86.8c6.8,0,13.5,0,20.1,0
		c0-1.3,0-2.5,0-3.8c-6.8,0-13.4,0-20.1,0C138.8,84.3,138.8,85.5,138.8,86.8z M115.9,83c-4.3,0-8.5,0-12.7,0c0,1.3,0,2.6,0,3.8
		c4.3,0,8.4,0,12.7,0C115.9,85.5,115.9,84.4,115.9,83z M74.6,141.9c4.5,0,9,0,13.4,0c0-1.3,0-2.5,0-3.7c-4.6,0-9,0-13.4,0
		C74.6,139.5,74.6,140.7,74.6,141.9z M79.3,27.9c-3.1,0-6.1,0-9.1,0c0,1.4,0,2.6,0,3.8c3.1,0,6,0,9.1,0
		C79.3,30.5,79.3,29.3,79.3,27.9z M41.4,138.1c0,1.4,0,2.6,0,3.8c3.5,0,6.8,0,10.1,0c0-1.3,0-2.5,0-3.8
		C48.1,138.1,44.8,138.1,41.4,138.1z M158.9,138.2c-3.5,0-6.9,0-10.2,0c0,1.3,0,2.5,0,3.7c3.5,0,6.8,0,10.2,0
		C158.9,140.6,158.9,139.5,158.9,138.2z M121,31.6c3.2,0,6.1,0,9,0c0-1.4,0-2.5,0-3.7c-3.1,0-6,0-9,0C121,29.2,121,30.4,121,31.6z
		 M47.2,31.7c0-1.3,0-2.5,0-3.8c-2,0-3.9,0-5.8,0c0,1.3,0,2.5,0,3.8C43.3,31.7,45.2,31.7,47.2,31.7z M153.1,27.9c0,1.3,0,2.5,0,3.8
		c2,0,3.9,0,5.8,0c0-1.3,0-2.5,0-3.8C156.9,27.9,155,27.9,153.1,27.9z"/>
	<path class="st1" d="M99.9,173.7c29.8,0,59.7,0,89.5,0c3.4,0,3.6,0.2,3.6,3.6c0,4.3,0,8.6,0,12.9c0,2.5-0.6,3.1-3,3.1
		c-60.1,0-120.1,0-180.2,0c-2.4,0-3-0.6-3-3c0-4.4,0-8.8,0-13.3c0-2.8,0.4-3.2,3.2-3.2C40,173.7,70,173.7,99.9,173.7z"/>
	<path class="st1" d="M149,29.7c0,2,0.1,4,0,5.9c-0.1,4-3.1,7.3-6.8,7.5c-4.1,0.3-7.6-2.3-7.9-6.5c-0.4-4.4-0.4-9,0-13.4
		s3.7-6.9,8-6.6c3.7,0.3,6.5,3.5,6.7,7.6C149,26,149,27.8,149,29.7z"/>
	<path class="st1" d="M107.2,140.1c-0.1,2.5-0.1,5-0.5,7.5c-0.6,3.7-3.7,5.8-7.4,5.7c-3.5-0.1-6.6-2.5-6.8-6.2
		c-0.3-4.6-0.4-9.4,0-14c0.3-4.2,3.8-6.7,7.8-6.4c3.8,0.3,6.7,3.4,6.8,7.4c0.1,2,0,4,0,5.9C107.1,140.1,107.1,140.1,107.2,140.1z"/>
	<path class="st1" d="M129.7,139.8c0-1.9-0.1-3.8,0-5.7c0.2-4,3.1-7.1,6.9-7.4c4-0.3,7.4,2.3,7.8,6.5c0.4,4.5,0.4,9.1,0,13.6
		c-0.4,4.3-3.7,6.8-7.9,6.5c-3.7-0.3-6.6-3.4-6.7-7.5C129.6,143.8,129.7,141.8,129.7,139.8z"/>
	<path class="st1" d="M55.5,140c0.1-2.6,0.1-5.2,0.5-7.7c0.6-3.4,3.8-5.7,7.4-5.6c3.5,0.1,6.6,2.6,6.9,6.1c0.3,4.6,0.4,9.2,0.1,13.8
		c-0.3,4.3-3.5,6.9-7.8,6.6c-3.8-0.2-6.7-3.3-6.9-7.3c-0.1-2,0-4,0-5.9C55.6,140,55.5,140,55.5,140z"/>
	<path class="st1" d="M99.2,85c-0.1,2.5,0,5-0.5,7.5c-0.7,3.8-3.9,6-7.8,5.7c-3.5-0.2-6.4-3.1-6.5-6.7c-0.2-4.3-0.2-8.6,0-12.8
		c0.2-4.3,3.3-7.1,7.5-7c4,0.1,7,3.2,7.2,7.4c0.1,2,0,4,0,5.9C99.1,85,99.2,85,99.2,85z"/>
	<path class="st1" d="M125.7,140.1c0,2,0.1,4.1,0,6.1c-0.1,4-3.3,7-7.3,7s-7.3-3-7.3-7c-0.1-4.2-0.1-8.4,0-12.7
		c0.1-3.9,3.4-7,7.4-6.9c3.9,0,7.1,3.1,7.2,6.9C125.8,135.8,125.7,138,125.7,140.1z"/>
	<path class="st1" d="M66,29.9c0,2,0,4,0,5.9c-0.1,4.1-3.1,7.2-7.1,7.3s-7.5-3-7.6-7c-0.1-4.2-0.2-8.4,0-12.7c0.2-4.1,3.5-7,7.6-6.9
		c4,0.1,6.9,3.1,7,7.3C66,25.8,66,27.9,66,29.9z"/>
	<path class="st1" d="M80.2,84.9c0,2,0,4.1,0,6.1c-0.1,4.1-3.2,7.1-7.2,7.2c-4.1,0.1-7.4-2.9-7.5-7c-0.1-4.2-0.1-8.3,0-12.5
		c0.1-4.1,3.4-7.1,7.5-7.1s7.1,3.1,7.2,7.3C80.2,80.9,80.2,82.9,80.2,84.9z"/>
	<path class="st1" d="M120,84.8c0-2,0-4,0-5.9c0.1-4.1,3.1-7.2,7-7.3c4-0.1,7.5,2.9,7.7,7c0.2,4.2,0.2,8.4,0,12.7
		c-0.2,4.2-3.6,7.1-7.8,7c-3.8-0.1-6.8-3.2-6.9-7.2C120,88.9,120,86.9,120,84.8z"/>
	<path class="st1" d="M98,29.8c0,2,0,4.1,0,6.1c-0.1,4.1-3.2,7.1-7.2,7.2c-4.1,0.1-7.4-3-7.5-7.1s-0.1-8.3,0-12.5
		c0.1-4.1,3.4-7.1,7.5-7.1c4.1,0.1,7.1,3.1,7.2,7.4C98.1,25.9,98,27.8,98,29.8z"/>
	<path class="st1" d="M102.2,29.7c0-2,0-4,0-5.9c0.1-4.1,3.1-7.2,7-7.3c4.1-0.1,7.5,2.8,7.6,6.9c0.2,4.1,0.2,8.3,0,12.5
		c-0.2,4.3-3.5,7.3-7.6,7.2s-7-3.2-7.1-7.7C102.2,33.6,102.2,31.6,102.2,29.7z"/>
</g>
</svg>
