<?xml version="1.0" encoding="utf-8"?>
<!-- Generator: Adobe Illustrator 23.1.0, SVG Export Plug-In . SVG Version: 6.00 Build 0)  -->
<svg version="1.1" id="Layer_1" xmlns="http://www.w3.org/2000/svg" xmlns:xlink="http://www.w3.org/1999/xlink" x="0px" y="0px"
	 viewBox="0 0 200 200" style="enable-background:new 0 0 200 200;" xml:space="preserve">
<style type="text/css">
	.st0{fill:#00936C;}
</style>
<g>
	<path class="st0" d="M194.9,120.4c-0.9,0.7-1.8,1.7-2.8,2.2c-6.3,3.7-12.6,7.3-18.8,10.9c-2.5,1.5-3.9,1.1-5.4-1.5
		c-0.6-1.2-1.3-2.2-2.1-3.6c-5.5,3.2-10.9,6.2-16.4,9.5c2.4,4.1,2.8,8.3,0.6,12.4c-2.3,4.2-6.1,6-10.7,6.2
		c-1.7,8.7-4.6,11.7-12.5,12.4c-0.1,3.7-1.3,6.9-4.2,9.5c-2.8,2.5-6.3,3.2-10,2.6c-0.2,0.6-0.4,1.3-0.6,1.8
		c-2.4,6.3-10.2,8.4-15.4,4c-0.9-0.8-1.8-1.1-2.9-0.7c-4.6,0.9-9.3-1.7-10.9-6.1c-0.2-0.5-0.4-1.2-0.6-1.9
		c-3.7,0.5-7.1-0.2-10.1-2.7c-2.8-2.4-4-5.7-4.2-9.4c-8.7-1.7-11.5-4.4-12.5-12.5c-3.9,0-7.3-1.4-9.7-4.5c-2.4-3-2.9-6.6-2.1-10.5
		c-4-2.3-8-4.7-12-7c-2.4,3.3-3,3.4-6.5,1.5c-6.2-3.6-12.4-7.1-18.5-10.7c-2.7-1.6-3-2.8-1.6-5.5c8.8-15.4,17.8-30.7,26.6-46.2
		c1.5-2.5,2.7-2.9,5.4-1.4c6.3,3.6,12.6,7.3,18.8,10.9c3.2,1.9,3.5,2.8,1.7,6.1c-0.1,0.1-0.1,0.3-0.2,0.7c0.6,0,1.1,0.1,1.6,0.1
		c4.8,0,9.6,0,14.4-0.1c1.4,0,2.7-0.4,3.9-0.9c2.2-0.9,4.3-2.2,6.5-3.3c3.3-1.7,6.7-1.9,9.8,0.1c3.7,2.4,7,2.9,10.9,0.3
		c2.3-1.5,5.2-1.1,7.8-0.1c7,2.3,14,4.6,21,7c4.2,1.4,5.9,1.3,10-1.1c-0.7-1.3-1.5-2.5-2.2-3.9c-0.9-1.9-0.6-3.4,1.3-4.4
		c6.8-4,13.7-7.9,20.5-11.8c2.1-1.2,3.5-0.6,4.8,1.8c8.8,15.2,17.6,30.4,26.4,45.6c0.3,0.5,0.7,1.1,1.2,1.7
		C194.9,118.9,194.9,119.7,194.9,120.4z M34.3,126.5c3.9,2.3,7.6,4.5,11.4,6.6c0.4,0.2,1.4,0,1.8-0.4c3.3-3.2,6.3-6.3,9.6-9.5
		c3.5-3.4,7.6-4.4,12.2-2.7c4.5,1.6,7,4.9,7.8,9.6c0.1,0.6,0.1,1.4,0.2,2c3.5,0.1,6.4,1.1,8.8,3.5c2.4,2.4,3.4,5.6,3.5,8.9
		c3.6,0,6.5,1.2,8.9,3.5c0.3,0.3,0.8,0.4,1.3,0.3c1.8-0.3,3.5-0.8,5.2-1.3c0.5-7.3,4.9-11.8,12.5-12.2c0.1-4.9,2.3-8.7,6.8-11.2
		c-0.6-0.5-1.1-0.9-1.6-1.3c-4.3-3.3-8.7-6.4-12.9-9.8c-2.2-1.8-4.6-2.6-7.5-2.7c-2.2,0-3.8,0.6-4.9,2.6c-1.4,2.3-2.8,4.7-4.2,7
		c-1.6,2.5-3.9,3.7-6.9,3.4c-2.1-0.3-4.2-0.5-6.3-0.8c-4.9-0.6-7.3-4.3-6-9.1c1.1-3.7,2.2-7.4,3.2-11.1c0.9-4.1,3.4-6.9,7.3-8.6
		c2.6-1.2,5.2-2.5,7.9-3.9c-2.1-1.7-4.1-2.1-6.3-0.8c-1.7,0.9-3.6,1.8-5.3,2.7c-2.4,1.4-5,2-7.9,2c-5.8,0-11.6,0.1-17.3,0.1
		c-1.4,0-2.1,0.4-2.8,1.6c-4,6.9-8,13.9-12,20.8C38.4,119.2,36.4,122.7,34.3,126.5z M146.2,94.7c-0.8,0.3-1.7,0.5-2.4,0.8
		c-4.3,2-8.5,2-12.9,0.3c-6.8-2.5-13.8-4.7-20.6-6.8c-1.3-0.4-2.9-0.4-4.1,0.1c-6.9,3.3-13.8,6.6-20.5,10.1c-0.9,0.5-2,1.6-2.3,2.7
		c-1.4,4.1-2.4,8.3-3.6,12.5c-0.3,1.2,0.1,1.6,1.2,1.7c1.9,0.2,3.7,0.5,5.6,0.6c0.6,0,1.6-0.4,1.9-0.9c1.3-1.8,2.3-3.8,3.6-5.7
		c4-6.6,12.8-8.7,19-4c11.5,8.7,23.9,16.2,33.7,26.9c0.2,0.2,0.4,0.3,0.6,0.5c5.9-3.4,11.7-6.7,17.6-10.1
		C157.1,113.8,151.6,104.2,146.2,94.7z M187.8,118.2c-8.2-14.3-16.4-28.4-24.6-42.6c-5.4,3-10.5,6.1-15.9,9.1
		c8.2,14.2,16.4,28.4,24.6,42.6C177.3,124.3,182.5,121.2,187.8,118.2z M26.8,127.3c8.2-14.2,16.4-28.4,24.6-42.6
		c-5.4-3-10.5-6.1-15.9-9.1c-8.2,14.2-16.4,28.3-24.6,42.6C16.3,121.3,21.5,124.3,26.8,127.3z M67.8,160.1c0.6-0.3,2-0.5,2.8-1.4
		c3.9-3.7,7.7-7.4,11.4-11.2c2.1-2.2,1.7-5.7-0.5-7.8c-2.1-2-5.5-2.2-7.7-0.2c-3.8,3.6-7.6,7.4-11.1,11.1c-1.7,1.8-1.9,4-0.8,6.2
		C63,159.1,64.8,160,67.8,160.1z M145.4,144c-0.3-0.6-0.5-2.1-1.5-3c-3.6-3.8-7.3-7.5-11-11.1c-2.1-2-5.6-1.9-7.7,0.1
		c-2.2,2-2.6,5.6-0.6,7.8c3.7,4,7.6,7.8,11.5,11.5c1.7,1.6,4,1.7,6.1,0.6C144.4,148.9,145.3,147.1,145.4,144z M133.2,157.1
		c-0.5-1.2-0.7-2.6-1.6-3.5c-3.7-3.9-7.4-7.7-11.4-11.4c-2.2-2.1-5.7-1.7-7.8,0.5c-2,2.1-2.2,5.5-0.2,7.7c3.6,3.8,7.4,7.6,11.1,11.1
		c1.7,1.7,3.9,1.8,6.1,0.7C131.9,161.4,132.9,159.6,133.2,157.1z M54.9,147.9c1.2-0.5,2.5-0.7,3.5-1.6c3.9-3.7,7.7-7.5,11.4-11.4
		c2.1-2.2,1.7-5.7-0.4-7.8c-2.1-2-5.5-2.3-7.6-0.3c-3.9,3.7-7.7,7.5-11.4,11.4c-1.7,1.7-1.7,4-0.7,6.1
		C50.6,146.6,52.4,147.6,54.9,147.9z M89.9,150.1c-1.3,0.6-2.7,0.9-3.7,1.9c-3.7,3.5-7.3,7.1-10.8,10.7c-2.2,2.3-2.1,5.7,0,7.9
		c2.1,2.2,5.6,2.4,8.1,0.3c0.7-0.6,1.4-1.4,2.1-2.1c2.7-2.7,5.6-5.5,8.3-8.2c1.9-1.9,2.4-4.1,1.5-6.6
		C94.4,151.8,92.5,150.6,89.9,150.1z M101.7,158.7c6.3,2,8.8,6.2,7.8,12.3c-0.1,0.4-0.2,0.9,0,1.2c1.5,1.9,3.3,3.3,5.8,3
		c2.3-0.2,4-1.4,4.9-3.5c0.9-2.2,0.6-4.3-0.9-6.1c-3.6-3.7-7.3-7.4-10.9-10.9c-1.9-1.8-4.1-2-6.5-0.7
		C101.7,155.6,101.7,157.1,101.7,158.7z M103.8,168.9c-0.2-2.1-0.8-3.4-2.3-4c-1.7-0.7-3.2-0.3-4.4,0.9c-2.6,2.6-5.3,5.3-7.9,7.9
		c-1.8,1.8-1.8,4-0.2,5.7c1.6,1.6,3.9,1.6,5.7-0.2c2.6-2.6,5.4-5.3,7.9-7.9C103.2,170.5,103.5,169.5,103.8,168.9z M100.3,182.3
		c1.7,1.4,3.7,1.4,5.2-0.2c1.4-1.5,1.4-3.5,0-5C103.8,178.8,102,180.5,100.3,182.3z"/>
	<path class="st0" d="M99.5,78.2c-18.9,0.2-34.9-15.5-35.1-34.6C64.2,24.4,79.7,8.4,99,8.2C118.3,8,134.2,23.7,134.3,43
		C134.5,62.2,118.8,78,99.5,78.2z M99.3,72.2c16,0,29-13,29.1-29c0-16-13-29-29.1-29c-15.8,0-28.9,13.1-28.9,28.8
		C70.4,59.1,83.3,72.2,99.3,72.2z"/>
	<path class="st0" d="M95.5,46.2c4.8-4,9.5-7.8,14.2-11.6c0.3-0.2,0.5-0.5,0.8-0.7c1.6-1.2,3.3-0.9,4.3,0.3c1.1,1.3,0.8,3-0.5,4.3
		c-2.3,1.9-4.6,3.8-6.9,5.7c-3.4,2.7-6.6,5.5-10,8.1c-2.2,1.8-3.7,1.6-5.4-0.6c-1.9-2.5-3.8-5.2-5.6-7.7c-1.4-1.9-1.3-3.7,0.3-4.7
		c1.5-1.1,3.2-0.6,4.4,1.3C92.7,42.3,94,44.1,95.5,46.2z"/>
</g>
</svg>
