<?xml version="1.0" encoding="utf-8"?>
<!-- Generator: Adobe Illustrator 23.1.0, SVG Export Plug-In . SVG Version: 6.00 Build 0)  -->
<svg version="1.1" id="Layer_1" xmlns="http://www.w3.org/2000/svg" xmlns:xlink="http://www.w3.org/1999/xlink" x="0px" y="0px"
	 viewBox="0 0 200 200" style="enable-background:new 0 0 200 200;" xml:space="preserve">
<style type="text/css">
	.st0{fill:#424242;}
	.st1{fill:#424242;stroke:#424242;stroke-width:3;stroke-miterlimit:10;}
	.st2{fill:#11BC8B;}
</style>
<g>
	<path class="st0" d="M193.9,158.1c0-3.1,0-6.1,0-9.2c0-1.3,0.3-2.5,1.7-2.6c1.5-0.1,2.1,1.1,2.1,2.4c0,6.3-0.1,12.6-0.1,18.9
		c0,1.4-0.4,2.8-2.1,2.6c-1.7-0.1-1.8-1.5-1.8-2.9c0.1-3.1,0.3-6.2,0.4-9.3C194.1,158.1,194,158.1,193.9,158.1z"/>
	<g>
		<path class="st1" d="M161,60.9c0,0.3,0,0.5,0.1,0.8c0.5,3.6,1,7.2,1.5,10.8c0.1,0.5,0.1,1,0.2,1.4c0.1,1.6,0.2,3.2,0.4,4.8
			c0.1,0.5,0.5,1,1,1.3c1.4,0.8,2.9,1.4,4.3,2.1c0,0,0,0,0,0c0.8,1,1.5,2.1,2.4,3c0.6,0.6,1.4,1.2,2.2,1.5c0.8,0.4,1.8,0.5,2.7,0.7
			c3.5,1.7,5.4,4.5,5.9,8.4c0.2,1.5,0.6,2.9,0.9,4.4c0.1,0.3,0.1,0.6,0.2,0.9c0.1,0.7,0.1,1.5,0.3,2.2c2,8.3,2.4,16.6-0.7,24.7
			c0,0,0,0,0,0c-2.2,4.4-4.5,8.7-6.7,13.1c-0.5,1-0.7,2.2-1,3.2c-0.1,0-0.1,0.1-0.1,0.2c-0.8,3.6-1.6,7.2-2.5,11.2c1.4,0,2.2,0,3,0
			c3.1,0.1,5.7,2.3,5.8,5.4c0.1,7.5,0.1,14.9,0,22.4c-0.1,3.3-2.7,5.4-6.2,5.5c-8.1,0-16.2,0-24.2,0c-0.7,0-1.5,0.1-2.2,0.1
			c-0.5,0-1.1,0-1.6,0c-0.4,0-0.8,0-1.2,0c-1.1,0-2.2-0.1-3.3-0.1c-32.7,0-65.4,0-98.1,0c-5.6,0-8.4-2.7-8.4-8.4
			c0-20.2,0.1-40.4,0.1-60.6c0-3.2-0.9-3.8-3.8-2.7c-3.2,1.2-6.4,2.4-9.5,3.7c-1.5,0.6-2.6,0.2-3.6-0.9c-5.3-6.1-9.3-13-11.9-20.7
			C6,98,6.3,97,7.5,96c2.8-2.2,5.7-4.5,8.4-6.8c0.6-0.5,1-1.7,1-2.5c0.1-3.9,0-7.7,0.1-11.6c0-1.2-0.2-1.9-1.1-2.6
			c-2.8-2.2-5.5-4.5-8.3-6.6c-1.3-1-1.6-2.1-1.1-3.7c2.6-7.6,6.5-14.3,11.7-20.4c1.1-1.3,2.2-1.7,3.9-1c3.3,1.4,6.7,2.6,10.1,3.9
			c1.8,0.7,3-0.1,3-1.9c0-4.8,0-9.7-0.1-14.5c0-2.8,0.1-5.6,0.1-8.4c0.1-4.6,2.9-7.5,7.5-7.5c32.2,0,64.3,0,96.5,0
			c1.2,0,2.4,0.3,3.6,0.5c0.3,0.2,0.5,0.3,0.8,0.5c2.4,1.8,3.3,4.3,3.3,7.3c-0.1,8.1,0,16.2,0,24.3c0,0.9,0,1.9,0,3
			c0.5-0.1,0.8-0.1,1.1-0.2c5.9-1.8,11.2,1.7,12,7.8C160.3,57.3,160.7,59.1,161,60.9z M174.9,185c1.5-0.1,2-1.2,2-2.4
			c0.1-6.9,0.1-13.7,0-20.6c0-1.7-0.9-2.6-2.7-2.6c-13.5,0-27,0-40.6,0c-1.9,0-2.8,0.9-2.8,2.7c0,6.2,0,12.5,0.1,18.7
			c-0.3,3.6,0.3,4.2,3.8,4.2c12.4,0,24.7,0,37.1,0C172.8,185.1,173.8,185.1,174.9,185z M50,121.7c-0.3,2.6-1.3,3.2-3.7,2.2
			c-2.3-1-4.6-2.1-7-3.1c0,16,0,31.9,0,47.6c29.3,0,58.5,0,87.7,0c0-1.3,0-2.3,0-3.4c0-1.1,0-2.2,0-3.3c0.1-3.6,2.5-6,6-6.1
			c0.6,0,1.2-0.1,1.6-0.1c0.7-2.8,0.1-4.6-2.5-6.2c-5.2-3-8.8-7.6-11.9-12.6c-3.1-5.1-4.4-10.8-5.9-16.4c-1-3.6-0.7-7.7-4.1-10.4
			c1.1-2.2,0.3-4.3,0-6.5c-0.2-2.1,0.3-4.2,0.5-6.4c0-0.7,0-1.6-0.4-2c-1.5-1.4-3.1-2.7-4.7-3.9c-1.3-0.9-1.6-2-1.3-3.5
			c0.9-4.5,0.9-9.1,0-13.6c-0.3-1.5,0.1-2.6,1.3-3.5c2.7-2.1,5.4-4.4,8.1-6.5c0.9-0.7,1.1-1.3,0.7-2.4c-2.2-5.8-5.2-11.1-9.1-15.8
			c-0.9-1-1.6-1.2-2.8-0.7c-3.2,1.3-6.4,2.4-9.5,3.7c-1.3,0.5-2.3,0.3-3.6-0.4c-4-2.5-8-4.8-12.1-7c-1.2-0.7-1.9-1.3-2.1-2.7
			c-0.5-3.4-1.1-6.8-1.6-10.3c-0.2-1.3-0.7-1.8-2-2c-6.1-1-12.2-1-18.3,0c-1.2,0.2-1.6,0.7-1.7,1.8c-0.5,3.6-1.1,7.3-1.8,10.9
			c-0.2,0.8-1,1.7-1.7,2.2c-4,2.4-8.1,4.6-12.1,7c-1.4,0.8-2.4,1.2-3.9,0.5c-3.2-1.3-6.4-2.6-9.7-3.7c-0.6-0.2-1.8,0.1-2.2,0.6
			c-4,4.7-7.2,10.1-9.3,15.9c-0.4,1.1-0.3,1.7,0.6,2.4c2.7,2.1,5.4,4.4,8.1,6.5c1.2,0.9,1.5,2,1.4,3.5c-0.2,4.5-0.2,9.1,0,13.6
			c0.1,1.5-0.2,2.6-1.4,3.5c-2.7,2.1-5.3,4.3-8,6.4c-1,0.8-1.2,1.5-0.8,2.7c2.1,5.8,5.2,11,9.2,15.8c0.8,0.9,1.4,1,2.4,0.6
			c3.2-1.3,6.4-2.4,9.5-3.7c1.6-0.7,2.7-0.3,4.1,0.6c3.6,2.3,7.5,4.4,11.2,6.6C48.2,120.7,49.1,121.2,50,121.7z M39.2,41.1
			c2.1-1,4-1.8,5.7-2.8c0.7-0.4,1.4-1.3,1.5-2c0.7-3.6,1.3-7.2,1.8-10.9c0.2-1.6,1.1-2.2,2.5-2.5c8-1.6,15.9-1.6,23.9,0
			c1.5,0.3,2.3,1.1,2.6,2.7c0.5,3.5,1.1,7,1.6,10.5c0.2,1.2,0.7,1.8,1.8,2.4c3.4,1.8,6.8,3.7,10,5.8c1,0.6,1.7,0.7,2.8,0.3
			c3.2-1.3,6.5-2.4,9.7-3.8c1.8-0.7,2.9-0.3,4.1,1.1c5.2,6,9,12.8,11.6,20.2c0.6,1.6,0.3,2.8-1.1,3.9c-2.6,2-5,4.2-7.7,6.1
			c-1.5,1.1-1.6,2.3-1.5,4c0.2,3.4,0,6.8,0,10.2c0,0.8-0.2,2,0.3,2.4c1.7,1.6,3.7,2.9,5.6,4.3c0.1,0.1,0.6-0.3,0.9-0.4
			c5.9-2.6,11.9,0.4,13.4,6.7c1.1,4.4,2.1,8.7,3.2,13.1c0.5,2.1,1.5,4,3.6,5.6c2.6-4.5,5.4-8.6,7.4-13.1c3.7-8,2.6-16.7,2.1-25.2
			c-0.3-6.2-1.7-12.3-2.4-18.4c-0.3-2.7-0.1-5.5,0-8.3c0-1.2,0.6-2.4,0.6-3.6c0-9.5,0-18.9,0-28.4c0-4-1-4.9-5-4.9
			c-25.3,0-50.6,0-75.9,0c-6.4,0-12.8,0-19.2,0c-2.8,0-4,1.2-4.1,3.7C39.1,26.8,39.2,33.7,39.2,41.1z M163.4,83.9
			c0,4.8,0,9.3,0,13.8c0,4.5,0.1,9,0.1,13.5c0,1.3-0.4,2.4-1.9,2.4c-1.4,0-1.9-1.1-1.9-2.4c0-0.3,0-0.5,0-0.8
			c0-5.4-0.2-10.8-0.1-16.1c0.2-12.8-1.5-25.5-3.3-38.2c-0.5-3.6-3-5.5-6.2-5c-2.9,0.5-4.4,3.1-4,6.5c1.3,11.1,3.3,22,3.1,33.3
			c-0.1,8.7-2,16.5-7.1,23.6c-1.2,1.7-2.2,3.5-3.5,5.4c0.9,0.2,1.5,0.3,2.1,0.3c1.4,0.1,3,0.4,2.8,2.2c-0.2,1.9-1.9,1.9-3.4,1.7
			c-6-0.9-10.3-4.7-11.9-10.6c-1.1-4.3-2.2-8.7-3.3-13.1c-0.9-3.7-3.7-5.6-7-4.8c-3.2,0.8-4.8,3.9-3.9,7.6
			c1.5,6.1,3.1,12.2,4.5,18.4c2.6,11.5,8.2,20.8,18.8,26.6c0.7,0.4,1.2,1.6,1.3,2.5c0.2,1.6,0.1,3.2,0.1,4.9c10,0,19.8,0,29.4,0
			c0.6-3.3,1-6.6,1.7-9.7c1.2-5.9,4.3-11,7.1-16.2c2.2-4.2,3.6-8.6,3.7-13.4c0.1-7.6-2.2-14.8-3.5-22.1c-0.4-2.1-2.6-3.3-4.8-3.2
			c0.1,0.5,0.1,1.1,0.2,1.6c1.2,6.5,2.4,13.1,3.7,19.6c0.3,1.5,0.9,3.5-1.3,3.9c-2.2,0.4-2.2-1.7-2.5-3.2c-1.5-7.9-3-15.8-4.4-23.7
			C167.5,86.6,166,85,163.4,83.9z M127,172.5c-29.3,0-58.4,0-87.8,0c0,2.8,0,5.5,0,8.2c0,3.3,1.1,4.4,4.4,4.4c27.1,0,54.1,0,81.2,0
			c0.8,0,1.6,0,2.2,0C127,180.7,127,176.6,127,172.5z"/>
		<path class="st2" d="M50,121.7c-0.9-0.5-1.7-1-2.6-1.5c-3.7-2.2-7.6-4.3-11.2-6.6c-1.4-0.9-2.5-1.3-4.1-0.6
			c-3.1,1.3-6.3,2.4-9.5,3.7c-1,0.4-1.7,0.3-2.4-0.6c-3.9-4.8-7-10-9.2-15.8c-0.5-1.3-0.3-2,0.8-2.7c2.7-2.1,5.3-4.3,8-6.4
			c1.2-0.9,1.4-2,1.4-3.5c-0.2-4.5-0.2-9.1,0-13.6c0.1-1.5-0.2-2.6-1.4-3.5c-2.7-2.1-5.4-4.4-8.1-6.5c-0.9-0.7-1-1.4-0.6-2.4
			c2.1-5.9,5.3-11.2,9.3-15.9c0.4-0.5,1.6-0.8,2.2-0.6c3.3,1.1,6.5,2.4,9.7,3.7c1.5,0.6,2.6,0.3,3.9-0.5c4-2.5,8.1-4.6,12.1-7
			c0.8-0.5,1.6-1.4,1.7-2.2c0.7-3.6,1.3-7.2,1.8-10.9c0.2-1.1,0.6-1.6,1.7-1.8c6.1-1,12.2-1,18.3,0c1.3,0.2,1.8,0.7,2,2
			c0.4,3.4,1.1,6.8,1.6,10.3c0.2,1.4,0.9,2,2.1,2.7c4.1,2.2,8.2,4.5,12.1,7c1.2,0.8,2.2,1,3.6,0.4c3.1-1.3,6.3-2.4,9.5-3.7
			c1.2-0.5,2-0.4,2.8,0.7c3.9,4.8,6.9,10.1,9.1,15.8c0.4,1.1,0.3,1.7-0.7,2.4c-2.8,2.1-5.4,4.4-8.1,6.5c-1.2,0.9-1.6,2-1.3,3.5
			c0.9,4.5,0.9,9.1,0,13.6c-0.3,1.5,0,2.6,1.3,3.5c1.7,1.2,3.3,2.5,4.7,3.9c0.4,0.4,0.4,1.3,0.4,2c-0.1,2.1-0.7,4.3-0.5,6.4
			c0.2,2.2,1.1,4.3,0,6.5c-0.4,0.3-0.9,0.6-1.3,0.9c-1.7-2.7-3.4-5.4-5.2-8c-0.9-1.3-2.1-1.6-3.6-1c-1.4,0.6-2.8,1.1-4.2,1.6
			c-0.5,0.2-1.2,0.3-1.7,0.1c-5.4-2.4-5.7-2.7-6.5-8.7c-0.2-1.7-1-2.7-2.7-2.7c-4-0.1-8-0.1-12,0c-1.7,0-2.7,1-2.9,2.8
			c-0.1,1.5-0.4,3-0.7,4.4c-0.1,0.5-0.5,1.2-0.9,1.5c-5,3.3-5,3.4-10.8,1.1c-1.5-0.6-2.7-0.4-3.5,1c-2,3.4-4,6.7-6,10.2
			c-1,1.8-0.6,3.4,1.2,4.3c3.7,2,4.6,5.1,3.9,9c-0.2-1.4-0.3-2.9-0.5-4.5C51.9,121.7,50.9,121.7,50,121.7z M54,77.3
			c-1.7-1.9-3.1-3.5-4.7-5c-3-3.1-7.7-3.1-10.6-0.3c-3,2.9-3,7.5,0,10.6c3.1,3.2,6.3,6.4,9.5,9.5c3.5,3.4,8.6,3.3,12.1-0.1
			c3.1-3,6.2-6.1,9.3-9.2c4.9-4.8,9.7-9.7,14.5-14.6c2.4-2.4,2.8-5.6,1.5-8.5c-1.3-2.8-4.1-4.7-7.3-4.1C76.4,56,74.4,57,73,58.3
			C66.7,64.4,60.6,70.7,54,77.3z"/>
		<path class="st2" d="M130.9,180.9c0-6.2-0.1-12.5-0.1-18.7c0-1.8,0.9-2.7,2.8-2.7c13.5,0,27,0,40.6,0c1.8,0,2.7,1,2.7,2.6
			c0,6.9,0,13.7,0,20.6c0,1.2-0.5,2.3-2,2.4c-0.8-0.1-1.5-0.4-2.3-0.4c-12.1,0-24.2,0-36.3,0c-3.5,0-3.5,0-4.8-3.4
			C131.4,181.1,131.1,181,130.9,180.9z"/>
		<path class="st2" d="M127,172.5c0,4.2,0,8.2,0,12.7c-0.7,0-1.4,0-2.2,0c-27.1,0-54.1,0-81.2,0c-3.3,0-4.3-1.1-4.4-4.4
			c0-2.7,0-5.4,0-8.2C68.5,172.5,97.7,172.5,127,172.5z"/>
		<path class="st2" d="M130.9,180.9c0.2,0.1,0.5,0.1,0.5,0.3c1.3,3.4,1.3,3.4,4.8,3.4c12.1,0,24.2,0,36.3,0c0.8,0,1.5,0.3,2.3,0.4
			c-1,0-2,0.1-3,0.1c-12.4,0-24.7,0-37.1,0C131.1,185.2,130.6,184.6,130.9,180.9z"/>
		<path class="st1" d="M109,110.8c1.9,5.4,2.2,4.5-2.3,8c-1.7,1.3-1.9,2.7-2.1,4.6c-0.4,3.6,1,5.9,3.9,7.6c1.9,1.1,2.3,2.6,1.2,4.5
			c-1.9,3.3-3.8,6.6-5.7,9.8c-0.9,1.6-2.3,1.8-4,1.1c-5.6-2.2-5.7-2.2-10.7,1.3c-0.4,0.3-0.6,0.8-0.8,1.3c-0.3,1.2-0.5,2.4-0.7,3.6
			c-0.5,3.3-0.6,3.7-4.1,3.8c-3.7,0.2-7.4-0.1-11.1-0.3c-1.5-0.1-2.3-1-2.4-2.6c0-0.1,0-0.1,0-0.2c-0.9-5.9-1-6.1-6.4-8.6
			c-0.5-0.2-1.2-0.2-1.7,0c-1,0.3-2,0.7-3.1,1.1c-3.4,1.3-3.7,1.4-5.7-1.7c-2-3-3.6-6.4-5.3-9.6c-0.7-1.3-0.3-2.3,0.8-3.2
			c1.2-0.9,2.4-1.8,3.5-2.9c0.6-0.6,0.7-1.6,1-2.4c0.7-3.9-0.2-7-3.9-9c-1.8-1-2.2-2.6-1.2-4.3c1.9-3.4,3.9-6.8,6-10.2
			c0.8-1.4,2-1.5,3.5-1c5.8,2.2,5.8,2.2,10.8-1.1c0.4-0.3,0.8-0.9,0.9-1.5c0.3-1.5,0.6-2.9,0.7-4.4c0.2-1.8,1.1-2.8,2.9-2.8
			c4,0,8,0,12,0c1.7,0,2.4,1.1,2.7,2.7c0.8,6,1.1,6.3,6.5,8.7c0.5,0.2,1.2,0.1,1.7-0.1c1.4-0.5,2.8-1,4.2-1.6c1.5-0.6,2.7-0.3,3.6,1
			C105.6,105.4,107.3,108.1,109,110.8z M106.1,114c-0.7-1.5-1.3-2.9-2-4.2c-2.5-4.3-2.5-4.3-7.1-2.6c-0.3,0.1-0.7,0.3-1,0.3
			c-1.1-0.1-2.4-0.1-3.4-0.5c-2-0.9-3.7-2.2-5.7-3.2c-1.2-0.6-2-1.3-2.1-2.7c0-0.9-0.4-1.9-0.4-2.8c0-2.1-1-3-3.1-2.9
			c-1.8,0.1-3.7,0.1-5.5,0.1c-1.4,0-2.2,0.5-2.2,2c0.1,4.1-2.2,6-5.6,8.1c-3.6,2.2-6.4,2.4-9.9,0.7c-0.5-0.3-1.8,0.1-2.1,0.6
			c-1.3,1.9-2.4,3.9-3.6,5.9c-0.7,1.2-0.4,2,0.7,2.7c3.2,1.9,5.1,4.3,3.9,8.3c-0.1,0.2-0.1,0.4,0,0.6c1.3,4.2-0.6,6.8-4.1,8.8
			c-1,0.6-1.2,1.5-0.6,2.4c1.1,1.9,2.2,3.8,3.2,5.7c0.7,1.3,1.7,1.6,3,0.9c3.2-1.9,5.8-1.3,9.1,0.6c3.7,2.1,6.1,4.2,6,8.6
			c0,1.2,0.6,1.7,1.8,1.7c2.2,0,4.3,0,6.5,0c1.4,0,2-0.5,2.2-2c1-6.4,0.3-4.7,5.4-8c3.6-2.3,6.5-2.8,10-0.7c1,0.6,1.8,0.2,2.4-0.7
			c1.1-1.9,2.2-3.8,3.3-5.6c0.7-1.2,0.6-2.1-0.7-2.9c-3.2-1.9-5.1-4.4-3.8-8.3c0-0.1,0-0.3,0-0.4c-1.2-4.2,0.6-7,4.1-9
			C105.5,114.9,105.7,114.4,106.1,114z"/>
		<path class="st1" d="M54,77.3c6.5-6.6,12.7-12.9,19-19c1.4-1.3,3.4-2.3,5.3-2.7c3.2-0.6,6,1.3,7.3,4.1c1.3,2.9,0.9,6-1.5,8.5
			c-4.8,4.9-9.7,9.7-14.5,14.6c-3.1,3.1-6.1,6.1-9.3,9.2c-3.5,3.4-8.6,3.5-12.1,0.1c-3.2-3.1-6.4-6.3-9.5-9.5c-3-3.1-3-7.7,0-10.6
			c3-2.9,7.6-2.8,10.6,0.3C50.9,73.8,52.3,75.4,54,77.3z M54.3,91.2c1.3-0.8,2.6-1.3,3.6-2.2c4.3-4.2,8.6-8.5,12.9-12.8
			c3.6-3.6,7.1-7.1,10.6-10.7c1.5-1.6,1.4-3.7,0-5.1c-1.4-1.3-3.3-1.3-5,0.1c-0.8,0.7-1.5,1.4-2.2,2.1c-5.9,5.9-11.8,11.8-17.7,17.7
			c-1.8,1.8-2.6,1.8-4.4,0c-1.8-1.8-3.5-3.6-5.4-5.3c-1.7-1.6-3.8-1.7-5.3-0.2c-1.5,1.5-1.4,3.6,0.2,5.3c3,3.1,6.1,6.2,9.3,9.2
			C51.7,90.1,52.9,90.4,54.3,91.2z"/>
		<path class="st1" d="M79.1,139.7c-9,0-15.8-7-15.8-16.2c0.1-8.6,7.1-15.3,16-15.3c8.8,0,15.6,7,15.6,16.2
			C94.9,132.8,87.7,139.7,79.1,139.7z M79,112c-6.6,0-11.9,5.4-11.9,12c0,6.5,5.4,12,12,12c6.6,0,12-5.4,12-12.1
			C91,117.3,85.6,112,79,112z"/>
	</g>
</g>
</svg>
