<?xml version="1.0" encoding="utf-8"?>
<!-- Generator: Adobe Illustrator 23.1.0, SVG Export Plug-In . SVG Version: 6.00 Build 0)  -->
<svg version="1.1" id="Layer_1" xmlns="http://www.w3.org/2000/svg" xmlns:xlink="http://www.w3.org/1999/xlink" x="0px" y="0px"
	 viewBox="0 0 200 200" style="enable-background:new 0 0 200 200;" xml:space="preserve">
<style type="text/css">
	.st0{fill:#00936C;}
</style>
<g>
	<path class="st0" d="M92.6,134.2c-1,4.4-1.5,9-3,13.2c-6,17-18.3,26.7-36,29.2c-24.6,3.5-43-14.3-47.2-32.2
		c-2.2-9.5-1-18.8,3.5-27.3c7.8-14.4,16-28.7,25.5-42.1c1.7-2.4,3.3-4.9,6.4-5.8c0.4-0.1,0.7-1,0.9-1.5c1.5-4,2.6-8.3,4.7-12
		c5.7-10.7,17.1-13.3,27.3-6.6c1.2,0.8,2.3,1.9,3.6,2.4c1.6,0.6,3.3,0.7,5,0.8c0.3,0,0.9-0.4,1-0.7c1.7-6.3,6.7-8.5,12.4-9.6
		c4.5-0.9,8.9-0.3,13,1.8c2.5,1.3,4.5,3.1,5.7,5.8c0.8,1.9,1.8,2.3,3.7,1.4c0.6-0.3,1.2-0.8,1.8-1.2c5.3-3.5,11-4.7,17.2-3.6
		c3.7,0.7,6.6,2.8,9,5.6c3.8,4.4,6.1,9.7,8.4,15c0.4,0.9,1.3,1.6,2.1,2.3c1.3,1.2,3.1,2.2,4,3.6c8.6,13.8,17,27.6,25.5,41.4
		c1.1,1.7,2.4,3.3,3.4,5c8,13.8,6.2,30.6-4.5,43.1c-14.5,16.9-39.6,19.7-58.4,6.2c-10.7-7.7-17.2-18.1-19.6-31
		c-0.6-3.3-0.7-3.3-4-3.3C100.1,134.2,96.2,134.2,92.6,134.2z M174.7,102.8c0-0.2,0-0.3-0.1-0.4c-5.6-9-11.3-18.1-17-27.1
		c-0.5-0.7-1.2-1.5-2-1.8c-6.1-3-12.5-4-19.3-3.1c-7.5,1-14,4.3-20,9c-1.5,1.2-3.5,2.3-5.4,2.5c-8.6,0.6-17.3,1-25.9,1.2
		c-1.9,0-4.2-0.7-5.8-1.9c-10.6-7.8-22.3-9.7-35-7.7c-1.9,0.3-3.5,1.1-4.5,2.8c-5.3,8.3-10.7,16.6-16,24.9c-0.3,0.5-0.5,1-0.9,1.8
		c1.2-0.6,1.9-1.1,2.8-1.5c14.6-6.8,29.1-8,43.5,0.5c0.6,0.3,1.6,0.3,2.3,0c18.5-8.9,37-8.6,55.4,0.2c0.7,0.3,1.9,0.3,2.6,0
		C144.7,94.7,159.7,93.7,174.7,102.8z M152.1,170.5c2.2-0.2,4.4-0.3,6.6-0.6c19.9-2.8,33.2-21,29.3-40.6
		c-2.8-14.1-12-23.3-25.6-27.3c-9.9-2.9-19.9-1.4-29.2,3.2c-15.9,7.8-22.7,25-16.5,41.6C122,161.1,136,170.4,152.1,170.5z M47.5,170
		c22.4,0,38.4-16.9,36.5-38.6c-1.5-16.4-15.6-27.5-26.3-30.2c-10.8-2.7-21.4-1-31.1,4.6c-12.7,7.3-18.8,20.8-15.9,34.7
		C14.3,158.1,29.2,170,47.5,170z M124.2,105.5c-16.8-7.9-33.2-7.9-50.1-0.3c7.6,6.4,12.4,14.2,14,24c7.5-1.4,14.8-1.3,22.1,0
		C111.9,119.5,116.5,111.9,124.2,105.5z M79,75c3,3.5,6.7,3.9,10.7,3.5c3.5-0.4,7.1-0.4,10.6-0.6c3.4-0.2,6.8-0.3,10.2-0.6
		c2.9-0.3,5-2.8,5-5.7c0-4.6,0-9.3,0-13.9c0-0.7-0.1-1.4-0.1-2.3c-5.2,0-10.2,0-15.3,0c0,1.3,0,2.6,0,3.8c0,2.6,0.2,5.2-0.1,7.8
		c-0.1,0.7-1.2,1.9-1.9,1.9c-0.8,0-1.7-0.9-2.3-1.7c-0.3-0.3-0.1-1.1-0.1-1.7c0-3.3,0-6.6,0-10.2c-4.6,0.5-8.9,1-13.2,1.5
		c-1,0.1-1.4,0.6-1.5,1.6C80.4,64.1,79.7,69.7,79,75z M74.7,73.3c0.7-5.6,1.4-10.8,2-16c0.1-0.5-0.3-1.2-0.8-1.5
		c-1.5-1.2-3.1-2.2-4.7-3.2c-6.4-4.1-14.1-2.9-18.6,2.9c-3,3.9-4.4,8.5-5.7,13.5C56.6,67.8,65.8,69,74.7,73.3z M150.7,66.5
		c-1.8-3.4-3.2-6.4-4.9-9.1c-4.8-7.6-11.5-9.3-20.3-5.4c-5.5,2.5-5.5,2.8-5.5,8.7c0,2.4,0,4.7,0,7.1c0,1,0,2,0,3.4
		C129.7,65.7,139.5,64,150.7,66.5z M110.7,51.3c0.1-0.2,0.2-0.5,0.2-0.7c-2.5-3.9-6.6-4.5-10.8-4.4c-4.4,0.1-8.6,1.1-11.2,5.1
		C96.2,51.3,103.4,51.3,110.7,51.3z"/>
	<path class="st0" d="M21.7,49.8c0.5-0.6,0.9-1.6,1.6-1.8c0.7-0.2,2-0.1,2.5,0.5c2.4,2.8,4.6,5.7,6.8,8.6c0.8,1.1,0.3,2.1-0.6,2.9
		c-0.9,0.8-2,0.9-2.8,0c-2.4-2.9-4.6-5.8-6.9-8.8C22,50.9,21.9,50.4,21.7,49.8z"/>
	<path class="st0" d="M17.9,59.7c3.7,1.2,7,2.1,10.1,3.3c0.6,0.2,1.2,1.9,0.9,2.5c-0.2,0.6-1.7,1.3-2.4,1.2c-3-0.7-5.9-1.6-8.8-2.6
		c-0.7-0.3-1.5-1.5-1.5-2.3C16.2,61,17.3,60.3,17.9,59.7z"/>
	<path class="st0" d="M38,49.3c0,1,0,2.1,0,3.1c0,1.4-0.9,2.2-2.2,2.2c-1.3,0.1-2.4-0.7-2.4-2.1c-0.1-2.3-0.1-4.7,0-7.1
		c0.1-1.3,1-2.1,2.4-2.1c1.4,0.1,2.2,0.9,2.2,2.3C38,46.9,38,48.1,38,49.3z"/>
	<path class="st0" d="M152.4,109.4c12-0.8,25.8,10.3,26.6,23.9c0.9,14.7-9,26.6-23.5,28.3c-15.2,1.8-28.8-8.2-31.3-23
		c-1.8-10.8,4.3-21.7,14.8-26.4C143.3,110.3,147.7,109.3,152.4,109.4z M152.2,113.7c-3.1,0.7-6.3,1-9.3,2.1
		c-7.7,2.8-12.9,8.1-14.1,16.3c-1.3,8.7,1.9,15.7,9,20.8c5.5,3.9,11.8,5.1,18.5,4c12.7-2,20.9-14,18-26.4
		C172.5,122.4,162.7,113.5,152.2,113.7z"/>
	<path class="st0" d="M75.9,135.1c0,13.5-10,24.9-23.5,26.6c-11.1,1.4-20.5-1.7-27.6-10.5c-12.3-15.3-4.7-37,14.5-41.8
		c5.6-1.4,11.1-1.6,16.7-0.1C67.1,112.1,75.9,123.5,75.9,135.1z M71.4,134.8c-0.1-10.2-6.8-18-15.5-21.1c-5.7-2-11.6-1.5-17.4,0.4
		c-16.6,5.6-20.7,25.4-7.6,37.1c4.2,3.8,9.3,5.7,14.9,6.3C59.5,158.9,71.4,148.3,71.4,134.8z"/>
	<path class="st0" d="M98.7,105.8c4.4,0,7.9,3.6,7.9,8.1c0,4.9-3.5,8.5-8.1,8.5c-4.8,0-8.2-3.7-8.2-8.5
		C90.5,109.4,94.1,105.8,98.7,105.8z"/>
	<path class="st0" d="M167.6,132c-0.2,5.4-1.4,9.1-4.4,12.1c-0.9,0.9-2,1.8-3.2,0.6c-1.1-1.1-1-2.5,0.1-3.7c3.6-3.9,4.1-8.2,1.7-13
		c-0.6-1.3-0.7-2.5,0.7-3.2c1.3-0.7,2.5-0.1,3,1.2C166.5,128.3,167.2,130.7,167.6,132z"/>
	<path class="st0" d="M36.8,126.7c-0.4,0.9-0.6,1.4-0.9,1.9c-3.1,5.6-1.4,11.6,4.1,14.6c1.4,0.7,2.3,1.6,1.5,3.2
		c-0.7,1.4-1.9,1.6-3.6,0.7c-7.6-4-10.2-13.9-5.5-20.9c0.5-0.7,1.8-1.3,2.7-1.3C35.6,125,36.2,126.1,36.8,126.7z"/>
	<path class="st0" d="M44.9,147.5c1.1,0.9,2.3,1.7,3.5,2.6c-1.1,1.3-2.2,1.7-3.4,0.8C43.8,150,43.9,148.9,44.9,147.5z"/>
</g>
</svg>
